<svg width="250" height="129" viewBox="0 0 250 129" fill="none" xmlns="http://www.w3.org/2000/svg">
<rect width="250" height="129" rx="5" fill="#F5F5F5"/>
<path d="M19.3203 18.6172H17.1172V23H15.1406V11.625H19.1406C20.4531 11.625 21.4661 11.9193 22.1797 12.5078C22.8932 13.0964 23.25 13.9479 23.25 15.0625C23.25 15.8229 23.0651 16.4609 22.6953 16.9766C22.3307 17.487 21.8203 17.8802 21.1641 18.1562L23.7188 22.8984V23H21.6016L19.3203 18.6172ZM17.1172 17.0312H19.1484C19.8151 17.0312 20.3359 16.8646 20.7109 16.5312C21.0859 16.1927 21.2734 15.7318 21.2734 15.1484C21.2734 14.5391 21.099 14.0677 20.75 13.7344C20.4062 13.401 19.8906 13.2292 19.2031 13.2188H17.1172V17.0312ZM28.6641 23.1562C27.4609 23.1562 26.4844 22.7786 25.7344 22.0234C24.9896 21.263 24.6172 20.2526 24.6172 18.9922V18.7578C24.6172 17.9141 24.7786 17.1615 25.1016 16.5C25.4297 15.8333 25.888 15.3151 26.4766 14.9453C27.0651 14.5755 27.7214 14.3906 28.4453 14.3906C29.5964 14.3906 30.4844 14.7578 31.1094 15.4922C31.7396 16.2266 32.0547 17.2656 32.0547 18.6094V19.375H26.5312C26.5885 20.0729 26.8203 20.625 27.2266 21.0312C27.638 21.4375 28.1536 21.6406 28.7734 21.6406C29.6432 21.6406 30.3516 21.2891 30.8984 20.5859L31.9219 21.5625C31.5833 22.0677 31.1302 22.4609 30.5625 22.7422C30 23.0182 29.3672 23.1562 28.6641 23.1562ZM28.4375 15.9141C27.9167 15.9141 27.4948 16.0964 27.1719 16.4609C26.8542 16.8255 26.651 17.3333 26.5625 17.9844H30.1797V17.8438C30.138 17.2083 29.9688 16.7292 29.6719 16.4062C29.375 16.0781 28.9635 15.9141 28.4375 15.9141ZM40.9375 18.8594C40.9375 20.1667 40.6406 21.2109 40.0469 21.9922C39.4531 22.7682 38.6562 23.1562 37.6562 23.1562C36.7292 23.1562 35.987 22.8516 35.4297 22.2422V26.25H33.5312V14.5469H35.2812L35.3594 15.4062C35.9167 14.7292 36.6745 14.3906 37.6328 14.3906C38.6641 14.3906 39.4714 14.776 40.0547 15.5469C40.6432 16.3125 40.9375 17.3776 40.9375 18.7422V18.8594ZM39.0469 18.6953C39.0469 17.8516 38.8776 17.1823 38.5391 16.6875C38.2057 16.1927 37.7266 15.9453 37.1016 15.9453C36.3255 15.9453 35.7682 16.2656 35.4297 16.9062V20.6562C35.7734 21.3125 36.3359 21.6406 37.1172 21.6406C37.7214 21.6406 38.1927 21.3984 38.5312 20.9141C38.875 20.4245 39.0469 19.6849 39.0469 18.6953ZM47.6719 22.1719C47.1146 22.8281 46.3229 23.1562 45.2969 23.1562C44.3802 23.1562 43.6849 22.888 43.2109 22.3516C42.7422 21.8151 42.5078 21.0391 42.5078 20.0234V14.5469H44.4062V20C44.4062 21.0729 44.8516 21.6094 45.7422 21.6094C46.6641 21.6094 47.2865 21.2786 47.6094 20.6172V14.5469H49.5078V23H47.7188L47.6719 22.1719ZM53.8203 12.4922V14.5469H55.3125V15.9531H53.8203V20.6719C53.8203 20.9948 53.8828 21.2292 54.0078 21.375C54.138 21.5156 54.3672 21.5859 54.6953 21.5859C54.9141 21.5859 55.1354 21.5599 55.3594 21.5078V22.9766C54.9271 23.0964 54.5104 23.1562 54.1094 23.1562C52.651 23.1562 51.9219 22.3516 51.9219 20.7422V15.9531H50.5312V14.5469H51.9219V12.4922H53.8203ZM61.8203 23C61.737 22.8385 61.6641 22.5755 61.6016 22.2109C60.9974 22.8411 60.2578 23.1562 59.3828 23.1562C58.5339 23.1562 57.8411 22.9141 57.3047 22.4297C56.7682 21.9453 56.5 21.3464 56.5 20.6328C56.5 19.7318 56.8333 19.0417 57.5 18.5625C58.1719 18.0781 59.1302 17.8359 60.375 17.8359H61.5391V17.2812C61.5391 16.8438 61.4167 16.4948 61.1719 16.2344C60.9271 15.9688 60.5547 15.8359 60.0547 15.8359C59.6224 15.8359 59.2682 15.9453 58.9922 16.1641C58.7161 16.3776 58.5781 16.651 58.5781 16.9844H56.6797C56.6797 16.5208 56.8333 16.0885 57.1406 15.6875C57.4479 15.2812 57.8646 14.9635 58.3906 14.7344C58.9219 14.5052 59.513 14.3906 60.1641 14.3906C61.1536 14.3906 61.9427 14.6406 62.5312 15.1406C63.1198 15.6354 63.4219 16.3333 63.4375 17.2344V21.0469C63.4375 21.8073 63.5443 22.4141 63.7578 22.8672V23H61.8203ZM59.7344 21.6328C60.1094 21.6328 60.4609 21.5417 60.7891 21.3594C61.1224 21.1771 61.3724 20.9323 61.5391 20.625V19.0312H60.5156C59.8125 19.0312 59.2839 19.1536 58.9297 19.3984C58.5755 19.6432 58.3984 19.9896 58.3984 20.4375C58.3984 20.8021 58.5182 21.0938 58.7578 21.3125C59.0026 21.526 59.3281 21.6328 59.7344 21.6328ZM68.8984 21.6406C69.3724 21.6406 69.7656 21.5026 70.0781 21.2266C70.3906 20.9505 70.5573 20.6094 70.5781 20.2031H72.3672C72.3464 20.7292 72.1823 21.2214 71.875 21.6797C71.5677 22.1328 71.151 22.4922 70.625 22.7578C70.099 23.0234 69.5312 23.1562 68.9219 23.1562C67.7396 23.1562 66.8021 22.7734 66.1094 22.0078C65.4167 21.2422 65.0703 20.1849 65.0703 18.8359V18.6406C65.0703 17.3542 65.4141 16.3255 66.1016 15.5547C66.7891 14.7786 67.7266 14.3906 68.9141 14.3906C69.9193 14.3906 70.737 14.6849 71.3672 15.2734C72.0026 15.8568 72.3359 16.625 72.3672 17.5781H70.5781C70.5573 17.0938 70.3906 16.6953 70.0781 16.3828C69.7708 16.0703 69.3776 15.9141 68.8984 15.9141C68.2839 15.9141 67.8099 16.138 67.4766 16.5859C67.1432 17.0286 66.974 17.7031 66.9688 18.6094V18.9141C66.9688 19.8307 67.1328 20.5156 67.4609 20.9688C67.7943 21.4167 68.2734 21.6406 68.8984 21.6406ZM69.4141 23.0156L69.3281 23.4375C70.1094 23.5781 70.5 24.0286 70.5 24.7891C70.5 25.3359 70.276 25.763 69.8281 26.0703C69.3802 26.3776 68.7526 26.5312 67.9453 26.5312L67.8906 25.4609C68.2344 25.4609 68.4974 25.3984 68.6797 25.2734C68.8672 25.1536 68.9609 24.9844 68.9609 24.7656C68.9609 24.5312 68.8672 24.3672 68.6797 24.2734C68.4974 24.1849 68.1979 24.1276 67.7812 24.1016L68.0312 23.0156H69.4141ZM78.8516 23C78.7682 22.8385 78.6953 22.5755 78.6328 22.2109C78.0286 22.8411 77.2891 23.1562 76.4141 23.1562C75.5651 23.1562 74.8724 22.9141 74.3359 22.4297C73.7995 21.9453 73.5312 21.3464 73.5312 20.6328C73.5312 19.7318 73.8646 19.0417 74.5312 18.5625C75.2031 18.0781 76.1615 17.8359 77.4062 17.8359H78.5703V17.2812C78.5703 16.8438 78.4479 16.4948 78.2031 16.2344C77.9583 15.9688 77.5859 15.8359 77.0859 15.8359C76.6536 15.8359 76.2995 15.9453 76.0234 16.1641C75.7474 16.3776 75.6094 16.651 75.6094 16.9844H73.7109C73.7109 16.5208 73.8646 16.0885 74.1719 15.6875C74.4792 15.2812 74.8958 14.9635 75.4219 14.7344C75.9531 14.5052 76.5443 14.3906 77.1953 14.3906C78.1849 14.3906 78.974 14.6406 79.5625 15.1406C80.151 15.6354 80.4531 16.3333 80.4688 17.2344V21.0469C80.4688 21.8073 80.5755 22.4141 80.7891 22.8672V23H78.8516ZM76.7656 21.6328C77.1406 21.6328 77.4922 21.5417 77.8203 21.3594C78.1536 21.1771 78.4036 20.9323 78.5703 20.625V19.0312H77.5469C76.8438 19.0312 76.3151 19.1536 75.9609 19.3984C75.6068 19.6432 75.4297 19.9896 75.4297 20.4375C75.4297 20.8021 75.5495 21.0938 75.7891 21.3125C76.0339 21.526 76.3594 21.6328 76.7656 21.6328ZM80.125 11.1719C80.125 11.7448 79.9583 12.2214 79.625 12.6016C79.2969 12.9818 78.8828 13.1719 78.3828 13.1719C78.1797 13.1719 78.0026 13.151 77.8516 13.1094C77.7057 13.0625 77.4948 12.9609 77.2188 12.8047C76.9479 12.6484 76.7552 12.5547 76.6406 12.5234C76.5312 12.4922 76.4089 12.4766 76.2734 12.4766C76.0755 12.4766 75.9062 12.5521 75.7656 12.7031C75.6302 12.849 75.5625 13.0417 75.5625 13.2812L74.3984 13.2188C74.3984 12.6458 74.5625 12.1641 74.8906 11.7734C75.224 11.3828 75.638 11.1875 76.1328 11.1875C76.4297 11.1875 76.7865 11.3047 77.2031 11.5391C77.625 11.7734 77.9714 11.8906 78.2422 11.8906C78.4401 11.8906 78.6094 11.8177 78.75 11.6719C78.8906 11.5208 78.9609 11.3229 78.9609 11.0781L80.125 11.1719ZM82.1016 18.6953C82.1016 17.8672 82.2656 17.1224 82.5938 16.4609C82.9219 15.7943 83.3828 15.2839 83.9766 14.9297C84.5703 14.5703 85.2526 14.3906 86.0234 14.3906C87.1641 14.3906 88.0885 14.7578 88.7969 15.4922C89.5104 16.2266 89.8958 17.2005 89.9531 18.4141L89.9609 18.8594C89.9609 19.6927 89.7995 20.4375 89.4766 21.0938C89.1589 21.75 88.7005 22.2578 88.1016 22.6172C87.5078 22.9766 86.8203 23.1562 86.0391 23.1562C84.8464 23.1562 83.8906 22.7604 83.1719 21.9688C82.4583 21.1719 82.1016 20.112 82.1016 18.7891V18.6953ZM84 18.8594C84 19.7292 84.1797 20.4115 84.5391 20.9062C84.8984 21.3958 85.3984 21.6406 86.0391 21.6406C86.6797 21.6406 87.1771 21.3906 87.5312 20.8906C87.8906 20.3906 88.0703 19.6589 88.0703 18.6953C88.0703 17.8411 87.8854 17.1641 87.5156 16.6641C87.151 16.1641 86.6536 15.9141 86.0234 15.9141C85.4036 15.9141 84.9115 16.1615 84.5469 16.6562C84.1823 17.1458 84 17.8802 84 18.8594Z" fill="black"/>
<line x1="8.1355" y1="94.2422" x2="241.864" y2="94.2422" stroke="#333333" stroke-width="0.5"/>
<path d="M18.9902 116V107.469H21.3984C22.1406 107.469 22.7969 107.633 23.3672 107.961C23.9375 108.289 24.377 108.756 24.6855 109.361C24.998 109.967 25.1562 110.662 25.1602 111.447V111.992C25.1602 112.797 25.0039 113.502 24.6914 114.107C24.3828 114.713 23.9395 115.178 23.3613 115.502C22.7871 115.826 22.1172 115.992 21.3516 116H18.9902ZM20.1152 108.395V115.08H21.2988C22.166 115.08 22.8398 114.811 23.3203 114.271C23.8047 113.732 24.0469 112.965 24.0469 111.969V111.471C24.0469 110.502 23.8184 109.75 23.3613 109.215C22.9082 108.676 22.2637 108.402 21.4277 108.395H20.1152ZM29.3262 116.117C28.4668 116.117 27.7676 115.836 27.2285 115.273C26.6895 114.707 26.4199 113.951 26.4199 113.006V112.807C26.4199 112.178 26.5391 111.617 26.7773 111.125C27.0195 110.629 27.3555 110.242 27.7852 109.965C28.2188 109.684 28.6875 109.543 29.1914 109.543C30.0156 109.543 30.6562 109.814 31.1133 110.357C31.5703 110.9 31.7988 111.678 31.7988 112.689V113.141H27.5039C27.5195 113.766 27.7012 114.271 28.0488 114.658C28.4004 115.041 28.8457 115.232 29.3848 115.232C29.7676 115.232 30.0918 115.154 30.3574 114.998C30.623 114.842 30.8555 114.635 31.0547 114.377L31.7168 114.893C31.1855 115.709 30.3887 116.117 29.3262 116.117ZM29.1914 110.434C28.7539 110.434 28.3867 110.594 28.0898 110.914C27.793 111.23 27.6094 111.676 27.5391 112.25H30.7148V112.168C30.6836 111.617 30.5352 111.191 30.2695 110.891C30.0039 110.586 29.6445 110.434 29.1914 110.434ZM34.5293 108.125V109.66H35.7129V110.498H34.5293V114.43C34.5293 114.684 34.582 114.875 34.6875 115.004C34.793 115.129 34.9727 115.191 35.2266 115.191C35.3516 115.191 35.5234 115.168 35.7422 115.121V116C35.457 116.078 35.1797 116.117 34.9102 116.117C34.4258 116.117 34.0605 115.971 33.8145 115.678C33.5684 115.385 33.4453 114.969 33.4453 114.43V110.498H32.291V109.66H33.4453V108.125H34.5293ZM40.8984 116C40.8359 115.875 40.7852 115.652 40.7461 115.332C40.2422 115.855 39.6406 116.117 38.9414 116.117C38.3164 116.117 37.8027 115.941 37.4004 115.59C37.002 115.234 36.8027 114.785 36.8027 114.242C36.8027 113.582 37.0527 113.07 37.5527 112.707C38.0566 112.34 38.7637 112.156 39.6738 112.156H40.7285V111.658C40.7285 111.279 40.6152 110.979 40.3887 110.756C40.1621 110.529 39.8281 110.416 39.3867 110.416C39 110.416 38.6758 110.514 38.4141 110.709C38.1523 110.904 38.0215 111.141 38.0215 111.418H36.9316C36.9316 111.102 37.043 110.797 37.2656 110.504C37.4922 110.207 37.7969 109.973 38.1797 109.801C38.5664 109.629 38.9902 109.543 39.4512 109.543C40.1816 109.543 40.7539 109.727 41.168 110.094C41.582 110.457 41.7969 110.959 41.8125 111.6V114.518C41.8125 115.1 41.8867 115.562 42.0352 115.906V116H40.8984ZM39.0996 115.174C39.4395 115.174 39.7617 115.086 40.0664 114.91C40.3711 114.734 40.5918 114.506 40.7285 114.225V112.924H39.8789C38.5508 112.924 37.8867 113.312 37.8867 114.09C37.8867 114.43 38 114.695 38.2266 114.887C38.4531 115.078 38.7441 115.174 39.0996 115.174ZM44.6895 116H43.6055V107H44.6895V116ZM47.5137 110.428C47.9941 109.838 48.6191 109.543 49.3887 109.543C50.7285 109.543 51.4043 110.299 51.416 111.811V116H50.332V111.805C50.3281 111.348 50.2227 111.01 50.0156 110.791C49.8125 110.572 49.4941 110.463 49.0605 110.463C48.709 110.463 48.4004 110.557 48.1348 110.744C47.8691 110.932 47.6621 111.178 47.5137 111.482V116H46.4297V107H47.5137V110.428ZM55.6699 116.117C54.8105 116.117 54.1113 115.836 53.5723 115.273C53.0332 114.707 52.7637 113.951 52.7637 113.006V112.807C52.7637 112.178 52.8828 111.617 53.1211 111.125C53.3633 110.629 53.6992 110.242 54.1289 109.965C54.5625 109.684 55.0312 109.543 55.5352 109.543C56.3594 109.543 57 109.814 57.457 110.357C57.9141 110.9 58.1426 111.678 58.1426 112.689V113.141H53.8477C53.8633 113.766 54.0449 114.271 54.3926 114.658C54.7441 115.041 55.1895 115.232 55.7285 115.232C56.1113 115.232 56.4355 115.154 56.7012 114.998C56.9668 114.842 57.1992 114.635 57.3984 114.377L58.0605 114.893C57.5293 115.709 56.7324 116.117 55.6699 116.117ZM55.5352 110.434C55.0977 110.434 54.7305 110.594 54.4336 110.914C54.1367 111.23 53.9531 111.676 53.8828 112.25H57.0586V112.168C57.0273 111.617 56.8789 111.191 56.6133 110.891C56.3477 110.586 55.9883 110.434 55.5352 110.434ZM63.0938 114.318C63.0938 114.025 62.9824 113.799 62.7598 113.639C62.541 113.475 62.1562 113.334 61.6055 113.217C61.0586 113.1 60.623 112.959 60.2988 112.795C59.9785 112.631 59.7402 112.436 59.584 112.209C59.4316 111.982 59.3555 111.713 59.3555 111.4C59.3555 110.881 59.5742 110.441 60.0117 110.082C60.4531 109.723 61.0156 109.543 61.6992 109.543C62.418 109.543 63 109.729 63.4453 110.1C63.8945 110.471 64.1191 110.945 64.1191 111.523H63.0293C63.0293 111.227 62.9023 110.971 62.6484 110.756C62.3984 110.541 62.082 110.434 61.6992 110.434C61.3047 110.434 60.9961 110.52 60.7734 110.691C60.5508 110.863 60.4395 111.088 60.4395 111.365C60.4395 111.627 60.543 111.824 60.75 111.957C60.957 112.09 61.3301 112.217 61.8691 112.338C62.4121 112.459 62.8516 112.604 63.1875 112.771C63.5234 112.939 63.7715 113.143 63.9316 113.381C64.0957 113.615 64.1777 113.902 64.1777 114.242C64.1777 114.809 63.9512 115.264 63.498 115.607C63.0449 115.947 62.457 116.117 61.7344 116.117C61.2266 116.117 60.7773 116.027 60.3867 115.848C59.9961 115.668 59.6895 115.418 59.4668 115.098C59.248 114.773 59.1387 114.424 59.1387 114.049H60.2227C60.2422 114.412 60.3867 114.701 60.6562 114.916C60.9297 115.127 61.2891 115.232 61.7344 115.232C62.1445 115.232 62.4727 115.15 62.7188 114.986C62.9688 114.818 63.0938 114.596 63.0938 114.318ZM68.3027 112.777C68.3027 111.805 68.5332 111.023 68.9941 110.434C69.4551 109.84 70.0586 109.543 70.8047 109.543C71.5469 109.543 72.1348 109.797 72.5684 110.305V107H73.6523V116H72.6562L72.6035 115.32C72.1699 115.852 71.5664 116.117 70.793 116.117C70.0586 116.117 69.459 115.816 68.9941 115.215C68.5332 114.613 68.3027 113.828 68.3027 112.859V112.777ZM69.3867 112.9C69.3867 113.619 69.5352 114.182 69.832 114.588C70.1289 114.994 70.5391 115.197 71.0625 115.197C71.75 115.197 72.252 114.889 72.5684 114.271V111.359C72.2441 110.762 71.7461 110.463 71.0742 110.463C70.543 110.463 70.1289 110.668 69.832 111.078C69.5352 111.488 69.3867 112.096 69.3867 112.9ZM79.2539 116C79.1914 115.875 79.1406 115.652 79.1016 115.332C78.5977 115.855 77.9961 116.117 77.2969 116.117C76.6719 116.117 76.1582 115.941 75.7559 115.59C75.3574 115.234 75.1582 114.785 75.1582 114.242C75.1582 113.582 75.4082 113.07 75.9082 112.707C76.4121 112.34 77.1191 112.156 78.0293 112.156H79.084V111.658C79.084 111.279 78.9707 110.979 78.7441 110.756C78.5176 110.529 78.1836 110.416 77.7422 110.416C77.3555 110.416 77.0312 110.514 76.7695 110.709C76.5078 110.904 76.377 111.141 76.377 111.418H75.2871C75.2871 111.102 75.3984 110.797 75.6211 110.504C75.8477 110.207 76.1523 109.973 76.5352 109.801C76.9219 109.629 77.3457 109.543 77.8066 109.543C78.5371 109.543 79.1094 109.727 79.5234 110.094C79.9375 110.457 80.1523 110.959 80.168 111.6V114.518C80.168 115.1 80.2422 115.562 80.3906 115.906V116H79.2539ZM77.4551 115.174C77.7949 115.174 78.1172 115.086 78.4219 114.91C78.7266 114.734 78.9473 114.506 79.084 114.225V112.924H78.2344C76.9062 112.924 76.2422 113.312 76.2422 114.09C76.2422 114.43 76.3555 114.695 76.582 114.887C76.8086 115.078 77.0996 115.174 77.4551 115.174ZM88.1426 112.549H86.1387V116H85.0078V107.469H87.832C88.793 107.469 89.5312 107.688 90.0469 108.125C90.5664 108.562 90.8262 109.199 90.8262 110.035C90.8262 110.566 90.6816 111.029 90.3926 111.424C90.1074 111.818 89.709 112.113 89.1973 112.309L91.2012 115.93V116H89.9941L88.1426 112.549ZM86.1387 111.629H87.8672C88.4258 111.629 88.8691 111.484 89.1973 111.195C89.5293 110.906 89.6953 110.52 89.6953 110.035C89.6953 109.508 89.5371 109.104 89.2207 108.822C88.9082 108.541 88.4551 108.398 87.8613 108.395H86.1387V111.629ZM94.8691 116.117C94.0098 116.117 93.3105 115.836 92.7715 115.273C92.2324 114.707 91.9629 113.951 91.9629 113.006V112.807C91.9629 112.178 92.082 111.617 92.3203 111.125C92.5625 110.629 92.8984 110.242 93.3281 109.965C93.7617 109.684 94.2305 109.543 94.7344 109.543C95.5586 109.543 96.1992 109.814 96.6562 110.357C97.1133 110.9 97.3418 111.678 97.3418 112.689V113.141H93.0469C93.0625 113.766 93.2441 114.271 93.5918 114.658C93.9434 115.041 94.3887 115.232 94.9277 115.232C95.3105 115.232 95.6348 115.154 95.9004 114.998C96.166 114.842 96.3984 114.635 96.5977 114.377L97.2598 114.893C96.7285 115.709 95.9316 116.117 94.8691 116.117ZM94.7344 110.434C94.2969 110.434 93.9297 110.594 93.6328 110.914C93.3359 111.23 93.1523 111.676 93.082 112.25H96.2578V112.168C96.2266 111.617 96.0781 111.191 95.8125 110.891C95.5469 110.586 95.1875 110.434 94.7344 110.434ZM103.957 112.9C103.957 113.865 103.736 114.643 103.295 115.232C102.854 115.822 102.256 116.117 101.502 116.117C100.732 116.117 100.127 115.873 99.6855 115.385V118.438H98.6016V109.66H99.5918L99.6445 110.363C100.086 109.816 100.699 109.543 101.484 109.543C102.246 109.543 102.848 109.83 103.289 110.404C103.734 110.979 103.957 111.777 103.957 112.801V112.9ZM102.873 112.777C102.873 112.062 102.721 111.498 102.416 111.084C102.111 110.67 101.693 110.463 101.162 110.463C100.506 110.463 100.014 110.754 99.6855 111.336V114.365C100.01 114.943 100.506 115.232 101.174 115.232C101.693 115.232 102.105 115.027 102.41 114.617C102.719 114.203 102.873 113.59 102.873 112.777ZM109.254 115.373C108.832 115.869 108.213 116.117 107.396 116.117C106.721 116.117 106.205 115.922 105.85 115.531C105.498 115.137 105.32 114.555 105.316 113.785V109.66H106.4V113.756C106.4 114.717 106.791 115.197 107.572 115.197C108.4 115.197 108.951 114.889 109.225 114.271V109.66H110.309V116H109.277L109.254 115.373ZM113.432 108.125V109.66H114.615V110.498H113.432V114.43C113.432 114.684 113.484 114.875 113.59 115.004C113.695 115.129 113.875 115.191 114.129 115.191C114.254 115.191 114.426 115.168 114.645 115.121V116C114.359 116.078 114.082 116.117 113.812 116.117C113.328 116.117 112.963 115.971 112.717 115.678C112.471 115.385 112.348 114.969 112.348 114.43V110.498H111.193V109.66H112.348V108.125H113.432ZM119.801 116C119.738 115.875 119.688 115.652 119.648 115.332C119.145 115.855 118.543 116.117 117.844 116.117C117.219 116.117 116.705 115.941 116.303 115.59C115.904 115.234 115.705 114.785 115.705 114.242C115.705 113.582 115.955 113.07 116.455 112.707C116.959 112.34 117.666 112.156 118.576 112.156H119.631V111.658C119.631 111.279 119.518 110.979 119.291 110.756C119.064 110.529 118.73 110.416 118.289 110.416C117.902 110.416 117.578 110.514 117.316 110.709C117.055 110.904 116.924 111.141 116.924 111.418H115.834C115.834 111.102 115.945 110.797 116.168 110.504C116.395 110.207 116.699 109.973 117.082 109.801C117.469 109.629 117.893 109.543 118.354 109.543C119.084 109.543 119.656 109.727 120.07 110.094C120.484 110.457 120.699 110.959 120.715 111.6V114.518C120.715 115.1 120.789 115.562 120.938 115.906V116H119.801ZM118.002 115.174C118.342 115.174 118.664 115.086 118.969 114.91C119.273 114.734 119.494 114.506 119.631 114.225V112.924H118.781C117.453 112.924 116.789 113.312 116.789 114.09C116.789 114.43 116.902 114.695 117.129 114.887C117.355 115.078 117.646 115.174 118.002 115.174ZM124.957 115.232C125.344 115.232 125.682 115.115 125.971 114.881C126.26 114.646 126.42 114.354 126.451 114.002H127.477C127.457 114.365 127.332 114.711 127.102 115.039C126.871 115.367 126.562 115.629 126.176 115.824C125.793 116.02 125.387 116.117 124.957 116.117C124.094 116.117 123.406 115.83 122.895 115.256C122.387 114.678 122.133 113.889 122.133 112.889V112.707C122.133 112.09 122.246 111.541 122.473 111.061C122.699 110.58 123.023 110.207 123.445 109.941C123.871 109.676 124.373 109.543 124.951 109.543C125.662 109.543 126.252 109.756 126.721 110.182C127.193 110.607 127.445 111.16 127.477 111.84H126.451C126.42 111.43 126.264 111.094 125.982 110.832C125.705 110.566 125.361 110.434 124.951 110.434C124.4 110.434 123.973 110.633 123.668 111.031C123.367 111.426 123.217 111.998 123.217 112.748V112.953C123.217 113.684 123.367 114.246 123.668 114.641C123.969 115.035 124.398 115.232 124.957 115.232ZM125.133 116.053L125.062 116.357C125.66 116.463 125.959 116.801 125.959 117.371C125.959 117.75 125.803 118.049 125.49 118.268C125.178 118.49 124.742 118.602 124.184 118.602L124.143 117.975C124.451 117.975 124.689 117.924 124.857 117.822C125.029 117.721 125.115 117.578 125.115 117.395C125.115 117.223 125.053 117.096 124.928 117.014C124.803 116.932 124.549 116.873 124.166 116.838L124.354 116.053H125.133ZM132.609 116C132.547 115.875 132.496 115.652 132.457 115.332C131.953 115.855 131.352 116.117 130.652 116.117C130.027 116.117 129.514 115.941 129.111 115.59C128.713 115.234 128.514 114.785 128.514 114.242C128.514 113.582 128.764 113.07 129.264 112.707C129.768 112.34 130.475 112.156 131.385 112.156H132.439V111.658C132.439 111.279 132.326 110.979 132.1 110.756C131.873 110.529 131.539 110.416 131.098 110.416C130.711 110.416 130.387 110.514 130.125 110.709C129.863 110.904 129.732 111.141 129.732 111.418H128.643C128.643 111.102 128.754 110.797 128.977 110.504C129.203 110.207 129.508 109.973 129.891 109.801C130.277 109.629 130.701 109.543 131.162 109.543C131.893 109.543 132.465 109.727 132.879 110.094C133.293 110.457 133.508 110.959 133.523 111.6V114.518C133.523 115.1 133.598 115.562 133.746 115.906V116H132.609ZM130.811 115.174C131.15 115.174 131.473 115.086 131.777 114.91C132.082 114.734 132.303 114.506 132.439 114.225V112.924H131.59C130.262 112.924 129.598 113.312 129.598 114.09C129.598 114.43 129.711 114.695 129.938 114.887C130.164 115.078 130.455 115.174 130.811 115.174ZM133.359 107.188C133.359 107.609 133.238 107.951 132.996 108.213C132.758 108.475 132.459 108.605 132.1 108.605C131.939 108.605 131.801 108.586 131.684 108.547C131.566 108.508 131.412 108.428 131.221 108.307C131.033 108.186 130.896 108.113 130.811 108.09C130.729 108.062 130.633 108.049 130.523 108.049C130.363 108.049 130.227 108.111 130.113 108.236C130 108.357 129.943 108.514 129.943 108.705L129.217 108.664C129.217 108.246 129.334 107.9 129.568 107.627C129.807 107.354 130.107 107.217 130.471 107.217C130.607 107.217 130.73 107.236 130.84 107.275C130.949 107.314 131.098 107.391 131.285 107.504C131.473 107.617 131.615 107.691 131.713 107.727C131.814 107.762 131.926 107.779 132.047 107.779C132.215 107.779 132.354 107.713 132.463 107.58C132.576 107.447 132.633 107.293 132.633 107.117L133.359 107.188ZM134.936 112.771C134.936 112.15 135.057 111.592 135.299 111.096C135.545 110.6 135.885 110.217 136.318 109.947C136.756 109.678 137.254 109.543 137.812 109.543C138.676 109.543 139.373 109.842 139.904 110.439C140.439 111.037 140.707 111.832 140.707 112.824V112.9C140.707 113.518 140.588 114.072 140.35 114.564C140.115 115.053 139.777 115.434 139.336 115.707C138.898 115.98 138.395 116.117 137.824 116.117C136.965 116.117 136.268 115.818 135.732 115.221C135.201 114.623 134.936 113.832 134.936 112.848V112.771ZM136.025 112.9C136.025 113.604 136.188 114.168 136.512 114.594C136.84 115.02 137.277 115.232 137.824 115.232C138.375 115.232 138.812 115.018 139.137 114.588C139.461 114.154 139.623 113.549 139.623 112.771C139.623 112.076 139.457 111.514 139.125 111.084C138.797 110.65 138.359 110.434 137.812 110.434C137.277 110.434 136.846 110.646 136.518 111.072C136.189 111.498 136.025 112.107 136.025 112.9Z" fill="#0C29D0"/>
<path d="M236.3 112.354C236.496 112.158 236.496 111.842 236.3 111.646L233.118 108.464C232.923 108.269 232.607 108.269 232.411 108.464C232.216 108.66 232.216 108.976 232.411 109.172L235.24 112L232.411 114.828C232.216 115.024 232.216 115.34 232.411 115.536C232.607 115.731 232.923 115.731 233.118 115.536L236.3 112.354ZM235.207 112.5L235.947 112.5L235.947 111.5L235.207 111.5L235.207 112.5Z" fill="#0C29D0"/>
<rect x="10.355" y="70" width="38.4615" height="8" rx="3" fill="#FF0000"/>
<rect x="56.2129" y="70" width="38.4615" height="8" rx="3" fill="#FF9900" fill-opacity="0.89"/>
<rect x="102.811" y="70" width="39.2012" height="8" rx="3" fill="#FAFF1C"/>
<rect x="150.148" y="70" width="37.7219" height="8" rx="3" fill="#20C261"/>
<rect x="197.485" y="70" width="38.4615" height="8" rx="3" fill="#C4C4C4"/>
<path d="M18.2715 49H17.1816V41.7754L14.9961 42.5781V41.5938L18.1016 40.4277H18.2715V49ZM26.7969 45.3613C26.7969 46.6309 26.5801 47.5742 26.1465 48.1914C25.7129 48.8086 25.0352 49.1172 24.1133 49.1172C23.2031 49.1172 22.5293 48.8164 22.0918 48.2148C21.6543 47.6094 21.4277 46.707 21.4121 45.5078V44.0605C21.4121 42.8066 21.6289 41.875 22.0625 41.2656C22.4961 40.6562 23.1758 40.3516 24.1016 40.3516C25.0195 40.3516 25.6953 40.6465 26.1289 41.2363C26.5625 41.8223 26.7852 42.7285 26.7969 43.9551V45.3613ZM25.7129 43.8789C25.7129 42.9609 25.584 42.293 25.3262 41.875C25.0684 41.4531 24.6602 41.2422 24.1016 41.2422C23.5469 41.2422 23.1426 41.4512 22.8887 41.8691C22.6348 42.2871 22.5039 42.9297 22.4961 43.7969V45.5312C22.4961 46.4531 22.6289 47.1348 22.8945 47.5762C23.1641 48.0137 23.5703 48.2324 24.1133 48.2324C24.6484 48.2324 25.0449 48.0254 25.3027 47.6113C25.5645 47.1973 25.7012 46.5449 25.7129 45.6543V43.8789ZM33.5352 45.3613C33.5352 46.6309 33.3184 47.5742 32.8848 48.1914C32.4512 48.8086 31.7734 49.1172 30.8516 49.1172C29.9414 49.1172 29.2676 48.8164 28.8301 48.2148C28.3926 47.6094 28.166 46.707 28.1504 45.5078V44.0605C28.1504 42.8066 28.3672 41.875 28.8008 41.2656C29.2344 40.6562 29.9141 40.3516 30.8398 40.3516C31.7578 40.3516 32.4336 40.6465 32.8672 41.2363C33.3008 41.8223 33.5234 42.7285 33.5352 43.9551V45.3613ZM32.4512 43.8789C32.4512 42.9609 32.3223 42.293 32.0645 41.875C31.8066 41.4531 31.3984 41.2422 30.8398 41.2422C30.2852 41.2422 29.8809 41.4512 29.627 41.8691C29.373 42.2871 29.2422 42.9297 29.2344 43.7969V45.5312C29.2344 46.4531 29.3672 47.1348 29.6328 47.5762C29.9023 48.0137 30.3086 48.2324 30.8516 48.2324C31.3867 48.2324 31.7832 48.0254 32.041 47.6113C32.3027 47.1973 32.4395 46.5449 32.4512 45.6543V43.8789ZM41.0059 47.5059L43.4434 40.4688H44.6738L41.5098 49H40.5137L37.3555 40.4688H38.5801L41.0059 47.5059ZM48.0254 49.1172C47.166 49.1172 46.4668 48.8359 45.9277 48.2734C45.3887 47.707 45.1191 46.9512 45.1191 46.0059V45.8066C45.1191 45.1777 45.2383 44.6172 45.4766 44.125C45.7188 43.6289 46.0547 43.2422 46.4844 42.9648C46.918 42.6836 47.3867 42.543 47.8906 42.543C48.7148 42.543 49.3555 42.8145 49.8125 43.3574C50.2695 43.9004 50.498 44.6777 50.498 45.6895V46.1406H46.2031C46.2188 46.7656 46.4004 47.2715 46.748 47.6582C47.0996 48.041 47.5449 48.2324 48.084 48.2324C48.4668 48.2324 48.791 48.1543 49.0566 47.998C49.3223 47.8418 49.5547 47.6348 49.7539 47.377L50.416 47.8926C49.8848 48.709 49.0879 49.1172 48.0254 49.1172ZM47.8906 43.4336C47.4531 43.4336 47.0859 43.5938 46.7891 43.9141C46.4922 44.2305 46.3086 44.6758 46.2383 45.25H49.4141V45.168C49.3828 44.6172 49.2344 44.1914 48.9688 43.8906C48.7031 43.5859 48.3438 43.4336 47.8906 43.4336ZM52.7832 42.6602L52.8184 43.457C53.3027 42.8477 53.9355 42.543 54.7168 42.543C56.0566 42.543 56.7324 43.2988 56.7441 44.8105V49H55.6602V44.8047C55.6562 44.3477 55.5508 44.0098 55.3438 43.791C55.1406 43.5723 54.8223 43.4629 54.3887 43.4629C54.0371 43.4629 53.7285 43.5566 53.4629 43.7441C53.1973 43.9316 52.9902 44.1777 52.8418 44.4824V49H51.7578V42.6602H52.7832ZM58.1152 45.7773C58.1152 44.8047 58.3457 44.0234 58.8066 43.4336C59.2676 42.8398 59.8711 42.543 60.6172 42.543C61.3594 42.543 61.9473 42.7969 62.3809 43.3047V40H63.4648V49H62.4688L62.416 48.3203C61.9824 48.8516 61.3789 49.1172 60.6055 49.1172C59.8711 49.1172 59.2715 48.8164 58.8066 48.2148C58.3457 47.6133 58.1152 46.8281 58.1152 45.8594V45.7773ZM59.1992 45.9004C59.1992 46.6191 59.3477 47.1816 59.6445 47.5879C59.9414 47.9941 60.3516 48.1973 60.875 48.1973C61.5625 48.1973 62.0645 47.8887 62.3809 47.2715V44.3594C62.0566 43.7617 61.5586 43.4629 60.8867 43.4629C60.3555 43.4629 59.9414 43.668 59.6445 44.0781C59.3477 44.4883 59.1992 45.0957 59.1992 45.9004ZM69.0664 49C69.0039 48.875 68.9531 48.6523 68.9141 48.332C68.4102 48.8555 67.8086 49.1172 67.1094 49.1172C66.4844 49.1172 65.9707 48.9414 65.5684 48.5898C65.1699 48.2344 64.9707 47.7852 64.9707 47.2422C64.9707 46.582 65.2207 46.0703 65.7207 45.707C66.2246 45.3398 66.9316 45.1562 67.8418 45.1562H68.8965V44.6582C68.8965 44.2793 68.7832 43.9785 68.5566 43.7559C68.3301 43.5293 67.9961 43.416 67.5547 43.416C67.168 43.416 66.8438 43.5137 66.582 43.709C66.3203 43.9043 66.1895 44.1406 66.1895 44.418H65.0996C65.0996 44.1016 65.2109 43.7969 65.4336 43.5039C65.6602 43.207 65.9648 42.9727 66.3477 42.8008C66.7344 42.6289 67.1582 42.543 67.6191 42.543C68.3496 42.543 68.9219 42.7266 69.3359 43.0938C69.75 43.457 69.9648 43.959 69.9805 44.5996V47.5176C69.9805 48.0996 70.0547 48.5625 70.2031 48.9062V49H69.0664ZM67.2676 48.1738C67.6074 48.1738 67.9297 48.0859 68.2344 47.9102C68.5391 47.7344 68.7598 47.5059 68.8965 47.2246V45.9238H68.0469C66.7188 45.9238 66.0547 46.3125 66.0547 47.0898C66.0547 47.4297 66.168 47.6953 66.3945 47.8867C66.6211 48.0781 66.9121 48.1738 67.2676 48.1738ZM75.3711 47.3184C75.3711 47.0254 75.2598 46.7988 75.0371 46.6387C74.8184 46.4746 74.4336 46.334 73.8828 46.2168C73.3359 46.0996 72.9004 45.959 72.5762 45.7949C72.2559 45.6309 72.0176 45.4355 71.8613 45.209C71.709 44.9824 71.6328 44.7129 71.6328 44.4004C71.6328 43.8809 71.8516 43.4414 72.2891 43.082C72.7305 42.7227 73.293 42.543 73.9766 42.543C74.6953 42.543 75.2773 42.7285 75.7227 43.0996C76.1719 43.4707 76.3965 43.9453 76.3965 44.5234H75.3066C75.3066 44.2266 75.1797 43.9707 74.9258 43.7559C74.6758 43.541 74.3594 43.4336 73.9766 43.4336C73.582 43.4336 73.2734 43.5195 73.0508 43.6914C72.8281 43.8633 72.7168 44.0879 72.7168 44.3652C72.7168 44.627 72.8203 44.8242 73.0273 44.957C73.2344 45.0898 73.6074 45.2168 74.1465 45.3379C74.6895 45.459 75.1289 45.6035 75.4648 45.7715C75.8008 45.9395 76.0488 46.1426 76.209 46.3809C76.373 46.6152 76.4551 46.9023 76.4551 47.2422C76.4551 47.8086 76.2285 48.2637 75.7754 48.6074C75.3223 48.9473 74.7344 49.1172 74.0117 49.1172C73.5039 49.1172 73.0547 49.0273 72.6641 48.8477C72.2734 48.668 71.9668 48.418 71.7441 48.0977C71.5254 47.7734 71.416 47.4238 71.416 47.0488H72.5C72.5195 47.4121 72.6641 47.7012 72.9336 47.916C73.207 48.127 73.5664 48.2324 74.0117 48.2324C74.4219 48.2324 74.75 48.1504 74.9961 47.9863C75.2461 47.8184 75.3711 47.5957 75.3711 47.3184ZM81.8691 42.6602L81.9043 43.457C82.3887 42.8477 83.0215 42.543 83.8027 42.543C85.1426 42.543 85.8184 43.2988 85.8301 44.8105V49H84.7461V44.8047C84.7422 44.3477 84.6367 44.0098 84.4297 43.791C84.2266 43.5723 83.9082 43.4629 83.4746 43.4629C83.123 43.4629 82.8145 43.5566 82.5488 43.7441C82.2832 43.9316 82.0762 44.1777 81.9277 44.4824V49H80.8438V42.6602H81.8691ZM87.1777 45.7715C87.1777 45.1504 87.2988 44.5918 87.541 44.0957C87.7871 43.5996 88.127 43.2168 88.5605 42.9473C88.998 42.6777 89.4961 42.543 90.0547 42.543C90.918 42.543 91.6152 42.8418 92.1465 43.4395C92.6816 44.0371 92.9492 44.832 92.9492 45.8242V45.9004C92.9492 46.5176 92.8301 47.0723 92.5918 47.5645C92.3574 48.0527 92.0195 48.4336 91.5781 48.707C91.1406 48.9805 90.6367 49.1172 90.0664 49.1172C89.207 49.1172 88.5098 48.8184 87.9746 48.2207C87.4434 47.623 87.1777 46.832 87.1777 45.8477V45.7715ZM88.2676 45.9004C88.2676 46.6035 88.4297 47.168 88.7539 47.5938C89.082 48.0195 89.5195 48.2324 90.0664 48.2324C90.6172 48.2324 91.0547 48.0176 91.3789 47.5879C91.7031 47.1543 91.8652 46.5488 91.8652 45.7715C91.8652 45.0762 91.6992 44.5137 91.3672 44.084C91.0391 43.6504 90.6016 43.4336 90.0547 43.4336C89.5195 43.4336 89.0879 43.6465 88.7598 44.0723C88.4316 44.498 88.2676 45.1074 88.2676 45.9004ZM98 47.3184C98 47.0254 97.8887 46.7988 97.666 46.6387C97.4473 46.4746 97.0625 46.334 96.5117 46.2168C95.9648 46.0996 95.5293 45.959 95.2051 45.7949C94.8848 45.6309 94.6465 45.4355 94.4902 45.209C94.3379 44.9824 94.2617 44.7129 94.2617 44.4004C94.2617 43.8809 94.4805 43.4414 94.918 43.082C95.3594 42.7227 95.9219 42.543 96.6055 42.543C97.3242 42.543 97.9062 42.7285 98.3516 43.0996C98.8008 43.4707 99.0254 43.9453 99.0254 44.5234H97.9355C97.9355 44.2266 97.8086 43.9707 97.5547 43.7559C97.3047 43.541 96.9883 43.4336 96.6055 43.4336C96.2109 43.4336 95.9023 43.5195 95.6797 43.6914C95.457 43.8633 95.3457 44.0879 95.3457 44.3652C95.3457 44.627 95.4492 44.8242 95.6562 44.957C95.8633 45.0898 96.2363 45.2168 96.7754 45.3379C97.3184 45.459 97.7578 45.6035 98.0938 45.7715C98.4297 45.9395 98.6777 46.1426 98.8379 46.3809C99.002 46.6152 99.084 46.9023 99.084 47.2422C99.084 47.8086 98.8574 48.2637 98.4043 48.6074C97.9512 48.9473 97.3633 49.1172 96.6406 49.1172C96.1328 49.1172 95.6836 49.0273 95.293 48.8477C94.9023 48.668 94.5957 48.418 94.373 48.0977C94.1543 47.7734 94.0449 47.4238 94.0449 47.0488H95.1289C95.1484 47.4121 95.293 47.7012 95.5625 47.916C95.8359 48.127 96.1953 48.2324 96.6406 48.2324C97.0508 48.2324 97.3789 48.1504 97.625 47.9863C97.875 47.8184 98 47.5957 98 47.3184ZM107.387 48.373C106.965 48.8691 106.346 49.1172 105.529 49.1172C104.854 49.1172 104.338 48.9219 103.982 48.5312C103.631 48.1367 103.453 47.5547 103.449 46.7852V42.6602H104.533V46.7559C104.533 47.7168 104.924 48.1973 105.705 48.1973C106.533 48.1973 107.084 47.8887 107.357 47.2715V42.6602H108.441V49H107.41L107.387 48.373ZM111.271 49H110.188V40H111.271V49ZM114.482 41.125V42.6602H115.666V43.498H114.482V47.4297C114.482 47.6836 114.535 47.875 114.641 48.0039C114.746 48.1289 114.926 48.1914 115.18 48.1914C115.305 48.1914 115.477 48.168 115.695 48.1211V49C115.41 49.0781 115.133 49.1172 114.863 49.1172C114.379 49.1172 114.014 48.9707 113.768 48.6777C113.521 48.3848 113.398 47.9688 113.398 47.4297V43.498H112.244V42.6602H113.398V41.125H114.482ZM118.115 49H117.031V42.6602H118.115V49ZM116.943 40.9785C116.943 40.8027 116.996 40.6543 117.102 40.5332C117.211 40.4121 117.371 40.3516 117.582 40.3516C117.793 40.3516 117.953 40.4121 118.062 40.5332C118.172 40.6543 118.227 40.8027 118.227 40.9785C118.227 41.1543 118.172 41.3008 118.062 41.418C117.953 41.5352 117.793 41.5938 117.582 41.5938C117.371 41.5938 117.211 41.5352 117.102 41.418C116.996 41.3008 116.943 41.1543 116.943 40.9785ZM120.875 42.6602L120.904 43.3633C121.369 42.8164 121.996 42.543 122.785 42.543C123.672 42.543 124.275 42.8828 124.596 43.5625C124.807 43.2578 125.08 43.0117 125.416 42.8242C125.756 42.6367 126.156 42.543 126.617 42.543C128.008 42.543 128.715 43.2793 128.738 44.752V49H127.654V44.8164C127.654 44.3633 127.551 44.0254 127.344 43.8027C127.137 43.5762 126.789 43.4629 126.301 43.4629C125.898 43.4629 125.564 43.584 125.299 43.8262C125.033 44.0645 124.879 44.3867 124.836 44.793V49H123.746V44.8457C123.746 43.9238 123.295 43.4629 122.393 43.4629C121.682 43.4629 121.195 43.7656 120.934 44.3711V49H119.85V42.6602H120.875ZM130.092 45.7715C130.092 45.1504 130.213 44.5918 130.455 44.0957C130.701 43.5996 131.041 43.2168 131.475 42.9473C131.912 42.6777 132.41 42.543 132.969 42.543C133.832 42.543 134.529 42.8418 135.061 43.4395C135.596 44.0371 135.863 44.832 135.863 45.8242V45.9004C135.863 46.5176 135.744 47.0723 135.506 47.5645C135.271 48.0527 134.934 48.4336 134.492 48.707C134.055 48.9805 133.551 49.1172 132.98 49.1172C132.121 49.1172 131.424 48.8184 130.889 48.2207C130.357 47.623 130.092 46.832 130.092 45.8477V45.7715ZM131.182 45.9004C131.182 46.6035 131.344 47.168 131.668 47.5938C131.996 48.0195 132.434 48.2324 132.98 48.2324C133.531 48.2324 133.969 48.0176 134.293 47.5879C134.617 47.1543 134.779 46.5488 134.779 45.7715C134.779 45.0762 134.613 44.5137 134.281 44.084C133.953 43.6504 133.516 43.4336 132.969 43.4336C132.434 43.4336 132.002 43.6465 131.674 44.0723C131.346 44.498 131.182 45.1074 131.182 45.9004ZM140.914 47.3184C140.914 47.0254 140.803 46.7988 140.58 46.6387C140.361 46.4746 139.977 46.334 139.426 46.2168C138.879 46.0996 138.443 45.959 138.119 45.7949C137.799 45.6309 137.561 45.4355 137.404 45.209C137.252 44.9824 137.176 44.7129 137.176 44.4004C137.176 43.8809 137.395 43.4414 137.832 43.082C138.273 42.7227 138.836 42.543 139.52 42.543C140.238 42.543 140.82 42.7285 141.266 43.0996C141.715 43.4707 141.939 43.9453 141.939 44.5234H140.85C140.85 44.2266 140.723 43.9707 140.469 43.7559C140.219 43.541 139.902 43.4336 139.52 43.4336C139.125 43.4336 138.816 43.5195 138.594 43.6914C138.371 43.8633 138.26 44.0879 138.26 44.3652C138.26 44.627 138.363 44.8242 138.57 44.957C138.777 45.0898 139.15 45.2168 139.689 45.3379C140.232 45.459 140.672 45.6035 141.008 45.7715C141.344 45.9395 141.592 46.1426 141.752 46.3809C141.916 46.6152 141.998 46.9023 141.998 47.2422C141.998 47.8086 141.771 48.2637 141.318 48.6074C140.865 48.9473 140.277 49.1172 139.555 49.1172C139.047 49.1172 138.598 49.0273 138.207 48.8477C137.816 48.668 137.51 48.418 137.287 48.0977C137.068 47.7734 136.959 47.4238 136.959 47.0488H138.043C138.062 47.4121 138.207 47.7012 138.477 47.916C138.75 48.127 139.109 48.2324 139.555 48.2324C139.965 48.2324 140.293 48.1504 140.539 47.9863C140.789 47.8184 140.914 47.5957 140.914 47.3184ZM150.529 40.4629V41.3828H150.33C149.486 41.3984 148.814 41.6484 148.314 42.1328C147.814 42.6172 147.525 43.2988 147.447 44.1777C147.896 43.6621 148.51 43.4043 149.287 43.4043C150.029 43.4043 150.621 43.666 151.062 44.1895C151.508 44.7129 151.73 45.3887 151.73 46.2168C151.73 47.0957 151.49 47.7988 151.01 48.3262C150.533 48.8535 149.893 49.1172 149.088 49.1172C148.271 49.1172 147.609 48.8047 147.102 48.1797C146.594 47.5508 146.34 46.7422 146.34 45.7539V45.3379C146.34 43.7676 146.674 42.5684 147.342 41.7402C148.014 40.9082 149.012 40.4824 150.336 40.4629H150.529ZM149.105 44.3066C148.734 44.3066 148.393 44.418 148.08 44.6406C147.768 44.8633 147.551 45.1426 147.43 45.4785V45.877C147.43 46.5801 147.588 47.1465 147.904 47.5762C148.221 48.0059 148.615 48.2207 149.088 48.2207C149.576 48.2207 149.959 48.041 150.236 47.6816C150.518 47.3223 150.658 46.8516 150.658 46.2695C150.658 45.6836 150.516 45.2109 150.23 44.8516C149.949 44.4883 149.574 44.3066 149.105 44.3066ZM157.121 42.6602L157.15 43.3633C157.615 42.8164 158.242 42.543 159.031 42.543C159.918 42.543 160.521 42.8828 160.842 43.5625C161.053 43.2578 161.326 43.0117 161.662 42.8242C162.002 42.6367 162.402 42.543 162.863 42.543C164.254 42.543 164.961 43.2793 164.984 44.752V49H163.9V44.8164C163.9 44.3633 163.797 44.0254 163.59 43.8027C163.383 43.5762 163.035 43.4629 162.547 43.4629C162.145 43.4629 161.811 43.584 161.545 43.8262C161.279 44.0645 161.125 44.3867 161.082 44.793V49H159.992V44.8457C159.992 43.9238 159.541 43.4629 158.639 43.4629C157.928 43.4629 157.441 43.7656 157.18 44.3711V49H156.096V42.6602H157.121ZM169.256 49.1172C168.396 49.1172 167.697 48.8359 167.158 48.2734C166.619 47.707 166.35 46.9512 166.35 46.0059V45.8066C166.35 45.1777 166.469 44.6172 166.707 44.125C166.949 43.6289 167.285 43.2422 167.715 42.9648C168.148 42.6836 168.617 42.543 169.121 42.543C169.945 42.543 170.586 42.8145 171.043 43.3574C171.5 43.9004 171.729 44.6777 171.729 45.6895V46.1406H167.434C167.449 46.7656 167.631 47.2715 167.979 47.6582C168.33 48.041 168.775 48.2324 169.314 48.2324C169.697 48.2324 170.021 48.1543 170.287 47.998C170.553 47.8418 170.785 47.6348 170.984 47.377L171.646 47.8926C171.115 48.709 170.318 49.1172 169.256 49.1172ZM169.121 43.4336C168.684 43.4336 168.316 43.5938 168.02 43.9141C167.723 44.2305 167.539 44.6758 167.469 45.25H170.645V45.168C170.613 44.6172 170.465 44.1914 170.199 43.8906C169.934 43.5859 169.574 43.4336 169.121 43.4336ZM176.68 47.3184C176.68 47.0254 176.568 46.7988 176.346 46.6387C176.127 46.4746 175.742 46.334 175.191 46.2168C174.645 46.0996 174.209 45.959 173.885 45.7949C173.564 45.6309 173.326 45.4355 173.17 45.209C173.018 44.9824 172.941 44.7129 172.941 44.4004C172.941 43.8809 173.16 43.4414 173.598 43.082C174.039 42.7227 174.602 42.543 175.285 42.543C176.004 42.543 176.586 42.7285 177.031 43.0996C177.48 43.4707 177.705 43.9453 177.705 44.5234H176.615C176.615 44.2266 176.488 43.9707 176.234 43.7559C175.984 43.541 175.668 43.4336 175.285 43.4336C174.891 43.4336 174.582 43.5195 174.359 43.6914C174.137 43.8633 174.025 44.0879 174.025 44.3652C174.025 44.627 174.129 44.8242 174.336 44.957C174.543 45.0898 174.916 45.2168 175.455 45.3379C175.998 45.459 176.438 45.6035 176.773 45.7715C177.109 45.9395 177.357 46.1426 177.518 46.3809C177.682 46.6152 177.764 46.9023 177.764 47.2422C177.764 47.8086 177.537 48.2637 177.084 48.6074C176.631 48.9473 176.043 49.1172 175.32 49.1172C174.812 49.1172 174.363 49.0273 173.973 48.8477C173.582 48.668 173.275 48.418 173.053 48.0977C172.834 47.7734 172.725 47.4238 172.725 47.0488H173.809C173.828 47.4121 173.973 47.7012 174.242 47.916C174.516 48.127 174.875 48.2324 175.32 48.2324C175.73 48.2324 176.059 48.1504 176.305 47.9863C176.555 47.8184 176.68 47.5957 176.68 47.3184ZM181.807 49.1172C180.947 49.1172 180.248 48.8359 179.709 48.2734C179.17 47.707 178.9 46.9512 178.9 46.0059V45.8066C178.9 45.1777 179.02 44.6172 179.258 44.125C179.5 43.6289 179.836 43.2422 180.266 42.9648C180.699 42.6836 181.168 42.543 181.672 42.543C182.496 42.543 183.137 42.8145 183.594 43.3574C184.051 43.9004 184.279 44.6777 184.279 45.6895V46.1406H179.984C180 46.7656 180.182 47.2715 180.529 47.6582C180.881 48.041 181.326 48.2324 181.865 48.2324C182.248 48.2324 182.572 48.1543 182.838 47.998C183.104 47.8418 183.336 47.6348 183.535 47.377L184.197 47.8926C183.666 48.709 182.869 49.1172 181.807 49.1172ZM181.672 43.4336C181.234 43.4336 180.867 43.5938 180.57 43.9141C180.273 44.2305 180.09 44.6758 180.02 45.25H183.195V45.168C183.164 44.6172 183.016 44.1914 182.75 43.8906C182.484 43.5859 182.125 43.4336 181.672 43.4336ZM189.23 47.3184C189.23 47.0254 189.119 46.7988 188.896 46.6387C188.678 46.4746 188.293 46.334 187.742 46.2168C187.195 46.0996 186.76 45.959 186.436 45.7949C186.115 45.6309 185.877 45.4355 185.721 45.209C185.568 44.9824 185.492 44.7129 185.492 44.4004C185.492 43.8809 185.711 43.4414 186.148 43.082C186.59 42.7227 187.152 42.543 187.836 42.543C188.555 42.543 189.137 42.7285 189.582 43.0996C190.031 43.4707 190.256 43.9453 190.256 44.5234H189.166C189.166 44.2266 189.039 43.9707 188.785 43.7559C188.535 43.541 188.219 43.4336 187.836 43.4336C187.441 43.4336 187.133 43.5195 186.91 43.6914C186.688 43.8633 186.576 44.0879 186.576 44.3652C186.576 44.627 186.68 44.8242 186.887 44.957C187.094 45.0898 187.467 45.2168 188.006 45.3379C188.549 45.459 188.988 45.6035 189.324 45.7715C189.66 45.9395 189.908 46.1426 190.068 46.3809C190.232 46.6152 190.314 46.9023 190.314 47.2422C190.314 47.8086 190.088 48.2637 189.635 48.6074C189.182 48.9473 188.594 49.1172 187.871 49.1172C187.363 49.1172 186.914 49.0273 186.523 48.8477C186.133 48.668 185.826 48.418 185.604 48.0977C185.385 47.7734 185.275 47.4238 185.275 47.0488H186.359C186.379 47.4121 186.523 47.7012 186.793 47.916C187.066 48.127 187.426 48.2324 187.871 48.2324C188.281 48.2324 188.609 48.1504 188.855 47.9863C189.105 47.8184 189.23 47.5957 189.23 47.3184Z" fill="black"/>
</svg>
