<svg width="250" height="133" viewBox="0 0 250 133" fill="none" xmlns="http://www.w3.org/2000/svg">
<rect width="250" height="133" rx="5" fill="#F5F5F5"/>
<rect y="52" width="250" height="21" fill="#E2E2E2"/>
<path d="M16.8291 63.5566H12.7412V66.6191H17.5195V68H11.0117V58.0469H17.4717V59.4414H12.7412V62.1895H16.8291V63.5566ZM20.3291 60.6035L20.377 61.376C20.8965 60.7699 21.6074 60.4668 22.5098 60.4668C23.4987 60.4668 24.1755 60.8451 24.54 61.6016C25.0778 60.8451 25.8343 60.4668 26.8096 60.4668C27.6253 60.4668 28.2314 60.6924 28.6279 61.1436C29.029 61.5947 29.234 62.2601 29.2432 63.1396V68H27.582V63.1875C27.582 62.7181 27.4795 62.374 27.2744 62.1553C27.0693 61.9365 26.7298 61.8271 26.2559 61.8271C25.8776 61.8271 25.5677 61.9297 25.3262 62.1348C25.0892 62.3353 24.9229 62.5996 24.8271 62.9277L24.834 68H23.1729V63.1328C23.1501 62.2624 22.7057 61.8271 21.8398 61.8271C21.1745 61.8271 20.7028 62.0983 20.4248 62.6406V68H18.7637V60.6035H20.3291ZM42.1904 64.7598C42.0902 65.8216 41.6982 66.651 41.0146 67.248C40.3311 67.8405 39.4219 68.1367 38.2871 68.1367C37.4941 68.1367 36.7946 67.9499 36.1885 67.5762C35.5869 67.1979 35.1221 66.6624 34.7939 65.9697C34.4658 65.277 34.2949 64.4727 34.2812 63.5566V62.627C34.2812 61.6882 34.4476 60.861 34.7803 60.1455C35.113 59.43 35.5892 58.8786 36.209 58.4912C36.8333 58.1038 37.5534 57.9102 38.3691 57.9102C39.4674 57.9102 40.3516 58.2087 41.0215 58.8057C41.6914 59.4027 42.0811 60.2458 42.1904 61.335H40.4678C40.3857 60.6195 40.1761 60.1045 39.8389 59.79C39.5062 59.471 39.0163 59.3115 38.3691 59.3115C37.6172 59.3115 37.0384 59.5872 36.6328 60.1387C36.2318 60.6855 36.0267 61.4899 36.0176 62.5518V63.4336C36.0176 64.5091 36.209 65.3294 36.5918 65.8945C36.9792 66.4596 37.5443 66.7422 38.2871 66.7422C38.9661 66.7422 39.4766 66.5895 39.8184 66.2842C40.1602 65.9788 40.3766 65.4707 40.4678 64.7598H42.1904ZM43.2705 64.2334C43.2705 63.5088 43.4141 62.8571 43.7012 62.2783C43.9883 61.695 44.3916 61.2484 44.9111 60.9385C45.4307 60.624 46.0277 60.4668 46.7021 60.4668C47.7002 60.4668 48.5091 60.7881 49.1289 61.4307C49.7533 62.0732 50.0905 62.9255 50.1406 63.9873L50.1475 64.377C50.1475 65.1061 50.0062 65.7578 49.7236 66.332C49.4456 66.9062 49.0446 67.3506 48.5205 67.665C48.001 67.9795 47.3994 68.1367 46.7158 68.1367C45.6722 68.1367 44.8359 67.7904 44.207 67.0977C43.5827 66.4004 43.2705 65.473 43.2705 64.3154V64.2334ZM44.9316 64.377C44.9316 65.138 45.0889 65.735 45.4033 66.168C45.7178 66.5964 46.1553 66.8105 46.7158 66.8105C47.2764 66.8105 47.7116 66.5918 48.0215 66.1543C48.3359 65.7168 48.4932 65.0765 48.4932 64.2334C48.4932 63.486 48.3314 62.8936 48.0078 62.4561C47.6888 62.0186 47.2536 61.7998 46.7021 61.7998C46.1598 61.7998 45.7292 62.0163 45.4102 62.4492C45.0911 62.8776 44.9316 63.5202 44.9316 64.377ZM53.0938 60.6035L53.1416 61.458C53.6885 60.7972 54.4062 60.4668 55.2949 60.4668C56.8353 60.4668 57.6191 61.3486 57.6465 63.1123V68H55.9854V63.208C55.9854 62.7386 55.8828 62.3923 55.6777 62.1689C55.4772 61.9411 55.1468 61.8271 54.6865 61.8271C54.0166 61.8271 53.5176 62.1302 53.1895 62.7363V68H51.5283V60.6035H53.0938ZM61.4268 58.8057V60.6035H62.7324V61.834H61.4268V65.9629C61.4268 66.2454 61.4814 66.4505 61.5908 66.5781C61.7048 66.7012 61.9053 66.7627 62.1924 66.7627C62.3838 66.7627 62.5775 66.7399 62.7734 66.6943V67.9795C62.3952 68.0843 62.0306 68.1367 61.6797 68.1367C60.4036 68.1367 59.7656 67.4326 59.7656 66.0244V61.834H58.5488V60.6035H59.7656V58.8057H61.4268ZM68.4268 68C68.3538 67.8587 68.29 67.6286 68.2354 67.3096C67.7067 67.861 67.0596 68.1367 66.2939 68.1367C65.5511 68.1367 64.945 67.9248 64.4756 67.501C64.0062 67.0771 63.7715 66.5531 63.7715 65.9287C63.7715 65.1403 64.0632 64.5365 64.6465 64.1172C65.2344 63.6934 66.0729 63.4814 67.1621 63.4814H68.1807V62.9961C68.1807 62.6133 68.0736 62.3079 67.8594 62.0801C67.6452 61.8477 67.3193 61.7314 66.8818 61.7314C66.5036 61.7314 66.1937 61.8271 65.9521 62.0186C65.7106 62.2054 65.5898 62.4447 65.5898 62.7363H63.9287C63.9287 62.3307 64.0632 61.9525 64.332 61.6016C64.6009 61.2461 64.9655 60.9681 65.4258 60.7676C65.8906 60.5671 66.4079 60.4668 66.9775 60.4668C67.8434 60.4668 68.5339 60.6855 69.0488 61.123C69.5638 61.556 69.8281 62.1667 69.8418 62.9551V66.291C69.8418 66.9564 69.9352 67.4873 70.1221 67.8838V68H68.4268ZM66.6016 66.8037C66.9297 66.8037 67.2373 66.724 67.5244 66.5645C67.8161 66.4049 68.0348 66.1908 68.1807 65.9219V64.5273H67.2852C66.6699 64.5273 66.2074 64.6344 65.8975 64.8486C65.5876 65.0628 65.4326 65.3659 65.4326 65.7578C65.4326 66.0768 65.5374 66.332 65.7471 66.5234C65.9613 66.7103 66.2461 66.8037 66.6016 66.8037Z" fill="black"/>
<path d="M149.669 64.165H147.741V68H146.012V58.0469H149.512C150.66 58.0469 151.547 58.3044 152.171 58.8193C152.795 59.3343 153.107 60.0794 153.107 61.0547C153.107 61.7201 152.946 62.2783 152.622 62.7295C152.303 63.1761 151.856 63.5202 151.282 63.7617L153.518 67.9111V68H151.665L149.669 64.165ZM147.741 62.7773H149.519C150.102 62.7773 150.558 62.6315 150.886 62.3398C151.214 62.0436 151.378 61.6403 151.378 61.1299C151.378 60.5967 151.225 60.1842 150.92 59.8926C150.619 59.6009 150.168 59.4505 149.566 59.4414H147.741V62.7773ZM159.335 65.4023C159.335 65.015 159.212 64.696 158.966 64.4453C158.72 64.1901 158.31 63.9622 157.735 63.7617C157.161 63.5566 156.715 63.3675 156.396 63.1943C155.334 62.6247 154.803 61.7816 154.803 60.665C154.803 59.9085 155.033 59.2865 155.493 58.7988C155.953 58.3112 156.578 58.0218 157.366 57.9307V56.4404H158.46V57.9443C159.253 58.0583 159.866 58.3955 160.299 58.9561C160.732 59.512 160.948 60.2367 160.948 61.1299H159.294C159.294 60.5557 159.164 60.1045 158.904 59.7764C158.649 59.4437 158.3 59.2773 157.858 59.2773C157.421 59.2773 157.079 59.3958 156.833 59.6328C156.587 59.8698 156.464 60.2093 156.464 60.6514C156.464 61.0479 156.585 61.3669 156.826 61.6084C157.072 61.8454 157.487 62.071 158.07 62.2852C158.654 62.4993 159.112 62.6976 159.444 62.8799C159.777 63.0622 160.057 63.2718 160.285 63.5088C160.513 63.7412 160.688 64.0101 160.812 64.3154C160.935 64.6208 160.996 64.9785 160.996 65.3887C160.996 66.1589 160.759 66.7832 160.285 67.2617C159.816 67.7402 159.16 68.0228 158.316 68.1094V69.4424H157.229V68.1162C156.327 68.016 155.632 67.6924 155.145 67.1455C154.661 66.5986 154.42 65.874 154.42 64.9717H156.081C156.081 65.5459 156.225 65.9902 156.512 66.3047C156.803 66.6191 157.214 66.7764 157.742 66.7764C158.262 66.7764 158.656 66.651 158.925 66.4004C159.198 66.1497 159.335 65.8171 159.335 65.4023ZM170.423 68H168.769V60.0088L166.328 60.8428V59.4414L170.211 58.0127H170.423V68ZM174.326 63.0645L174.866 58.0469H180.212V59.4824H176.247L175.974 61.8613C176.434 61.597 176.953 61.4648 177.532 61.4648C178.48 61.4648 179.216 61.7679 179.74 62.374C180.269 62.9801 180.533 63.7959 180.533 64.8213C180.533 65.833 180.242 66.6396 179.658 67.2412C179.075 67.8382 178.275 68.1367 177.259 68.1367C176.347 68.1367 175.591 67.8792 174.989 67.3643C174.392 66.8447 174.069 66.1611 174.019 65.3135H175.625C175.689 65.7965 175.862 66.168 176.145 66.4277C176.427 66.6829 176.796 66.8105 177.252 66.8105C177.762 66.8105 178.159 66.6283 178.441 66.2637C178.729 65.8991 178.872 65.4023 178.872 64.7734C178.872 64.1673 178.715 63.6888 178.4 63.3379C178.086 62.9824 177.653 62.8047 177.102 62.8047C176.801 62.8047 176.546 62.8457 176.336 62.9277C176.126 63.0052 175.898 63.1602 175.652 63.3926L174.326 63.0645ZM188.326 63.8096C188.326 65.2406 188.057 66.3206 187.52 67.0498C186.986 67.7744 186.173 68.1367 185.079 68.1367C184.004 68.1367 183.192 67.7835 182.646 67.0771C182.103 66.3662 181.825 65.3158 181.812 63.9258V62.2031C181.812 60.7721 182.078 59.6989 182.611 58.9834C183.149 58.2679 183.967 57.9102 185.065 57.9102C186.155 57.9102 186.966 58.2588 187.499 58.9561C188.037 59.6533 188.312 60.6969 188.326 62.0869V63.8096ZM186.665 61.9502C186.665 61.016 186.537 60.3324 186.282 59.8994C186.027 59.4619 185.621 59.2432 185.065 59.2432C184.523 59.2432 184.124 59.4505 183.869 59.8652C183.614 60.2754 183.479 60.918 183.466 61.793V64.0488C183.466 64.9785 183.596 65.6712 183.855 66.127C184.115 66.5827 184.523 66.8105 185.079 66.8105C185.612 66.8105 186.007 66.6009 186.262 66.1816C186.517 65.7578 186.651 65.097 186.665 64.1992V61.9502ZM196.283 63.8096C196.283 65.2406 196.014 66.3206 195.477 67.0498C194.943 67.7744 194.13 68.1367 193.036 68.1367C191.961 68.1367 191.149 67.7835 190.603 67.0771C190.06 66.3662 189.782 65.3158 189.769 63.9258V62.2031C189.769 60.7721 190.035 59.6989 190.568 58.9834C191.106 58.2679 191.924 57.9102 193.022 57.9102C194.112 57.9102 194.923 58.2588 195.456 58.9561C195.994 59.6533 196.27 60.6969 196.283 62.0869V63.8096ZM194.622 61.9502C194.622 61.016 194.494 60.3324 194.239 59.8994C193.984 59.4619 193.578 59.2432 193.022 59.2432C192.48 59.2432 192.081 59.4505 191.826 59.8652C191.571 60.2754 191.437 60.918 191.423 61.793V64.0488C191.423 64.9785 191.553 65.6712 191.812 66.127C192.072 66.5827 192.48 66.8105 193.036 66.8105C193.569 66.8105 193.964 66.6009 194.219 66.1816C194.474 65.7578 194.608 65.097 194.622 64.1992V61.9502ZM198.095 70.2422L197.199 69.709C197.464 69.2943 197.644 68.932 197.739 68.6221C197.84 68.3167 197.892 68.0046 197.896 67.6855V66.3936H199.394L199.387 67.5898C199.382 68.0729 199.259 68.556 199.018 69.0391C198.781 69.5267 198.473 69.9277 198.095 70.2422ZM207.316 63.8096C207.316 65.2406 207.048 66.3206 206.51 67.0498C205.977 67.7744 205.163 68.1367 204.069 68.1367C202.994 68.1367 202.183 67.7835 201.636 67.0771C201.093 66.3662 200.815 65.3158 200.802 63.9258V62.2031C200.802 60.7721 201.068 59.6989 201.602 58.9834C202.139 58.2679 202.957 57.9102 204.056 57.9102C205.145 57.9102 205.956 58.2588 206.489 58.9561C207.027 59.6533 207.303 60.6969 207.316 62.0869V63.8096ZM205.655 61.9502C205.655 61.016 205.528 60.3324 205.272 59.8994C205.017 59.4619 204.612 59.2432 204.056 59.2432C203.513 59.2432 203.115 59.4505 202.859 59.8652C202.604 60.2754 202.47 60.918 202.456 61.793V64.0488C202.456 64.9785 202.586 65.6712 202.846 66.127C203.105 66.5827 203.513 66.8105 204.069 66.8105C204.603 66.8105 204.997 66.6009 205.252 66.1816C205.507 65.7578 205.642 65.097 205.655 64.1992V61.9502ZM215.273 63.8096C215.273 65.2406 215.005 66.3206 214.467 67.0498C213.934 67.7744 213.12 68.1367 212.026 68.1367C210.951 68.1367 210.14 67.7835 209.593 67.0771C209.05 66.3662 208.772 65.3158 208.759 63.9258V62.2031C208.759 60.7721 209.025 59.6989 209.559 58.9834C210.096 58.2679 210.914 57.9102 212.013 57.9102C213.102 57.9102 213.913 58.2588 214.446 58.9561C214.984 59.6533 215.26 60.6969 215.273 62.0869V63.8096ZM213.612 61.9502C213.612 61.016 213.485 60.3324 213.229 59.8994C212.974 59.4619 212.569 59.2432 212.013 59.2432C211.47 59.2432 211.072 59.4505 210.816 59.8652C210.561 60.2754 210.427 60.918 210.413 61.793V64.0488C210.413 64.9785 210.543 65.6712 210.803 66.127C211.062 66.5827 211.47 66.8105 212.026 66.8105C212.56 66.8105 212.954 66.6009 213.209 66.1816C213.464 65.7578 213.599 65.097 213.612 64.1992V61.9502Z" fill="black"/>
<path d="M0 72.5H250V93.5H0V72.5Z" fill="#F6F6F6"/>
<path d="M16.6309 87.2109H12.1123L11.0869 90H10.2051L13.9717 80.0469H14.7715L18.5381 90H17.6631L16.6309 87.2109ZM12.3721 86.4932H16.3643L14.3682 81.0723L12.3721 86.4932ZM24.2598 89.2891H29.1748V90H23.4121V80.0469H24.2598V89.2891ZM31.5195 90H30.6992V82.6035H31.5195V90ZM30.5557 80.4639C30.5557 80.3089 30.6058 80.179 30.7061 80.0742C30.8063 79.9648 30.943 79.9102 31.1162 79.9102C31.2894 79.9102 31.4261 79.9648 31.5264 80.0742C31.6312 80.179 31.6836 80.3089 31.6836 80.4639C31.6836 80.6188 31.6312 80.7487 31.5264 80.8535C31.4261 80.9583 31.2894 81.0107 31.1162 81.0107C30.943 81.0107 30.8063 80.9583 30.7061 80.8535C30.6058 80.7487 30.5557 80.6188 30.5557 80.4639ZM39.7021 86.377C39.7021 87.5299 39.4469 88.446 38.9365 89.125C38.4261 89.7995 37.7402 90.1367 36.8789 90.1367C35.849 90.1367 35.0697 89.7539 34.541 88.9883L34.5068 90H33.7412V79.5H34.5547V83.6768C35.0742 82.8701 35.8444 82.4668 36.8652 82.4668C37.7402 82.4668 38.4307 82.8018 38.9365 83.4717C39.4469 84.137 39.7021 85.0645 39.7021 86.2539V86.377ZM38.8818 86.2334C38.8818 85.2581 38.6927 84.5062 38.3145 83.9775C37.9362 83.4443 37.403 83.1777 36.7148 83.1777C36.1908 83.1777 35.7464 83.3076 35.3818 83.5674C35.0173 83.8226 34.7415 84.1986 34.5547 84.6953V88.0312C34.9648 88.9609 35.6895 89.4258 36.7285 89.4258C37.403 89.4258 37.9294 89.1592 38.3076 88.626C38.6904 88.0928 38.8818 87.2952 38.8818 86.2334ZM44.3779 90.1367C43.749 90.1367 43.1794 89.9818 42.6689 89.6719C42.1631 89.362 41.7689 88.9313 41.4863 88.3799C41.2038 87.8239 41.0625 87.2018 41.0625 86.5137V86.2197C41.0625 85.5088 41.1992 84.8685 41.4727 84.2988C41.7507 83.7292 42.1357 83.2826 42.6279 82.959C43.1201 82.6309 43.6533 82.4668 44.2275 82.4668C45.1253 82.4668 45.8363 82.7744 46.3604 83.3896C46.889 84.0003 47.1533 84.8366 47.1533 85.8984V86.3564H41.876V86.5137C41.876 87.3522 42.1152 88.0518 42.5938 88.6123C43.0768 89.1683 43.6829 89.4463 44.4121 89.4463C44.8496 89.4463 45.2347 89.3665 45.5674 89.207C45.9046 89.0475 46.21 88.7923 46.4834 88.4414L46.9961 88.8311C46.3945 89.7015 45.5218 90.1367 44.3779 90.1367ZM44.2275 83.1641C43.6123 83.1641 43.0928 83.3896 42.6689 83.8408C42.2497 84.292 41.9945 84.8981 41.9033 85.6592H46.3398V85.5703C46.3171 84.8594 46.1143 84.2806 45.7314 83.834C45.3486 83.3874 44.8473 83.1641 44.2275 83.1641ZM52.1641 83.3008C51.9909 83.2689 51.8063 83.2529 51.6104 83.2529C51.0999 83.2529 50.667 83.3965 50.3115 83.6836C49.9606 83.9661 49.71 84.3786 49.5596 84.9209V90H48.7461V82.6035H49.5459L49.5596 83.7793C49.9925 82.9043 50.6875 82.4668 51.6445 82.4668C51.8724 82.4668 52.0524 82.4964 52.1846 82.5557L52.1641 83.3008ZM57.8584 90C57.7764 89.7676 57.724 89.4235 57.7012 88.9678C57.4141 89.3415 57.0472 89.6309 56.6006 89.8359C56.1585 90.0365 55.6891 90.1367 55.1924 90.1367C54.4814 90.1367 53.9049 89.9385 53.4629 89.542C53.0254 89.1455 52.8066 88.6442 52.8066 88.0381C52.8066 87.318 53.1051 86.7484 53.7021 86.3291C54.3037 85.9098 55.14 85.7002 56.2109 85.7002H57.6943V84.8594C57.6943 84.3307 57.5303 83.916 57.2021 83.6152C56.8786 83.3099 56.4046 83.1572 55.7803 83.1572C55.2106 83.1572 54.7389 83.3031 54.3652 83.5947C53.9915 83.8864 53.8047 84.2373 53.8047 84.6475L52.9844 84.6406C52.9844 84.0527 53.2578 83.5446 53.8047 83.1162C54.3516 82.6833 55.0238 82.4668 55.8213 82.4668C56.6462 82.4668 57.2956 82.6742 57.7695 83.0889C58.248 83.499 58.4941 84.0732 58.5078 84.8115V88.3115C58.5078 89.027 58.583 89.5625 58.7334 89.918V90H57.8584ZM55.2881 89.4121C55.835 89.4121 56.3226 89.2799 56.751 89.0156C57.1839 88.7513 57.4984 88.3981 57.6943 87.9561V86.3291H56.2314C55.4157 86.3382 54.7777 86.4886 54.3174 86.7803C53.8571 87.0674 53.627 87.4639 53.627 87.9697C53.627 88.3844 53.7796 88.7285 54.085 89.002C54.3949 89.2754 54.7959 89.4121 55.2881 89.4121ZM64.1133 83.3008C63.9401 83.2689 63.7555 83.2529 63.5596 83.2529C63.0492 83.2529 62.6162 83.3965 62.2607 83.6836C61.9098 83.9661 61.6592 84.3786 61.5088 84.9209V90H60.6953V82.6035H61.4951L61.5088 83.7793C61.9417 82.9043 62.6367 82.4668 63.5938 82.4668C63.8216 82.4668 64.0016 82.4964 64.1338 82.5557L64.1133 83.3008Z" fill="black"/>
<path d="M149.977 85.8574H147.085V90H146.237V80.0469H149.471C150.533 80.0469 151.362 80.3044 151.959 80.8193C152.556 81.3343 152.854 82.0544 152.854 82.9795C152.854 83.6175 152.668 84.1803 152.294 84.668C151.92 85.1556 151.419 85.4928 150.79 85.6797L153.278 89.9111V90H152.383L149.977 85.8574ZM147.085 85.1396H149.662C150.368 85.1396 150.936 84.9391 151.364 84.5381C151.793 84.137 152.007 83.6175 152.007 82.9795C152.007 82.2777 151.784 81.7331 151.337 81.3457C150.89 80.9583 150.264 80.7646 149.457 80.7646H147.085V85.1396ZM160.046 87.5459C160.046 87.04 159.882 86.6276 159.554 86.3086C159.226 85.985 158.647 85.6797 157.817 85.3926C156.787 85.069 156.065 84.6862 155.65 84.2441C155.236 83.7975 155.028 83.221 155.028 82.5146C155.028 81.7718 155.256 81.1702 155.712 80.71C156.168 80.2451 156.787 79.9808 157.571 79.917V78.5361H158.269V79.917C159.071 79.9899 159.69 80.2907 160.128 80.8193C160.57 81.348 160.791 82.0658 160.791 82.9727H159.978C159.978 82.2572 159.791 81.6898 159.417 81.2705C159.048 80.8467 158.542 80.6348 157.899 80.6348C157.252 80.6348 156.746 80.8057 156.382 81.1475C156.022 81.4847 155.842 81.9359 155.842 82.501C155.842 83.0479 156.008 83.4762 156.341 83.7861C156.674 84.0915 157.239 84.3809 158.036 84.6543C158.838 84.9232 159.419 85.1829 159.779 85.4336C160.144 85.6797 160.415 85.9736 160.593 86.3154C160.775 86.6527 160.866 87.0583 160.866 87.5322C160.866 88.2796 160.632 88.8835 160.162 89.3438C159.697 89.7995 159.057 90.0592 158.241 90.123V91.4219H157.551V90.1299C156.635 90.0706 155.926 89.7835 155.425 89.2686C154.924 88.749 154.673 88.0404 154.673 87.1426H155.493C155.493 87.8535 155.701 88.4118 156.115 88.8174C156.53 89.2184 157.109 89.4189 157.852 89.4189C158.499 89.4189 159.025 89.2458 159.431 88.8994C159.841 88.5531 160.046 88.1019 160.046 87.5459ZM166.547 84.9004L167.032 80.0469H172.009V80.8057H167.736L167.388 84.1689C167.921 83.8044 168.545 83.6221 169.261 83.6221C170.159 83.6221 170.874 83.9137 171.407 84.4971C171.94 85.0804 172.207 85.8574 172.207 86.8281C172.207 87.8763 171.947 88.6898 171.428 89.2686C170.908 89.8473 170.177 90.1367 169.233 90.1367C168.368 90.1367 167.666 89.8952 167.128 89.4121C166.59 88.929 166.283 88.2523 166.205 87.3818H166.991C167.069 88.0609 167.299 88.5758 167.682 88.9268C168.064 89.2731 168.582 89.4463 169.233 89.4463C169.944 89.4463 170.48 89.2207 170.84 88.7695C171.204 88.3184 171.387 87.6758 171.387 86.8418C171.387 86.1126 171.184 85.5179 170.778 85.0576C170.373 84.5973 169.819 84.3672 169.117 84.3672C168.73 84.3672 168.393 84.4173 168.105 84.5176C167.818 84.6133 167.515 84.8024 167.196 85.085L166.547 84.9004ZM179.761 85.8506C179.761 87.2542 179.503 88.3206 178.988 89.0498C178.473 89.7744 177.715 90.1367 176.712 90.1367C175.728 90.1367 174.973 89.7812 174.449 89.0703C173.925 88.3548 173.656 87.3158 173.643 85.9531V84.1689C173.643 82.7699 173.902 81.7103 174.422 80.9902C174.941 80.2702 175.7 79.9102 176.698 79.9102C177.683 79.9102 178.435 80.2588 178.954 80.9561C179.474 81.6488 179.743 82.6719 179.761 84.0254V85.8506ZM178.94 84.0664C178.94 82.9271 178.754 82.0658 178.38 81.4824C178.011 80.8991 177.45 80.6074 176.698 80.6074C175.96 80.6074 175.404 80.8923 175.03 81.4619C174.657 82.0316 174.465 82.8724 174.456 83.9844V85.9395C174.456 87.0742 174.647 87.9424 175.03 88.5439C175.418 89.1455 175.978 89.4463 176.712 89.4463C177.441 89.4463 177.993 89.1523 178.366 88.5645C178.744 87.9766 178.936 87.1152 178.94 85.9805V84.0664ZM187.526 85.8506C187.526 87.2542 187.269 88.3206 186.754 89.0498C186.239 89.7744 185.48 90.1367 184.478 90.1367C183.493 90.1367 182.739 89.7812 182.215 89.0703C181.691 88.3548 181.422 87.3158 181.408 85.9531V84.1689C181.408 82.7699 181.668 81.7103 182.188 80.9902C182.707 80.2702 183.466 79.9102 184.464 79.9102C185.448 79.9102 186.2 80.2588 186.72 80.9561C187.239 81.6488 187.508 82.6719 187.526 84.0254V85.8506ZM186.706 84.0664C186.706 82.9271 186.519 82.0658 186.146 81.4824C185.776 80.8991 185.216 80.6074 184.464 80.6074C183.726 80.6074 183.17 80.8923 182.796 81.4619C182.422 82.0316 182.231 82.8724 182.222 83.9844V85.9395C182.222 87.0742 182.413 87.9424 182.796 88.5439C183.183 89.1455 183.744 89.4463 184.478 89.4463C185.207 89.4463 185.758 89.1523 186.132 88.5645C186.51 87.9766 186.701 87.1152 186.706 85.9805V84.0664ZM189.249 91.8594L188.764 91.5039C189.178 90.9479 189.393 90.3714 189.406 89.7744V88.7148H190.206V89.5693C190.206 90.5173 189.887 91.2806 189.249 91.8594ZM197.972 85.8506C197.972 87.2542 197.714 88.3206 197.199 89.0498C196.684 89.7744 195.925 90.1367 194.923 90.1367C193.938 90.1367 193.184 89.7812 192.66 89.0703C192.136 88.3548 191.867 87.3158 191.854 85.9531V84.1689C191.854 82.7699 192.113 81.7103 192.633 80.9902C193.152 80.2702 193.911 79.9102 194.909 79.9102C195.894 79.9102 196.646 80.2588 197.165 80.9561C197.685 81.6488 197.953 82.6719 197.972 84.0254V85.8506ZM197.151 84.0664C197.151 82.9271 196.965 82.0658 196.591 81.4824C196.222 80.8991 195.661 80.6074 194.909 80.6074C194.171 80.6074 193.615 80.8923 193.241 81.4619C192.868 82.0316 192.676 82.8724 192.667 83.9844V85.9395C192.667 87.0742 192.858 87.9424 193.241 88.5439C193.629 89.1455 194.189 89.4463 194.923 89.4463C195.652 89.4463 196.203 89.1523 196.577 88.5645C196.955 87.9766 197.147 87.1152 197.151 85.9805V84.0664ZM205.737 85.8506C205.737 87.2542 205.48 88.3206 204.965 89.0498C204.45 89.7744 203.691 90.1367 202.688 90.1367C201.704 90.1367 200.95 89.7812 200.426 89.0703C199.902 88.3548 199.633 87.3158 199.619 85.9531V84.1689C199.619 82.7699 199.879 81.7103 200.398 80.9902C200.918 80.2702 201.677 79.9102 202.675 79.9102C203.659 79.9102 204.411 80.2588 204.931 80.9561C205.45 81.6488 205.719 82.6719 205.737 84.0254V85.8506ZM204.917 84.0664C204.917 82.9271 204.73 82.0658 204.356 81.4824C203.987 80.8991 203.427 80.6074 202.675 80.6074C201.937 80.6074 201.381 80.8923 201.007 81.4619C200.633 82.0316 200.442 82.8724 200.433 83.9844V85.9395C200.433 87.0742 200.624 87.9424 201.007 88.5439C201.394 89.1455 201.955 89.4463 202.688 89.4463C203.418 89.4463 203.969 89.1523 204.343 88.5645C204.721 87.9766 204.912 87.1152 204.917 85.9805V84.0664Z" fill="black"/>
<path d="M14.0879 30.5635C12.9622 30.2399 12.1419 29.8434 11.627 29.374C11.1165 28.9001 10.8613 28.3167 10.8613 27.624C10.8613 26.8402 11.1735 26.193 11.7979 25.6826C12.4268 25.1676 13.2425 24.9102 14.2451 24.9102C14.9287 24.9102 15.5371 25.0423 16.0703 25.3066C16.6081 25.571 17.0228 25.9355 17.3145 26.4004C17.6107 26.8652 17.7588 27.3734 17.7588 27.9248H16.4395C16.4395 27.3232 16.248 26.8516 15.8652 26.5098C15.4824 26.1634 14.9424 25.9902 14.2451 25.9902C13.598 25.9902 13.0921 26.1338 12.7275 26.4209C12.3675 26.7035 12.1875 27.0977 12.1875 27.6035C12.1875 28.0091 12.3584 28.3532 12.7002 28.6357C13.0465 28.9137 13.6322 29.1689 14.457 29.4014C15.2865 29.6338 15.9336 29.8913 16.3984 30.1738C16.8678 30.4518 17.2142 30.7777 17.4375 31.1514C17.6654 31.5251 17.7793 31.9648 17.7793 32.4707C17.7793 33.2773 17.4648 33.9245 16.8359 34.4121C16.207 34.8952 15.3662 35.1367 14.3135 35.1367C13.6299 35.1367 12.9919 35.0068 12.3994 34.7471C11.807 34.4827 11.349 34.1227 11.0254 33.667C10.7064 33.2113 10.5469 32.694 10.5469 32.1152H11.8662C11.8662 32.7168 12.0872 33.193 12.5293 33.5439C12.9759 33.8903 13.5706 34.0635 14.3135 34.0635C15.0062 34.0635 15.5371 33.9222 15.9062 33.6396C16.2754 33.3571 16.46 32.972 16.46 32.4844C16.46 31.9967 16.2891 31.6208 15.9473 31.3564C15.6055 31.0876 14.9857 30.8232 14.0879 30.5635ZM23.8359 35C23.763 34.8542 23.7038 34.5944 23.6582 34.2207C23.0703 34.8314 22.3685 35.1367 21.5527 35.1367C20.8236 35.1367 20.2243 34.9316 19.7549 34.5215C19.29 34.1068 19.0576 33.5827 19.0576 32.9492C19.0576 32.179 19.3493 31.582 19.9326 31.1582C20.5205 30.7298 21.3454 30.5156 22.4072 30.5156H23.6377V29.9346C23.6377 29.4925 23.5055 29.1416 23.2412 28.8818C22.9769 28.6175 22.5872 28.4854 22.0723 28.4854C21.6211 28.4854 21.2428 28.5993 20.9375 28.8271C20.6322 29.055 20.4795 29.3307 20.4795 29.6543H19.208C19.208 29.2852 19.3379 28.9297 19.5977 28.5879C19.862 28.2415 20.2174 27.9681 20.6641 27.7676C21.1152 27.5671 21.6097 27.4668 22.1475 27.4668C22.9997 27.4668 23.6673 27.681 24.1504 28.1094C24.6335 28.5332 24.8841 29.1188 24.9023 29.8662V33.2705C24.9023 33.9495 24.9889 34.4896 25.1621 34.8906V35H23.8359ZM21.7373 34.0361C22.1338 34.0361 22.5098 33.9336 22.8652 33.7285C23.2207 33.5234 23.4782 33.2568 23.6377 32.9287V31.4111H22.6465C21.097 31.4111 20.3223 31.8646 20.3223 32.7715C20.3223 33.168 20.4544 33.4779 20.7188 33.7012C20.9831 33.9245 21.3226 34.0361 21.7373 34.0361ZM28.2588 35H26.9941V24.5H28.2588V35ZM29.9814 31.2402C29.9814 30.1055 30.2503 29.194 30.7881 28.5059C31.3258 27.8132 32.0299 27.4668 32.9004 27.4668C33.7663 27.4668 34.4521 27.763 34.958 28.3555V24.5H36.2227V35H35.0605L34.999 34.207C34.4932 34.8268 33.7891 35.1367 32.8867 35.1367C32.0299 35.1367 31.3304 34.7858 30.7881 34.084C30.2503 33.3822 29.9814 32.4661 29.9814 31.3359V31.2402ZM31.2461 31.3838C31.2461 32.2223 31.4193 32.8786 31.7656 33.3525C32.112 33.8265 32.5905 34.0635 33.2012 34.0635C34.0033 34.0635 34.5889 33.7035 34.958 32.9834V29.5859C34.5798 28.8887 33.9987 28.54 33.2148 28.54C32.5951 28.54 32.112 28.7793 31.7656 29.2578C31.4193 29.7363 31.2461 30.445 31.2461 31.3838ZM37.8564 31.2334C37.8564 30.5088 37.9977 29.8571 38.2803 29.2783C38.5674 28.6995 38.9639 28.2529 39.4697 27.9385C39.9801 27.624 40.5612 27.4668 41.2129 27.4668C42.2201 27.4668 43.0335 27.8154 43.6533 28.5127C44.2777 29.21 44.5898 30.1374 44.5898 31.2949V31.3838C44.5898 32.1038 44.4508 32.751 44.1729 33.3252C43.8994 33.8949 43.5052 34.3392 42.9902 34.6582C42.4798 34.9772 41.8919 35.1367 41.2266 35.1367C40.224 35.1367 39.4105 34.7881 38.7861 34.0908C38.1663 33.3936 37.8564 32.4707 37.8564 31.3223V31.2334ZM39.1279 31.3838C39.1279 32.2041 39.3171 32.8626 39.6953 33.3594C40.0781 33.8561 40.5885 34.1045 41.2266 34.1045C41.8691 34.1045 42.3796 33.8538 42.7578 33.3525C43.1361 32.8467 43.3252 32.1403 43.3252 31.2334C43.3252 30.4222 43.1315 29.766 42.7441 29.2646C42.3613 28.7588 41.8509 28.5059 41.2129 28.5059C40.5885 28.5059 40.085 28.7542 39.7021 29.251C39.3193 29.7477 39.1279 30.4587 39.1279 31.3838ZM50.8447 27.6035L50.8857 28.5332C51.4508 27.8223 52.1891 27.4668 53.1006 27.4668C54.6637 27.4668 55.4521 28.3486 55.4658 30.1123V35H54.2012V30.1055C54.1966 29.5723 54.0736 29.1781 53.832 28.9229C53.5951 28.6676 53.2236 28.54 52.7178 28.54C52.3076 28.54 51.9476 28.6494 51.6377 28.8682C51.3278 29.0869 51.0863 29.374 50.9131 29.7295V35H49.6484V27.6035H50.8447ZM61.9395 35C61.8665 34.8542 61.8073 34.5944 61.7617 34.2207C61.1738 34.8314 60.472 35.1367 59.6562 35.1367C58.9271 35.1367 58.3278 34.9316 57.8584 34.5215C57.3936 34.1068 57.1611 33.5827 57.1611 32.9492C57.1611 32.179 57.4528 31.582 58.0361 31.1582C58.624 30.7298 59.4489 30.5156 60.5107 30.5156H61.7412V29.9346C61.7412 29.4925 61.609 29.1416 61.3447 28.8818C61.0804 28.6175 60.6908 28.4854 60.1758 28.4854C59.7246 28.4854 59.3464 28.5993 59.041 28.8271C58.7357 29.055 58.583 29.3307 58.583 29.6543H57.3115C57.3115 29.2852 57.4414 28.9297 57.7012 28.5879C57.9655 28.2415 58.321 27.9681 58.7676 27.7676C59.2188 27.5671 59.7132 27.4668 60.251 27.4668C61.1032 27.4668 61.7708 27.681 62.2539 28.1094C62.737 28.5332 62.9876 29.1188 63.0059 29.8662V33.2705C63.0059 33.9495 63.0924 34.4896 63.2656 34.8906V35H61.9395ZM59.8408 34.0361C60.2373 34.0361 60.6133 33.9336 60.9688 33.7285C61.3242 33.5234 61.5817 33.2568 61.7412 32.9287V31.4111H60.75C59.2005 31.4111 58.4258 31.8646 58.4258 32.7715C58.4258 33.168 58.5579 33.4779 58.8223 33.7012C59.0866 33.9245 59.4261 34.0361 59.8408 34.0361ZM75.9805 31.8418C75.8574 32.8945 75.4678 33.708 74.8115 34.2822C74.1598 34.8519 73.2917 35.1367 72.207 35.1367C71.0312 35.1367 70.0879 34.7152 69.377 33.8721C68.6706 33.029 68.3174 31.901 68.3174 30.4883V29.5312C68.3174 28.6061 68.4814 27.7926 68.8096 27.0908C69.1423 26.389 69.6117 25.8512 70.2178 25.4775C70.8239 25.0993 71.5257 24.9102 72.3232 24.9102C73.3805 24.9102 74.2282 25.2064 74.8662 25.7988C75.5042 26.3867 75.8757 27.2025 75.9805 28.2461H74.6611C74.5472 27.4531 74.2988 26.8789 73.916 26.5234C73.5378 26.168 73.0068 25.9902 72.3232 25.9902C71.4847 25.9902 70.8262 26.3001 70.3477 26.9199C69.8737 27.5397 69.6367 28.4215 69.6367 29.5654V30.5293C69.6367 31.6094 69.8623 32.4684 70.3135 33.1064C70.7646 33.7445 71.3958 34.0635 72.207 34.0635C72.9362 34.0635 73.4945 33.8994 73.8818 33.5713C74.2738 33.2386 74.5335 32.6621 74.6611 31.8418H75.9805ZM82.1465 35C82.0736 34.8542 82.0143 34.5944 81.9688 34.2207C81.3809 34.8314 80.679 35.1367 79.8633 35.1367C79.1341 35.1367 78.5348 34.9316 78.0654 34.5215C77.6006 34.1068 77.3682 33.5827 77.3682 32.9492C77.3682 32.179 77.6598 31.582 78.2432 31.1582C78.8311 30.7298 79.6559 30.5156 80.7178 30.5156H81.9482V29.9346C81.9482 29.4925 81.8161 29.1416 81.5518 28.8818C81.2874 28.6175 80.8978 28.4854 80.3828 28.4854C79.9316 28.4854 79.5534 28.5993 79.248 28.8271C78.9427 29.055 78.79 29.3307 78.79 29.6543H77.5186C77.5186 29.2852 77.6484 28.9297 77.9082 28.5879C78.1725 28.2415 78.528 27.9681 78.9746 27.7676C79.4258 27.5671 79.9202 27.4668 80.458 27.4668C81.3102 27.4668 81.9779 27.681 82.4609 28.1094C82.944 28.5332 83.1947 29.1188 83.2129 29.8662V33.2705C83.2129 33.9495 83.2995 34.4896 83.4727 34.8906V35H82.1465ZM80.0479 34.0361C80.4443 34.0361 80.8203 33.9336 81.1758 33.7285C81.5312 33.5234 81.7887 33.2568 81.9482 32.9287V31.4111H80.957C79.4076 31.4111 78.6328 31.8646 78.6328 32.7715C78.6328 33.168 78.765 33.4779 79.0293 33.7012C79.2936 33.9245 79.6331 34.0361 80.0479 34.0361ZM88.7705 28.7383C88.5791 28.7064 88.3717 28.6904 88.1484 28.6904C87.319 28.6904 86.7562 29.0436 86.46 29.75V35H85.1953V27.6035H86.4258L86.4463 28.458C86.861 27.7972 87.4489 27.4668 88.21 27.4668C88.4561 27.4668 88.6429 27.4987 88.7705 27.5625V28.7383ZM91.9971 25.8125V27.6035H93.3779V28.5811H91.9971V33.168C91.9971 33.4642 92.0586 33.6875 92.1816 33.8379C92.3047 33.9837 92.5143 34.0566 92.8105 34.0566C92.9564 34.0566 93.1569 34.0293 93.4121 33.9746V35C93.0794 35.0911 92.7559 35.1367 92.4414 35.1367C91.8763 35.1367 91.4502 34.9658 91.1631 34.624C90.876 34.2822 90.7324 33.7969 90.7324 33.168V28.5811H89.3857V27.6035H90.7324V25.8125H91.9971ZM97.9307 35.1367C96.9281 35.1367 96.1123 34.8086 95.4834 34.1523C94.8545 33.4915 94.54 32.6097 94.54 31.5068V31.2744C94.54 30.5407 94.679 29.8867 94.957 29.3125C95.2396 28.7337 95.6315 28.2826 96.1328 27.959C96.6387 27.6309 97.1855 27.4668 97.7734 27.4668C98.735 27.4668 99.4824 27.7835 100.016 28.417C100.549 29.0505 100.815 29.9574 100.815 31.1377V31.6641H95.8047C95.8229 32.3932 96.0348 32.9834 96.4404 33.4346C96.8506 33.8812 97.3701 34.1045 97.999 34.1045C98.4456 34.1045 98.8239 34.0133 99.1338 33.8311C99.4437 33.6488 99.7148 33.4072 99.9473 33.1064L100.72 33.708C100.1 34.6605 99.1702 35.1367 97.9307 35.1367ZM97.7734 28.5059C97.263 28.5059 96.8346 28.6927 96.4883 29.0664C96.1419 29.4355 95.9277 29.9551 95.8457 30.625H99.5508V30.5293C99.5143 29.8867 99.3411 29.39 99.0312 29.0391C98.7214 28.6836 98.3021 28.5059 97.7734 28.5059ZM103.659 35H102.395V27.6035H103.659V35ZM102.292 25.6416C102.292 25.4365 102.354 25.2633 102.477 25.1221C102.604 24.9808 102.791 24.9102 103.037 24.9102C103.283 24.9102 103.47 24.9808 103.598 25.1221C103.725 25.2633 103.789 25.4365 103.789 25.6416C103.789 25.8467 103.725 26.0176 103.598 26.1543C103.47 26.291 103.283 26.3594 103.037 26.3594C102.791 26.3594 102.604 26.291 102.477 26.1543C102.354 26.0176 102.292 25.8467 102.292 25.6416ZM109.265 28.7383C109.073 28.7064 108.866 28.6904 108.643 28.6904C107.813 28.6904 107.25 29.0436 106.954 29.75V35H105.689V27.6035H106.92L106.94 28.458C107.355 27.7972 107.943 27.4668 108.704 27.4668C108.95 27.4668 109.137 27.4987 109.265 27.5625V28.7383ZM114.727 35C114.654 34.8542 114.594 34.5944 114.549 34.2207C113.961 34.8314 113.259 35.1367 112.443 35.1367C111.714 35.1367 111.115 34.9316 110.646 34.5215C110.181 34.1068 109.948 33.5827 109.948 32.9492C109.948 32.179 110.24 31.582 110.823 31.1582C111.411 30.7298 112.236 30.5156 113.298 30.5156H114.528V29.9346C114.528 29.4925 114.396 29.1416 114.132 28.8818C113.868 28.6175 113.478 28.4854 112.963 28.4854C112.512 28.4854 112.133 28.5993 111.828 28.8271C111.523 29.055 111.37 29.3307 111.37 29.6543H110.099C110.099 29.2852 110.229 28.9297 110.488 28.5879C110.753 28.2415 111.108 27.9681 111.555 27.7676C112.006 27.5671 112.5 27.4668 113.038 27.4668C113.89 27.4668 114.558 27.681 115.041 28.1094C115.524 28.5332 115.775 29.1188 115.793 29.8662V33.2705C115.793 33.9495 115.88 34.4896 116.053 34.8906V35H114.727ZM112.628 34.0361C113.024 34.0361 113.4 33.9336 113.756 33.7285C114.111 33.5234 114.369 33.2568 114.528 32.9287V31.4111H113.537C111.988 31.4111 111.213 31.8646 111.213 32.7715C111.213 33.168 111.345 33.4779 111.609 33.7012C111.874 33.9245 112.213 34.0361 112.628 34.0361ZM122.759 31.1035V35H121.446V25.0469H125.117C126.206 25.0469 127.059 25.3249 127.674 25.8809C128.294 26.4368 128.604 27.1729 128.604 28.0889C128.604 29.055 128.3 29.8001 127.694 30.3242C127.093 30.8438 126.229 31.1035 125.104 31.1035H122.759ZM122.759 30.0303H125.117C125.819 30.0303 126.357 29.8662 126.73 29.5381C127.104 29.2054 127.291 28.7269 127.291 28.1025C127.291 27.5101 127.104 27.0361 126.73 26.6807C126.357 26.3252 125.844 26.1406 125.192 26.127H122.759V30.0303ZM133.655 28.7383C133.464 28.7064 133.257 28.6904 133.033 28.6904C132.204 28.6904 131.641 29.0436 131.345 29.75V35H130.08V27.6035H131.311L131.331 28.458C131.746 27.7972 132.334 27.4668 133.095 27.4668C133.341 27.4668 133.528 27.4987 133.655 27.5625V28.7383ZM134.353 31.2334C134.353 30.5088 134.494 29.8571 134.776 29.2783C135.063 28.6995 135.46 28.2529 135.966 27.9385C136.476 27.624 137.057 27.4668 137.709 27.4668C138.716 27.4668 139.53 27.8154 140.149 28.5127C140.774 29.21 141.086 30.1374 141.086 31.2949V31.3838C141.086 32.1038 140.947 32.751 140.669 33.3252C140.396 33.8949 140.001 34.3392 139.486 34.6582C138.976 34.9772 138.388 35.1367 137.723 35.1367C136.72 35.1367 135.907 34.7881 135.282 34.0908C134.662 33.3936 134.353 32.4707 134.353 31.3223V31.2334ZM135.624 31.3838C135.624 32.2041 135.813 32.8626 136.191 33.3594C136.574 33.8561 137.085 34.1045 137.723 34.1045C138.365 34.1045 138.876 33.8538 139.254 33.3525C139.632 32.8467 139.821 32.1403 139.821 31.2334C139.821 30.4222 139.628 29.766 139.24 29.2646C138.857 28.7588 138.347 28.5059 137.709 28.5059C137.085 28.5059 136.581 28.7542 136.198 29.251C135.815 29.7477 135.624 30.4587 135.624 31.3838ZM148.92 31.3838C148.92 32.5094 148.662 33.4163 148.147 34.1045C147.632 34.7926 146.935 35.1367 146.056 35.1367C145.158 35.1367 144.451 34.8519 143.937 34.2822V37.8438H142.672V27.6035H143.827L143.889 28.4238C144.404 27.7858 145.119 27.4668 146.035 27.4668C146.924 27.4668 147.626 27.8018 148.141 28.4717C148.66 29.1416 148.92 30.0736 148.92 31.2676V31.3838ZM147.655 31.2402C147.655 30.4062 147.478 29.7477 147.122 29.2646C146.767 28.7816 146.279 28.54 145.659 28.54C144.894 28.54 144.319 28.8796 143.937 29.5586V33.0928C144.315 33.7673 144.894 34.1045 145.673 34.1045C146.279 34.1045 146.76 33.8652 147.115 33.3867C147.475 32.9036 147.655 32.1882 147.655 31.2402ZM150.198 31.2334C150.198 30.5088 150.34 29.8571 150.622 29.2783C150.909 28.6995 151.306 28.2529 151.812 27.9385C152.322 27.624 152.903 27.4668 153.555 27.4668C154.562 27.4668 155.375 27.8154 155.995 28.5127C156.619 29.21 156.932 30.1374 156.932 31.2949V31.3838C156.932 32.1038 156.793 32.751 156.515 33.3252C156.241 33.8949 155.847 34.3392 155.332 34.6582C154.822 34.9772 154.234 35.1367 153.568 35.1367C152.566 35.1367 151.752 34.7881 151.128 34.0908C150.508 33.3936 150.198 32.4707 150.198 31.3223V31.2334ZM151.47 31.3838C151.47 32.2041 151.659 32.8626 152.037 33.3594C152.42 33.8561 152.93 34.1045 153.568 34.1045C154.211 34.1045 154.721 33.8538 155.1 33.3525C155.478 32.8467 155.667 32.1403 155.667 31.2334C155.667 30.4222 155.473 29.766 155.086 29.2646C154.703 28.7588 154.193 28.5059 153.555 28.5059C152.93 28.5059 152.427 28.7542 152.044 29.251C151.661 29.7477 151.47 30.4587 151.47 31.3838ZM162.824 33.0381C162.824 32.6963 162.694 32.432 162.435 32.2451C162.179 32.0537 161.73 31.8896 161.088 31.7529C160.45 31.6162 159.942 31.4521 159.563 31.2607C159.19 31.0693 158.912 30.8415 158.729 30.5771C158.552 30.3128 158.463 29.9984 158.463 29.6338C158.463 29.0277 158.718 28.515 159.229 28.0957C159.743 27.6764 160.4 27.4668 161.197 27.4668C162.036 27.4668 162.715 27.6833 163.234 28.1162C163.758 28.5492 164.021 29.1029 164.021 29.7773H162.749C162.749 29.431 162.601 29.1325 162.305 28.8818C162.013 28.6312 161.644 28.5059 161.197 28.5059C160.737 28.5059 160.377 28.6061 160.117 28.8066C159.857 29.0072 159.728 29.2692 159.728 29.5928C159.728 29.8981 159.848 30.1283 160.09 30.2832C160.331 30.4382 160.767 30.5863 161.396 30.7275C162.029 30.8688 162.542 31.0374 162.934 31.2334C163.326 31.4294 163.615 31.6663 163.802 31.9443C163.993 32.2178 164.089 32.5527 164.089 32.9492C164.089 33.61 163.825 34.141 163.296 34.542C162.767 34.9385 162.081 35.1367 161.238 35.1367C160.646 35.1367 160.122 35.0319 159.666 34.8223C159.21 34.6126 158.853 34.321 158.593 33.9473C158.338 33.569 158.21 33.1611 158.21 32.7236H159.475C159.497 33.1475 159.666 33.4847 159.98 33.7354C160.299 33.9814 160.719 34.1045 161.238 34.1045C161.717 34.1045 162.1 34.0088 162.387 33.8174C162.678 33.6214 162.824 33.3617 162.824 33.0381ZM167.452 25.8125V27.6035H168.833V28.5811H167.452V33.168C167.452 33.4642 167.514 33.6875 167.637 33.8379C167.76 33.9837 167.969 34.0566 168.266 34.0566C168.411 34.0566 168.612 34.0293 168.867 33.9746V35C168.535 35.0911 168.211 35.1367 167.896 35.1367C167.331 35.1367 166.905 34.9658 166.618 34.624C166.331 34.2822 166.188 33.7969 166.188 33.168V28.5811H164.841V27.6035H166.188V25.8125H167.452ZM174.883 35C174.81 34.8542 174.751 34.5944 174.705 34.2207C174.117 34.8314 173.415 35.1367 172.6 35.1367C171.87 35.1367 171.271 34.9316 170.802 34.5215C170.337 34.1068 170.104 33.5827 170.104 32.9492C170.104 32.179 170.396 31.582 170.979 31.1582C171.567 30.7298 172.392 30.5156 173.454 30.5156H174.685V29.9346C174.685 29.4925 174.552 29.1416 174.288 28.8818C174.024 28.6175 173.634 28.4854 173.119 28.4854C172.668 28.4854 172.29 28.5993 171.984 28.8271C171.679 29.055 171.526 29.3307 171.526 29.6543H170.255C170.255 29.2852 170.385 28.9297 170.645 28.5879C170.909 28.2415 171.264 27.9681 171.711 27.7676C172.162 27.5671 172.657 27.4668 173.194 27.4668C174.047 27.4668 174.714 27.681 175.197 28.1094C175.68 28.5332 175.931 29.1188 175.949 29.8662V33.2705C175.949 33.9495 176.036 34.4896 176.209 34.8906V35H174.883ZM172.784 34.0361C173.181 34.0361 173.557 33.9336 173.912 33.7285C174.268 33.5234 174.525 33.2568 174.685 32.9287V31.4111H173.693C172.144 31.4111 171.369 31.8646 171.369 32.7715C171.369 33.168 171.501 33.4779 171.766 33.7012C172.03 33.9245 172.369 34.0361 172.784 34.0361ZM183.011 35H181.698V25.0469H183.011V35ZM184.911 31.2402C184.911 30.1055 185.18 29.194 185.718 28.5059C186.256 27.8132 186.96 27.4668 187.83 27.4668C188.696 27.4668 189.382 27.763 189.888 28.3555V24.5H191.152V35H189.99L189.929 34.207C189.423 34.8268 188.719 35.1367 187.816 35.1367C186.96 35.1367 186.26 34.7858 185.718 34.084C185.18 33.3822 184.911 32.4661 184.911 31.3359V31.2402ZM186.176 31.3838C186.176 32.2223 186.349 32.8786 186.695 33.3525C187.042 33.8265 187.52 34.0635 188.131 34.0635C188.933 34.0635 189.519 33.7035 189.888 32.9834V29.5859C189.509 28.8887 188.928 28.54 188.145 28.54C187.525 28.54 187.042 28.7793 186.695 29.2578C186.349 29.7363 186.176 30.445 186.176 31.3838ZM196.19 35.1367C195.188 35.1367 194.372 34.8086 193.743 34.1523C193.114 33.4915 192.8 32.6097 192.8 31.5068V31.2744C192.8 30.5407 192.939 29.8867 193.217 29.3125C193.499 28.7337 193.891 28.2826 194.393 27.959C194.898 27.6309 195.445 27.4668 196.033 27.4668C196.995 27.4668 197.742 27.7835 198.275 28.417C198.809 29.0505 199.075 29.9574 199.075 31.1377V31.6641H194.064C194.083 32.3932 194.295 32.9834 194.7 33.4346C195.11 33.8812 195.63 34.1045 196.259 34.1045C196.705 34.1045 197.084 34.0133 197.394 33.8311C197.703 33.6488 197.975 33.4072 198.207 33.1064L198.979 33.708C198.36 34.6605 197.43 35.1367 196.19 35.1367ZM196.033 28.5059C195.523 28.5059 195.094 28.6927 194.748 29.0664C194.402 29.4355 194.188 29.9551 194.105 30.625H197.811V30.5293C197.774 29.8867 197.601 29.39 197.291 29.0391C196.981 28.6836 196.562 28.5059 196.033 28.5059ZM205.111 35C205.038 34.8542 204.979 34.5944 204.934 34.2207C204.346 34.8314 203.644 35.1367 202.828 35.1367C202.099 35.1367 201.5 34.9316 201.03 34.5215C200.565 34.1068 200.333 33.5827 200.333 32.9492C200.333 32.179 200.625 31.582 201.208 31.1582C201.796 30.7298 202.621 30.5156 203.683 30.5156H204.913V29.9346C204.913 29.4925 204.781 29.1416 204.517 28.8818C204.252 28.6175 203.863 28.4854 203.348 28.4854C202.896 28.4854 202.518 28.5993 202.213 28.8271C201.908 29.055 201.755 29.3307 201.755 29.6543H200.483C200.483 29.2852 200.613 28.9297 200.873 28.5879C201.137 28.2415 201.493 27.9681 201.939 27.7676C202.391 27.5671 202.885 27.4668 203.423 27.4668C204.275 27.4668 204.943 27.681 205.426 28.1094C205.909 28.5332 206.16 29.1188 206.178 29.8662V33.2705C206.178 33.9495 206.264 34.4896 206.438 34.8906V35H205.111ZM203.013 34.0361C203.409 34.0361 203.785 33.9336 204.141 33.7285C204.496 33.5234 204.754 33.2568 204.913 32.9287V31.4111H203.922C202.372 31.4111 201.598 31.8646 201.598 32.7715C201.598 33.168 201.73 33.4779 201.994 33.7012C202.258 33.9245 202.598 34.0361 203.013 34.0361ZM209.534 35H208.27V24.5H209.534V35Z" fill="black"/>
</svg>
