<svg width="250" height="138" viewBox="0 0 250 138" fill="none" xmlns="http://www.w3.org/2000/svg">
<rect width="250" height="138" rx="5" fill="#F5F5F5"/>
<path d="M20.0625 25.5426H18.5547L12.8281 16.777V25.5426H11.3203V14.1676H12.8281L18.5703 22.9723V14.1676H20.0625V25.5426ZM22.1172 21.2379C22.1172 20.4098 22.2786 19.665 22.6016 19.0036C22.9297 18.3421 23.3828 17.8317 23.9609 17.4723C24.5443 17.1129 25.2083 16.9333 25.9531 16.9333C27.1042 16.9333 28.0339 17.3317 28.7422 18.1286C29.4557 18.9254 29.8125 19.9853 29.8125 21.3083V21.4098C29.8125 22.2327 29.6536 22.9723 29.3359 23.6286C29.0234 24.2796 28.5729 24.7874 27.9844 25.152C27.401 25.5166 26.7292 25.6989 25.9688 25.6989C24.8229 25.6989 23.8932 25.3004 23.1797 24.5036C22.4714 23.7067 22.1172 22.652 22.1172 21.3395V21.2379ZM23.5703 21.4098C23.5703 22.3473 23.7865 23.0999 24.2188 23.6676C24.6562 24.2353 25.2396 24.5192 25.9688 24.5192C26.7031 24.5192 27.2865 24.2327 27.7188 23.6598C28.151 23.0817 28.3672 22.2744 28.3672 21.2379C28.3672 20.3109 28.1458 19.5609 27.7031 18.9879C27.2656 18.4098 26.6823 18.1208 25.9531 18.1208C25.2396 18.1208 24.6641 18.4046 24.2266 18.9723C23.7891 19.54 23.5703 20.3525 23.5703 21.4098ZM34.2891 23.5817L36.3828 17.0895H37.8594L34.8281 25.5426H33.7266L30.6641 17.0895H32.1406L34.2891 23.5817ZM40.8203 25.5426H39.375V17.0895H40.8203V25.5426ZM39.2578 14.8473C39.2578 14.6129 39.3281 14.415 39.4688 14.2536C39.6146 14.0921 39.8281 14.0114 40.1094 14.0114C40.3906 14.0114 40.6042 14.0921 40.75 14.2536C40.8958 14.415 40.9688 14.6129 40.9688 14.8473C40.9688 15.0817 40.8958 15.277 40.75 15.4333C40.6042 15.5895 40.3906 15.6676 40.1094 15.6676C39.8281 15.6676 39.6146 15.5895 39.4688 15.4333C39.3281 15.277 39.2578 15.0817 39.2578 14.8473ZM42.7891 21.2458C42.7891 19.9489 43.0964 18.9072 43.7109 18.1208C44.3255 17.3291 45.1302 16.9333 46.125 16.9333C47.1146 16.9333 47.8984 17.2718 48.4766 17.9489V13.5426H49.9219V25.5426H48.5938L48.5234 24.6364C47.9453 25.3447 47.1406 25.6989 46.1094 25.6989C45.1302 25.6989 44.3307 25.2978 43.7109 24.4958C43.0964 23.6937 42.7891 22.6468 42.7891 21.3551V21.2458ZM44.2344 21.4098C44.2344 22.3682 44.4323 23.1182 44.8281 23.6598C45.224 24.2015 45.7708 24.4723 46.4688 24.4723C47.3854 24.4723 48.0547 24.0609 48.4766 23.2379V19.3551C48.0443 18.5583 47.3802 18.1598 46.4844 18.1598C45.776 18.1598 45.224 18.4333 44.8281 18.9801C44.4323 19.527 44.2344 20.3369 44.2344 21.4098ZM57.3906 25.5426C57.3073 25.376 57.2396 25.0791 57.1875 24.652C56.5156 25.3499 55.7135 25.6989 54.7812 25.6989C53.9479 25.6989 53.263 25.4645 52.7266 24.9958C52.1953 24.5218 51.9297 23.9228 51.9297 23.1989C51.9297 22.3187 52.263 21.6364 52.9297 21.152C53.6016 20.6624 54.5443 20.4176 55.7578 20.4176H57.1641V19.7536C57.1641 19.2484 57.013 18.8473 56.7109 18.5504C56.4089 18.2484 55.9635 18.0973 55.375 18.0973C54.8594 18.0973 54.4271 18.2275 54.0781 18.4879C53.7292 18.7484 53.5547 19.0635 53.5547 19.4333H52.1016C52.1016 19.0114 52.25 18.6051 52.5469 18.2145C52.849 17.8187 53.2552 17.5062 53.7656 17.277C54.2812 17.0478 54.8464 16.9333 55.4609 16.9333C56.4349 16.9333 57.1979 17.178 57.75 17.6676C58.3021 18.152 58.5885 18.8213 58.6094 19.6754V23.5661C58.6094 24.3421 58.7083 24.9593 58.9062 25.4176V25.5426H57.3906ZM54.9922 24.4411C55.4453 24.4411 55.875 24.3239 56.2812 24.0895C56.6875 23.8551 56.9818 23.5504 57.1641 23.1754V21.4411H56.0312C54.2604 21.4411 53.375 21.9593 53.375 22.9958C53.375 23.4489 53.526 23.803 53.8281 24.0583C54.1302 24.3135 54.5182 24.4411 54.9922 24.4411ZM60.5234 21.2458C60.5234 19.9489 60.8307 18.9072 61.4453 18.1208C62.0599 17.3291 62.8646 16.9333 63.8594 16.9333C64.849 16.9333 65.6328 17.2718 66.2109 17.9489V13.5426H67.6562V25.5426H66.3281L66.2578 24.6364C65.6797 25.3447 64.875 25.6989 63.8438 25.6989C62.8646 25.6989 62.0651 25.2978 61.4453 24.4958C60.8307 23.6937 60.5234 22.6468 60.5234 21.3551V21.2458ZM61.9688 21.4098C61.9688 22.3682 62.1667 23.1182 62.5625 23.6598C62.9583 24.2015 63.5052 24.4723 64.2031 24.4723C65.1198 24.4723 65.7891 24.0609 66.2109 23.2379V19.3551C65.7786 18.5583 65.1146 18.1598 64.2188 18.1598C63.5104 18.1598 62.9583 18.4333 62.5625 18.9801C62.1667 19.527 61.9688 20.3369 61.9688 21.4098ZM73.4141 25.6989C72.2682 25.6989 71.3359 25.3239 70.6172 24.5739C69.8984 23.8187 69.5391 22.8109 69.5391 21.5504V21.2848C69.5391 20.4463 69.6979 19.6989 70.0156 19.0426C70.3385 18.3812 70.7865 17.8655 71.3594 17.4958C71.9375 17.1208 72.5625 16.9333 73.2344 16.9333C74.3333 16.9333 75.1875 17.2952 75.7969 18.0192C76.4062 18.7432 76.7109 19.7796 76.7109 21.1286V21.7301H70.9844C71.0052 22.5635 71.2474 23.2379 71.7109 23.7536C72.1797 24.264 72.7734 24.5192 73.4922 24.5192C74.0026 24.5192 74.4349 24.415 74.7891 24.2067C75.1432 23.9984 75.4531 23.7223 75.7188 23.3786L76.6016 24.0661C75.8932 25.1546 74.8307 25.6989 73.4141 25.6989ZM73.2344 18.1208C72.651 18.1208 72.1615 18.3343 71.7656 18.7614C71.3698 19.1833 71.125 19.777 71.0312 20.5426H75.2656V20.4333C75.224 19.6989 75.026 19.1312 74.6719 18.7301C74.3177 18.3239 73.8385 18.1208 73.2344 18.1208ZM83.3125 23.3004C83.3125 22.9098 83.1641 22.6077 82.8672 22.3942C82.5755 22.1754 82.0625 21.9879 81.3281 21.8317C80.599 21.6754 80.0182 21.4879 79.5859 21.2692C79.1589 21.0504 78.8411 20.79 78.6328 20.4879C78.4297 20.1859 78.3281 19.8265 78.3281 19.4098C78.3281 18.7171 78.6198 18.1312 79.2031 17.652C79.7917 17.1728 80.5417 16.9333 81.4531 16.9333C82.4115 16.9333 83.1875 17.1807 83.7812 17.6754C84.3802 18.1702 84.6797 18.803 84.6797 19.5739H83.2266C83.2266 19.178 83.0573 18.8369 82.7188 18.5504C82.3854 18.264 81.9635 18.1208 81.4531 18.1208C80.9271 18.1208 80.5156 18.2353 80.2188 18.4645C79.9219 18.6937 79.7734 18.9932 79.7734 19.3629C79.7734 19.7119 79.9115 19.9749 80.1875 20.152C80.4635 20.3291 80.9609 20.4984 81.6797 20.6598C82.4036 20.8213 82.9896 21.014 83.4375 21.2379C83.8854 21.4619 84.2161 21.7327 84.4297 22.0504C84.6484 22.3629 84.7578 22.7458 84.7578 23.1989C84.7578 23.9541 84.4557 24.5609 83.8516 25.0192C83.2474 25.4723 82.4635 25.6989 81.5 25.6989C80.8229 25.6989 80.224 25.5791 79.7031 25.3395C79.1823 25.0999 78.7734 24.7666 78.4766 24.3395C78.1849 23.9072 78.0391 23.4411 78.0391 22.9411H79.4844C79.5104 23.4254 79.7031 23.8109 80.0625 24.0973C80.4271 24.3786 80.9062 24.5192 81.5 24.5192C82.0469 24.5192 82.4844 24.4098 82.8125 24.1911C83.1458 23.9671 83.3125 23.6702 83.3125 23.3004Z" fill="black"/>
<path d="M26.2656 52.4492H23.7871V56H23.0605V47.4688H25.832C26.7422 47.4688 27.4531 47.6895 27.9648 48.1309C28.4766 48.5723 28.7324 49.1895 28.7324 49.9824C28.7324 50.5293 28.5723 51.0117 28.252 51.4297C27.9316 51.8477 27.502 52.1367 26.9629 52.2969L29.0957 55.9238V56H28.3281L26.2656 52.4492ZM23.7871 51.834H25.9961C26.6016 51.834 27.0879 51.6621 27.4551 51.3184C27.8223 50.9746 28.0059 50.5293 28.0059 49.9824C28.0059 49.3809 27.8145 48.9141 27.4316 48.582C27.0488 48.25 26.5117 48.084 25.8203 48.084H23.7871V51.834ZM32.9863 56.1172C32.4473 56.1172 31.959 55.9844 31.5215 55.7188C31.0879 55.4531 30.75 55.084 30.5078 54.6113C30.2656 54.1348 30.1445 53.6016 30.1445 53.0117V52.7598C30.1445 52.1504 30.2617 51.6016 30.4961 51.1133C30.7344 50.625 31.0645 50.2422 31.4863 49.9648C31.9082 49.6836 32.3652 49.543 32.8574 49.543C33.627 49.543 34.2363 49.8066 34.6855 50.334C35.1387 50.8574 35.3652 51.5742 35.3652 52.4844V52.877H30.8418V53.0117C30.8418 53.7305 31.0469 54.3301 31.457 54.8105C31.8711 55.2871 32.3906 55.5254 33.0156 55.5254C33.3906 55.5254 33.7207 55.457 34.0059 55.3203C34.2949 55.1836 34.5566 54.9648 34.791 54.6641L35.2305 54.998C34.7148 55.7441 33.9668 56.1172 32.9863 56.1172ZM32.8574 50.1406C32.3301 50.1406 31.8848 50.334 31.5215 50.7207C31.1621 51.1074 30.9434 51.627 30.8652 52.2793H34.668V52.2031C34.6484 51.5938 34.4746 51.0977 34.1465 50.7148C33.8184 50.332 33.3887 50.1406 32.8574 50.1406ZM37.8203 48.0371V49.6602H39.1328V50.2344H37.8203V54.459C37.8203 54.8105 37.8828 55.0723 38.0078 55.2441C38.1367 55.416 38.3496 55.502 38.6465 55.502C38.7637 55.502 38.9531 55.4824 39.2148 55.4434L39.2441 56.0176C39.0605 56.084 38.8105 56.1172 38.4941 56.1172C38.0137 56.1172 37.6641 55.9785 37.4453 55.7012C37.2266 55.4199 37.1172 55.0078 37.1172 54.4648V50.2344H35.9512V49.6602H37.1172V48.0371H37.8203ZM40.082 52.7363C40.082 52.127 40.1992 51.5781 40.4336 51.0898C40.6719 50.6016 41.0059 50.2227 41.4355 49.9531C41.8691 49.6797 42.3594 49.543 42.9062 49.543C43.75 49.543 44.4336 49.8398 44.957 50.4336C45.4805 51.0234 45.7422 51.8066 45.7422 52.7832V52.9297C45.7422 53.543 45.623 54.0957 45.3848 54.5879C45.1504 55.0762 44.8184 55.4531 44.3887 55.7188C43.959 55.9844 43.4688 56.1172 42.918 56.1172C42.0781 56.1172 41.3945 55.8223 40.8672 55.2324C40.3438 54.6387 40.082 53.8535 40.082 52.877V52.7363ZM40.7852 52.9297C40.7852 53.6875 40.9805 54.3105 41.3711 54.7988C41.7656 55.2832 42.2812 55.5254 42.918 55.5254C43.5508 55.5254 44.0625 55.2832 44.4531 54.7988C44.8477 54.3105 45.0449 53.668 45.0449 52.8711V52.7363C45.0449 52.252 44.9551 51.8086 44.7754 51.4062C44.5957 51.0039 44.3438 50.6934 44.0195 50.4746C43.6953 50.252 43.3242 50.1406 42.9062 50.1406C42.2812 50.1406 41.7715 50.3867 41.377 50.8789C40.9824 51.3672 40.7852 52.0078 40.7852 52.8008V52.9297ZM47.834 49.6602L47.8574 50.6914C48.0918 50.3086 48.3848 50.0215 48.7363 49.8301C49.0879 49.6387 49.4785 49.543 49.9082 49.543C50.9082 49.543 51.543 49.9531 51.8125 50.7734C52.0391 50.3789 52.3418 50.0762 52.7207 49.8652C53.0996 49.6504 53.5176 49.543 53.9746 49.543C55.334 49.543 56.0273 50.2852 56.0547 51.7695V56H55.3516V51.8223C55.3477 51.2559 55.2246 50.8359 54.9824 50.5625C54.7441 50.2891 54.3535 50.1523 53.8105 50.1523C53.3066 50.1602 52.8809 50.3242 52.5332 50.6445C52.1855 50.9609 51.9922 51.3477 51.9531 51.8047V56H51.25V51.7695C51.2461 51.2266 51.1172 50.8223 50.8633 50.5566C50.6133 50.2871 50.2266 50.1523 49.7031 50.1523C49.2617 50.1523 48.8828 50.2793 48.5664 50.5332C48.25 50.7832 48.0156 51.1562 47.8633 51.6523V56H47.1602V49.6602H47.834ZM61.8379 56C61.7676 55.8008 61.7227 55.5059 61.7031 55.1152C61.457 55.4355 61.1426 55.6836 60.7598 55.8594C60.3809 56.0312 59.9785 56.1172 59.5527 56.1172C58.9434 56.1172 58.4492 55.9473 58.0703 55.6074C57.6953 55.2676 57.5078 54.8379 57.5078 54.3184C57.5078 53.7012 57.7637 53.2129 58.2754 52.8535C58.791 52.4941 59.5078 52.3145 60.4258 52.3145H61.6973V51.5938C61.6973 51.1406 61.5566 50.7852 61.2754 50.5273C60.998 50.2656 60.5918 50.1348 60.0566 50.1348C59.5684 50.1348 59.1641 50.2598 58.8438 50.5098C58.5234 50.7598 58.3633 51.0605 58.3633 51.4121L57.6602 51.4062C57.6602 50.9023 57.8945 50.4668 58.3633 50.0996C58.832 49.7285 59.4082 49.543 60.0918 49.543C60.7988 49.543 61.3555 49.7207 61.7617 50.0762C62.1719 50.4277 62.3828 50.9199 62.3945 51.5527V54.5527C62.3945 55.166 62.459 55.625 62.5879 55.9297V56H61.8379ZM59.6348 55.4961C60.1035 55.4961 60.5215 55.3828 60.8887 55.1562C61.2598 54.9297 61.5293 54.627 61.6973 54.248V52.8535H60.4434C59.7441 52.8613 59.1973 52.9902 58.8027 53.2402C58.4082 53.4863 58.2109 53.8262 58.2109 54.2598C58.2109 54.6152 58.3418 54.9102 58.6035 55.1445C58.8691 55.3789 59.2129 55.4961 59.6348 55.4961ZM64.9082 49.6602L64.9316 50.6914C65.166 50.3086 65.459 50.0215 65.8105 49.8301C66.1621 49.6387 66.5527 49.543 66.9824 49.543C67.9824 49.543 68.6172 49.9531 68.8867 50.7734C69.1133 50.3789 69.416 50.0762 69.7949 49.8652C70.1738 49.6504 70.5918 49.543 71.0488 49.543C72.4082 49.543 73.1016 50.2852 73.1289 51.7695V56H72.4258V51.8223C72.4219 51.2559 72.2988 50.8359 72.0566 50.5625C71.8184 50.2891 71.4277 50.1523 70.8848 50.1523C70.3809 50.1602 69.9551 50.3242 69.6074 50.6445C69.2598 50.9609 69.0664 51.3477 69.0273 51.8047V56H68.3242V51.7695C68.3203 51.2266 68.1914 50.8223 67.9375 50.5566C67.6875 50.2871 67.3008 50.1523 66.7773 50.1523C66.3359 50.1523 65.957 50.2793 65.6406 50.5332C65.3242 50.7832 65.0898 51.1562 64.9375 51.6523V56H64.2344V49.6602H64.9082ZM74.5234 52.7363C74.5234 52.127 74.6406 51.5781 74.875 51.0898C75.1133 50.6016 75.4473 50.2227 75.877 49.9531C76.3105 49.6797 76.8008 49.543 77.3477 49.543C78.1914 49.543 78.875 49.8398 79.3984 50.4336C79.9219 51.0234 80.1836 51.8066 80.1836 52.7832V52.9297C80.1836 53.543 80.0645 54.0957 79.8262 54.5879C79.5918 55.0762 79.2598 55.4531 78.8301 55.7188C78.4004 55.9844 77.9102 56.1172 77.3594 56.1172C76.5195 56.1172 75.8359 55.8223 75.3086 55.2324C74.7852 54.6387 74.5234 53.8535 74.5234 52.877V52.7363ZM75.2266 52.9297C75.2266 53.6875 75.4219 54.3105 75.8125 54.7988C76.207 55.2832 76.7227 55.5254 77.3594 55.5254C77.9922 55.5254 78.5039 55.2832 78.8945 54.7988C79.2891 54.3105 79.4863 53.668 79.4863 52.8711V52.7363C79.4863 52.252 79.3965 51.8086 79.2168 51.4062C79.0371 51.0039 78.7852 50.6934 78.4609 50.4746C78.1367 50.252 77.7656 50.1406 77.3477 50.1406C76.7227 50.1406 76.2129 50.3867 75.8184 50.8789C75.4238 51.3672 75.2266 52.0078 75.2266 52.8008V52.9297ZM85.4336 54.3887C85.4336 54.041 85.293 53.7617 85.0117 53.5508C84.7344 53.3398 84.3145 53.1758 83.752 53.0586C83.1895 52.9375 82.752 52.8008 82.4395 52.6484C82.1309 52.4922 81.9004 52.3027 81.748 52.0801C81.5996 51.8574 81.5254 51.5879 81.5254 51.2715C81.5254 50.7715 81.7344 50.3594 82.1523 50.0352C82.5703 49.707 83.1055 49.543 83.7578 49.543C84.4648 49.543 85.0312 49.7188 85.457 50.0703C85.8867 50.418 86.1016 50.873 86.1016 51.4355H85.3984C85.3984 51.0645 85.2422 50.7559 84.9297 50.5098C84.6211 50.2637 84.2305 50.1406 83.7578 50.1406C83.2969 50.1406 82.9258 50.2441 82.6445 50.4512C82.3672 50.6543 82.2285 50.9199 82.2285 51.248C82.2285 51.5645 82.3438 51.8105 82.5742 51.9863C82.8086 52.1582 83.2324 52.3164 83.8457 52.4609C84.4629 52.6055 84.9238 52.7598 85.2285 52.9238C85.5371 53.0879 85.7656 53.2852 85.9141 53.5156C86.0625 53.7461 86.1367 54.0254 86.1367 54.3535C86.1367 54.8887 85.9199 55.3164 85.4863 55.6367C85.0566 55.957 84.4941 56.1172 83.7988 56.1172C83.0605 56.1172 82.4609 55.9395 82 55.584C81.543 55.2246 81.3145 54.7715 81.3145 54.2246H82.0176C82.0449 54.6348 82.2168 54.9551 82.5332 55.1855C82.8535 55.4121 83.2754 55.5254 83.7988 55.5254C84.2871 55.5254 84.6816 55.418 84.9824 55.2031C85.2832 54.9883 85.4336 54.7168 85.4336 54.3887ZM90.25 52.7363C90.25 52.127 90.3672 51.5781 90.6016 51.0898C90.8398 50.6016 91.1738 50.2227 91.6035 49.9531C92.0371 49.6797 92.5273 49.543 93.0742 49.543C93.918 49.543 94.6016 49.8398 95.125 50.4336C95.6484 51.0234 95.9102 51.8066 95.9102 52.7832V52.9297C95.9102 53.543 95.791 54.0957 95.5527 54.5879C95.3184 55.0762 94.9863 55.4531 94.5566 55.7188C94.127 55.9844 93.6367 56.1172 93.0859 56.1172C92.2461 56.1172 91.5625 55.8223 91.0352 55.2324C90.5117 54.6387 90.25 53.8535 90.25 52.877V52.7363ZM90.9531 52.9297C90.9531 53.6875 91.1484 54.3105 91.5391 54.7988C91.9336 55.2832 92.4492 55.5254 93.0859 55.5254C93.7188 55.5254 94.2305 55.2832 94.6211 54.7988C95.0156 54.3105 95.2129 53.668 95.2129 52.8711V52.7363C95.2129 52.252 95.123 51.8086 94.9434 51.4062C94.7637 51.0039 94.5117 50.6934 94.1875 50.4746C93.8633 50.252 93.4922 50.1406 93.0742 50.1406C92.4492 50.1406 91.9395 50.3867 91.5449 50.8789C91.1504 51.3672 90.9531 52.0078 90.9531 52.8008V52.9297ZM102.625 55.5254C103.113 55.5254 103.521 55.3887 103.85 55.1152C104.182 54.8379 104.361 54.4805 104.389 54.043H105.062C105.043 54.4297 104.922 54.7832 104.699 55.1035C104.477 55.4199 104.18 55.668 103.809 55.8477C103.441 56.0273 103.047 56.1172 102.625 56.1172C101.793 56.1172 101.133 55.8281 100.645 55.25C100.16 54.6719 99.918 53.8945 99.918 52.918V52.707C99.918 52.082 100.027 51.5293 100.246 51.0488C100.465 50.5684 100.777 50.1973 101.184 49.9355C101.594 49.6738 102.072 49.543 102.619 49.543C103.314 49.543 103.887 49.75 104.336 50.1641C104.789 50.5781 105.031 51.123 105.062 51.7988H104.389C104.357 51.3027 104.178 50.9023 103.85 50.5977C103.525 50.293 103.115 50.1406 102.619 50.1406C101.986 50.1406 101.494 50.3691 101.143 50.8262C100.795 51.2832 100.621 51.9238 100.621 52.748V52.9531C100.621 53.7617 100.795 54.3926 101.143 54.8457C101.494 55.2988 101.988 55.5254 102.625 55.5254ZM110.471 56C110.4 55.8008 110.355 55.5059 110.336 55.1152C110.09 55.4355 109.775 55.6836 109.393 55.8594C109.014 56.0312 108.611 56.1172 108.186 56.1172C107.576 56.1172 107.082 55.9473 106.703 55.6074C106.328 55.2676 106.141 54.8379 106.141 54.3184C106.141 53.7012 106.396 53.2129 106.908 52.8535C107.424 52.4941 108.141 52.3145 109.059 52.3145H110.33V51.5938C110.33 51.1406 110.189 50.7852 109.908 50.5273C109.631 50.2656 109.225 50.1348 108.689 50.1348C108.201 50.1348 107.797 50.2598 107.477 50.5098C107.156 50.7598 106.996 51.0605 106.996 51.4121L106.293 51.4062C106.293 50.9023 106.527 50.4668 106.996 50.0996C107.465 49.7285 108.041 49.543 108.725 49.543C109.432 49.543 109.988 49.7207 110.395 50.0762C110.805 50.4277 111.016 50.9199 111.027 51.5527V54.5527C111.027 55.166 111.092 55.625 111.221 55.9297V56H110.471ZM108.268 55.4961C108.736 55.4961 109.154 55.3828 109.521 55.1562C109.893 54.9297 110.162 54.627 110.33 54.248V52.8535H109.076C108.377 52.8613 107.83 52.9902 107.436 53.2402C107.041 53.4863 106.844 53.8262 106.844 54.2598C106.844 54.6152 106.975 54.9102 107.236 55.1445C107.502 55.3789 107.846 55.4961 108.268 55.4961ZM109.65 47H110.5L109.146 48.6406H108.531L109.65 47ZM113.688 56H112.984V47H113.688V56ZM117.941 55.5254C118.43 55.5254 118.838 55.3887 119.166 55.1152C119.498 54.8379 119.678 54.4805 119.705 54.043H120.379C120.359 54.4297 120.238 54.7832 120.016 55.1035C119.793 55.4199 119.496 55.668 119.125 55.8477C118.758 56.0273 118.363 56.1172 117.941 56.1172C117.109 56.1172 116.449 55.8281 115.961 55.25C115.477 54.6719 115.234 53.8945 115.234 52.918V52.707C115.234 52.082 115.344 51.5293 115.562 51.0488C115.781 50.5684 116.094 50.1973 116.5 49.9355C116.91 49.6738 117.389 49.543 117.936 49.543C118.631 49.543 119.203 49.75 119.652 50.1641C120.105 50.5781 120.348 51.123 120.379 51.7988H119.705C119.674 51.3027 119.494 50.9023 119.166 50.5977C118.842 50.293 118.432 50.1406 117.936 50.1406C117.303 50.1406 116.811 50.3691 116.459 50.8262C116.111 51.2832 115.938 51.9238 115.938 52.748V52.9531C115.938 53.7617 116.111 54.3926 116.459 54.8457C116.811 55.2988 117.305 55.5254 117.941 55.5254ZM125.863 55.1973C125.441 55.8105 124.768 56.1172 123.842 56.1172C123.166 56.1172 122.652 55.9219 122.301 55.5312C121.949 55.1367 121.77 54.5547 121.762 53.7852V49.6602H122.459V53.6973C122.459 54.9043 122.947 55.5078 123.924 55.5078C124.939 55.5078 125.582 55.0879 125.852 54.248V49.6602H126.555V56H125.875L125.863 55.1973ZM129.168 56H128.465V47H129.168V56ZM130.691 52.7363C130.691 52.127 130.809 51.5781 131.043 51.0898C131.281 50.6016 131.615 50.2227 132.045 49.9531C132.479 49.6797 132.969 49.543 133.516 49.543C134.359 49.543 135.043 49.8398 135.566 50.4336C136.09 51.0234 136.352 51.8066 136.352 52.7832V52.9297C136.352 53.543 136.232 54.0957 135.994 54.5879C135.76 55.0762 135.428 55.4531 134.998 55.7188C134.568 55.9844 134.078 56.1172 133.527 56.1172C132.688 56.1172 132.004 55.8223 131.477 55.2324C130.953 54.6387 130.691 53.8535 130.691 52.877V52.7363ZM131.395 52.9297C131.395 53.6875 131.59 54.3105 131.98 54.7988C132.375 55.2832 132.891 55.5254 133.527 55.5254C134.16 55.5254 134.672 55.2832 135.062 54.7988C135.457 54.3105 135.654 53.668 135.654 52.8711V52.7363C135.654 52.252 135.564 51.8086 135.385 51.4062C135.205 51.0039 134.953 50.6934 134.629 50.4746C134.305 50.252 133.934 50.1406 133.516 50.1406C132.891 50.1406 132.381 50.3867 131.986 50.8789C131.592 51.3672 131.395 52.0078 131.395 52.8008V52.9297ZM140.441 52.7715C140.441 51.7871 140.66 51.0039 141.098 50.4219C141.539 49.8359 142.137 49.543 142.891 49.543C143.746 49.543 144.398 49.8809 144.848 50.5566V47H145.545V56H144.889L144.859 55.1562C144.41 55.7969 143.75 56.1172 142.879 56.1172C142.148 56.1172 141.559 55.8242 141.109 55.2383C140.664 54.6484 140.441 53.8535 140.441 52.8535V52.7715ZM141.15 52.8945C141.15 53.7031 141.312 54.3418 141.637 54.8105C141.961 55.2754 142.418 55.5078 143.008 55.5078C143.871 55.5078 144.484 55.127 144.848 54.3652V51.3887C144.484 50.5645 143.875 50.1523 143.02 50.1523C142.43 50.1523 141.971 50.3848 141.643 50.8496C141.314 51.3105 141.15 51.9922 141.15 52.8945ZM151.393 56C151.322 55.8008 151.277 55.5059 151.258 55.1152C151.012 55.4355 150.697 55.6836 150.314 55.8594C149.936 56.0312 149.533 56.1172 149.107 56.1172C148.498 56.1172 148.004 55.9473 147.625 55.6074C147.25 55.2676 147.062 54.8379 147.062 54.3184C147.062 53.7012 147.318 53.2129 147.83 52.8535C148.346 52.4941 149.062 52.3145 149.98 52.3145H151.252V51.5938C151.252 51.1406 151.111 50.7852 150.83 50.5273C150.553 50.2656 150.146 50.1348 149.611 50.1348C149.123 50.1348 148.719 50.2598 148.398 50.5098C148.078 50.7598 147.918 51.0605 147.918 51.4121L147.215 51.4062C147.215 50.9023 147.449 50.4668 147.918 50.0996C148.387 49.7285 148.963 49.543 149.646 49.543C150.354 49.543 150.91 49.7207 151.316 50.0762C151.727 50.4277 151.938 50.9199 151.949 51.5527V54.5527C151.949 55.166 152.014 55.625 152.143 55.9297V56H151.393ZM149.189 55.4961C149.658 55.4961 150.076 55.3828 150.443 55.1562C150.814 54.9297 151.084 54.627 151.252 54.248V52.8535H149.998C149.299 52.8613 148.752 52.9902 148.357 53.2402C147.963 53.4863 147.766 53.8262 147.766 54.2598C147.766 54.6152 147.896 54.9102 148.158 55.1445C148.424 55.3789 148.768 55.4961 149.189 55.4961ZM160.539 54.3887C160.539 54.041 160.398 53.7617 160.117 53.5508C159.84 53.3398 159.42 53.1758 158.857 53.0586C158.295 52.9375 157.857 52.8008 157.545 52.6484C157.236 52.4922 157.006 52.3027 156.854 52.0801C156.705 51.8574 156.631 51.5879 156.631 51.2715C156.631 50.7715 156.84 50.3594 157.258 50.0352C157.676 49.707 158.211 49.543 158.863 49.543C159.57 49.543 160.137 49.7188 160.562 50.0703C160.992 50.418 161.207 50.873 161.207 51.4355H160.504C160.504 51.0645 160.348 50.7559 160.035 50.5098C159.727 50.2637 159.336 50.1406 158.863 50.1406C158.402 50.1406 158.031 50.2441 157.75 50.4512C157.473 50.6543 157.334 50.9199 157.334 51.248C157.334 51.5645 157.449 51.8105 157.68 51.9863C157.914 52.1582 158.338 52.3164 158.951 52.4609C159.568 52.6055 160.029 52.7598 160.334 52.9238C160.643 53.0879 160.871 53.2852 161.02 53.5156C161.168 53.7461 161.242 54.0254 161.242 54.3535C161.242 54.8887 161.025 55.3164 160.592 55.6367C160.162 55.957 159.6 56.1172 158.904 56.1172C158.166 56.1172 157.566 55.9395 157.105 55.584C156.648 55.2246 156.42 54.7715 156.42 54.2246H157.123C157.15 54.6348 157.322 54.9551 157.639 55.1855C157.959 55.4121 158.381 55.5254 158.904 55.5254C159.393 55.5254 159.787 55.418 160.088 55.2031C160.389 54.9883 160.539 54.7168 160.539 54.3887ZM166.902 55.1973C166.48 55.8105 165.807 56.1172 164.881 56.1172C164.205 56.1172 163.691 55.9219 163.34 55.5312C162.988 55.1367 162.809 54.5547 162.801 53.7852V49.6602H163.498V53.6973C163.498 54.9043 163.986 55.5078 164.963 55.5078C165.979 55.5078 166.621 55.0879 166.891 54.248V49.6602H167.594V56H166.914L166.902 55.1973ZM173.424 56C173.354 55.8008 173.309 55.5059 173.289 55.1152C173.043 55.4355 172.729 55.6836 172.346 55.8594C171.967 56.0312 171.564 56.1172 171.139 56.1172C170.529 56.1172 170.035 55.9473 169.656 55.6074C169.281 55.2676 169.094 54.8379 169.094 54.3184C169.094 53.7012 169.35 53.2129 169.861 52.8535C170.377 52.4941 171.094 52.3145 172.012 52.3145H173.283V51.5938C173.283 51.1406 173.143 50.7852 172.861 50.5273C172.584 50.2656 172.178 50.1348 171.643 50.1348C171.154 50.1348 170.75 50.2598 170.43 50.5098C170.109 50.7598 169.949 51.0605 169.949 51.4121L169.246 51.4062C169.246 50.9023 169.48 50.4668 169.949 50.0996C170.418 49.7285 170.994 49.543 171.678 49.543C172.385 49.543 172.941 49.7207 173.348 50.0762C173.758 50.4277 173.969 50.9199 173.98 51.5527V54.5527C173.98 55.166 174.045 55.625 174.174 55.9297V56H173.424ZM171.221 55.4961C171.689 55.4961 172.107 55.3828 172.475 55.1562C172.846 54.9297 173.115 54.627 173.283 54.248V52.8535H172.029C171.33 52.8613 170.783 52.9902 170.389 53.2402C169.994 53.4863 169.797 53.8262 169.797 54.2598C169.797 54.6152 169.928 54.9102 170.189 55.1445C170.455 55.3789 170.799 55.4961 171.221 55.4961ZM181.703 50.2578C181.555 50.2305 181.396 50.2168 181.229 50.2168C180.791 50.2168 180.42 50.3398 180.115 50.5859C179.814 50.8281 179.6 51.1816 179.471 51.6465V56H178.773V49.6602H179.459L179.471 50.668C179.842 49.918 180.438 49.543 181.258 49.543C181.453 49.543 181.607 49.5684 181.721 49.6191L181.703 50.2578ZM185.154 56.1172C184.615 56.1172 184.127 55.9844 183.689 55.7188C183.256 55.4531 182.918 55.084 182.676 54.6113C182.434 54.1348 182.312 53.6016 182.312 53.0117V52.7598C182.312 52.1504 182.43 51.6016 182.664 51.1133C182.902 50.625 183.232 50.2422 183.654 49.9648C184.076 49.6836 184.533 49.543 185.025 49.543C185.795 49.543 186.404 49.8066 186.854 50.334C187.307 50.8574 187.533 51.5742 187.533 52.4844V52.877H183.01V53.0117C183.01 53.7305 183.215 54.3301 183.625 54.8105C184.039 55.2871 184.559 55.5254 185.184 55.5254C185.559 55.5254 185.889 55.457 186.174 55.3203C186.463 55.1836 186.725 54.9648 186.959 54.6641L187.398 54.998C186.883 55.7441 186.135 56.1172 185.154 56.1172ZM185.025 50.1406C184.498 50.1406 184.053 50.334 183.689 50.7207C183.33 51.1074 183.111 51.627 183.033 52.2793H186.836V52.2031C186.816 51.5938 186.643 51.0977 186.314 50.7148C185.986 50.332 185.557 50.1406 185.025 50.1406ZM193.996 52.8945C193.996 53.8828 193.777 54.668 193.34 55.25C192.902 55.8281 192.316 56.1172 191.582 56.1172C190.715 56.1172 190.051 55.8125 189.59 55.2031V58.4375H188.893V49.6602H189.543L189.578 50.5566C190.035 49.8809 190.697 49.543 191.564 49.543C192.322 49.543 192.916 49.8301 193.346 50.4043C193.779 50.9785 193.996 51.7754 193.996 52.7949V52.8945ZM193.293 52.7715C193.293 51.9629 193.127 51.3242 192.795 50.8555C192.463 50.3867 192 50.1523 191.406 50.1523C190.977 50.1523 190.607 50.2559 190.299 50.4629C189.99 50.6699 189.754 50.9707 189.59 51.3652V54.4062C189.758 54.7695 189.998 55.0469 190.311 55.2383C190.623 55.4297 190.992 55.5254 191.418 55.5254C192.008 55.5254 192.467 55.291 192.795 54.8223C193.127 54.3496 193.293 53.666 193.293 52.7715ZM199.633 55.1973C199.211 55.8105 198.537 56.1172 197.611 56.1172C196.936 56.1172 196.422 55.9219 196.07 55.5312C195.719 55.1367 195.539 54.5547 195.531 53.7852V49.6602H196.229V53.6973C196.229 54.9043 196.717 55.5078 197.693 55.5078C198.709 55.5078 199.352 55.0879 199.621 54.248V49.6602H200.324V56H199.645L199.633 55.1973ZM203.242 48.0371V49.6602H204.555V50.2344H203.242V54.459C203.242 54.8105 203.305 55.0723 203.43 55.2441C203.559 55.416 203.771 55.502 204.068 55.502C204.186 55.502 204.375 55.4824 204.637 55.4434L204.666 56.0176C204.482 56.084 204.232 56.1172 203.916 56.1172C203.436 56.1172 203.086 55.9785 202.867 55.7012C202.648 55.4199 202.539 55.0078 202.539 54.4648V50.2344H201.373V49.6602H202.539V48.0371H203.242ZM210.01 56C209.939 55.8008 209.895 55.5059 209.875 55.1152C209.629 55.4355 209.314 55.6836 208.932 55.8594C208.553 56.0312 208.15 56.1172 207.725 56.1172C207.115 56.1172 206.621 55.9473 206.242 55.6074C205.867 55.2676 205.68 54.8379 205.68 54.3184C205.68 53.7012 205.936 53.2129 206.447 52.8535C206.963 52.4941 207.68 52.3145 208.598 52.3145H209.869V51.5938C209.869 51.1406 209.729 50.7852 209.447 50.5273C209.17 50.2656 208.764 50.1348 208.229 50.1348C207.74 50.1348 207.336 50.2598 207.016 50.5098C206.695 50.7598 206.535 51.0605 206.535 51.4121L205.832 51.4062C205.832 50.9023 206.066 50.4668 206.535 50.0996C207.004 49.7285 207.58 49.543 208.264 49.543C208.971 49.543 209.527 49.7207 209.934 50.0762C210.344 50.4277 210.555 50.9199 210.566 51.5527V54.5527C210.566 55.166 210.631 55.625 210.76 55.9297V56H210.01ZM207.807 55.4961C208.275 55.4961 208.693 55.3828 209.061 55.1562C209.432 54.9297 209.701 54.627 209.869 54.248V52.8535H208.615C207.916 52.8613 207.369 52.9902 206.975 53.2402C206.58 53.4863 206.383 53.8262 206.383 54.2598C206.383 54.6152 206.514 54.9102 206.775 55.1445C207.041 55.3789 207.385 55.4961 207.807 55.4961ZM214.785 55.5254C215.273 55.5254 215.682 55.3887 216.01 55.1152C216.342 54.8379 216.521 54.4805 216.549 54.043H217.223C217.203 54.4297 217.082 54.7832 216.859 55.1035C216.637 55.4199 216.34 55.668 215.969 55.8477C215.602 56.0273 215.207 56.1172 214.785 56.1172C213.953 56.1172 213.293 55.8281 212.805 55.25C212.32 54.6719 212.078 53.8945 212.078 52.918V52.707C212.078 52.082 212.188 51.5293 212.406 51.0488C212.625 50.5684 212.938 50.1973 213.344 49.9355C213.754 49.6738 214.232 49.543 214.779 49.543C215.475 49.543 216.047 49.75 216.496 50.1641C216.949 50.5781 217.191 51.123 217.223 51.7988H216.549C216.518 51.3027 216.338 50.9023 216.01 50.5977C215.686 50.293 215.275 50.1406 214.779 50.1406C214.146 50.1406 213.654 50.3691 213.303 50.8262C212.955 51.2832 212.781 51.9238 212.781 52.748V52.9531C212.781 53.7617 212.955 54.3926 213.303 54.8457C213.654 55.2988 214.148 55.5254 214.785 55.5254ZM214.979 56.0527L214.908 56.4277C215.553 56.5098 215.875 56.8438 215.875 57.4297C215.875 57.7891 215.721 58.0742 215.412 58.2852C215.104 58.4961 214.684 58.6016 214.152 58.6016L214.111 58.1445C214.459 58.1445 214.742 58.0801 214.961 57.9512C215.184 57.8262 215.295 57.6562 215.295 57.4414C215.295 57.2148 215.209 57.0586 215.037 56.9727C214.869 56.8867 214.611 56.8281 214.264 56.7969L214.434 56.0527H214.979ZM222.631 56C222.561 55.8008 222.516 55.5059 222.496 55.1152C222.25 55.4355 221.936 55.6836 221.553 55.8594C221.174 56.0312 220.771 56.1172 220.346 56.1172C219.736 56.1172 219.242 55.9473 218.863 55.6074C218.488 55.2676 218.301 54.8379 218.301 54.3184C218.301 53.7012 218.557 53.2129 219.068 52.8535C219.584 52.4941 220.301 52.3145 221.219 52.3145H222.49V51.5938C222.49 51.1406 222.35 50.7852 222.068 50.5273C221.791 50.2656 221.385 50.1348 220.85 50.1348C220.361 50.1348 219.957 50.2598 219.637 50.5098C219.316 50.7598 219.156 51.0605 219.156 51.4121L218.453 51.4062C218.453 50.9023 218.688 50.4668 219.156 50.0996C219.625 49.7285 220.201 49.543 220.885 49.543C221.592 49.543 222.148 49.7207 222.555 50.0762C222.965 50.4277 223.176 50.9199 223.188 51.5527V54.5527C223.188 55.166 223.252 55.625 223.381 55.9297V56H222.631ZM220.428 55.4961C220.896 55.4961 221.314 55.3828 221.682 55.1562C222.053 54.9297 222.322 54.627 222.49 54.248V52.8535H221.236C220.537 52.8613 219.99 52.9902 219.596 53.2402C219.201 53.4863 219.004 53.8262 219.004 54.2598C219.004 54.6152 219.135 54.9102 219.396 55.1445C219.662 55.3789 220.006 55.4961 220.428 55.4961ZM223.105 47.2461C223.105 47.6211 222.994 47.9238 222.771 48.1543C222.553 48.3809 222.283 48.4941 221.963 48.4941C221.666 48.4941 221.375 48.3867 221.09 48.1719C220.809 47.957 220.557 47.8496 220.334 47.8496C220.15 47.8496 219.996 47.9102 219.871 48.0312C219.75 48.1523 219.689 48.3223 219.689 48.541L219.162 48.5234C219.162 48.1641 219.268 47.8672 219.479 47.6328C219.693 47.3984 219.969 47.2812 220.305 47.2812C220.492 47.2812 220.652 47.3145 220.785 47.3809C220.918 47.4473 221.043 47.5215 221.16 47.6035C221.277 47.6855 221.395 47.7598 221.512 47.8262C221.633 47.8926 221.773 47.9258 221.934 47.9258C222.113 47.9258 222.266 47.8613 222.391 47.7324C222.52 47.6035 222.584 47.4297 222.584 47.2109L223.105 47.2461ZM224.676 52.7363C224.676 52.127 224.793 51.5781 225.027 51.0898C225.266 50.6016 225.6 50.2227 226.029 49.9531C226.463 49.6797 226.953 49.543 227.5 49.543C228.344 49.543 229.027 49.8398 229.551 50.4336C230.074 51.0234 230.336 51.8066 230.336 52.7832V52.9297C230.336 53.543 230.217 54.0957 229.979 54.5879C229.744 55.0762 229.412 55.4531 228.982 55.7188C228.553 55.9844 228.062 56.1172 227.512 56.1172C226.672 56.1172 225.988 55.8223 225.461 55.2324C224.938 54.6387 224.676 53.8535 224.676 52.877V52.7363ZM225.379 52.9297C225.379 53.6875 225.574 54.3105 225.965 54.7988C226.359 55.2832 226.875 55.5254 227.512 55.5254C228.145 55.5254 228.656 55.2832 229.047 54.7988C229.441 54.3105 229.639 53.668 229.639 52.8711V52.7363C229.639 52.252 229.549 51.8086 229.369 51.4062C229.189 51.0039 228.938 50.6934 228.613 50.4746C228.289 50.252 227.918 50.1406 227.5 50.1406C226.875 50.1406 226.365 50.3867 225.971 50.8789C225.576 51.3672 225.379 52.0078 225.379 52.8008V52.9297ZM238.709 56C238.639 55.8008 238.594 55.5059 238.574 55.1152C238.328 55.4355 238.014 55.6836 237.631 55.8594C237.252 56.0312 236.85 56.1172 236.424 56.1172C235.814 56.1172 235.32 55.9473 234.941 55.6074C234.566 55.2676 234.379 54.8379 234.379 54.3184C234.379 53.7012 234.635 53.2129 235.146 52.8535C235.662 52.4941 236.379 52.3145 237.297 52.3145H238.568V51.5938C238.568 51.1406 238.428 50.7852 238.146 50.5273C237.869 50.2656 237.463 50.1348 236.928 50.1348C236.439 50.1348 236.035 50.2598 235.715 50.5098C235.395 50.7598 235.234 51.0605 235.234 51.4121L234.531 51.4062C234.531 50.9023 234.766 50.4668 235.234 50.0996C235.703 49.7285 236.279 49.543 236.963 49.543C237.67 49.543 238.227 49.7207 238.633 50.0762C239.043 50.4277 239.254 50.9199 239.266 51.5527V54.5527C239.266 55.166 239.33 55.625 239.459 55.9297V56H238.709ZM236.506 55.4961C236.975 55.4961 237.393 55.3828 237.76 55.1562C238.131 54.9297 238.4 54.627 238.568 54.248V52.8535H237.314C236.615 52.8613 236.068 52.9902 235.674 53.2402C235.279 53.4863 235.082 53.8262 235.082 54.2598C235.082 54.6152 235.213 54.9102 235.475 55.1445C235.74 55.3789 236.084 55.4961 236.506 55.4961ZM28.0117 66.8945C28.0117 67.8828 27.793 68.668 27.3555 69.25C26.918 69.8281 26.332 70.1172 25.5977 70.1172C24.7305 70.1172 24.0664 69.8125 23.6055 69.2031V72.4375H22.9082V63.6602H23.5586L23.5938 64.5566C24.0508 63.8809 24.7129 63.543 25.5801 63.543C26.3379 63.543 26.9316 63.8301 27.3613 64.4043C27.7949 64.9785 28.0117 65.7754 28.0117 66.7949V66.8945ZM27.3086 66.7715C27.3086 65.9629 27.1426 65.3242 26.8105 64.8555C26.4785 64.3867 26.0156 64.1523 25.4219 64.1523C24.9922 64.1523 24.623 64.2559 24.3145 64.4629C24.0059 64.6699 23.7695 64.9707 23.6055 65.3652V68.4062C23.7734 68.7695 24.0137 69.0469 24.3262 69.2383C24.6387 69.4297 25.0078 69.5254 25.4336 69.5254C26.0234 69.5254 26.4824 69.291 26.8105 68.8223C27.1426 68.3496 27.3086 67.666 27.3086 66.7715ZM33.5723 70C33.502 69.8008 33.457 69.5059 33.4375 69.1152C33.1914 69.4355 32.877 69.6836 32.4941 69.8594C32.1152 70.0312 31.7129 70.1172 31.2871 70.1172C30.6777 70.1172 30.1836 69.9473 29.8047 69.6074C29.4297 69.2676 29.2422 68.8379 29.2422 68.3184C29.2422 67.7012 29.498 67.2129 30.0098 66.8535C30.5254 66.4941 31.2422 66.3145 32.1602 66.3145H33.4316V65.5938C33.4316 65.1406 33.291 64.7852 33.0098 64.5273C32.7324 64.2656 32.3262 64.1348 31.791 64.1348C31.3027 64.1348 30.8984 64.2598 30.5781 64.5098C30.2578 64.7598 30.0977 65.0605 30.0977 65.4121L29.3945 65.4062C29.3945 64.9023 29.6289 64.4668 30.0977 64.0996C30.5664 63.7285 31.1426 63.543 31.8262 63.543C32.5332 63.543 33.0898 63.7207 33.4961 64.0762C33.9062 64.4277 34.1172 64.9199 34.1289 65.5527V68.5527C34.1289 69.166 34.1934 69.625 34.3223 69.9297V70H33.5723ZM31.3691 69.4961C31.8379 69.4961 32.2559 69.3828 32.623 69.1562C32.9941 68.9297 33.2637 68.627 33.4316 68.248V66.8535H32.1777C31.4785 66.8613 30.9316 66.9902 30.5371 67.2402C30.1426 67.4863 29.9453 67.8262 29.9453 68.2598C29.9453 68.6152 30.0762 68.9102 30.3379 69.1445C30.6035 69.3789 30.9473 69.4961 31.3691 69.4961ZM38.9336 64.2578C38.7852 64.2305 38.627 64.2168 38.459 64.2168C38.0215 64.2168 37.6504 64.3398 37.3457 64.5859C37.0449 64.8281 36.8301 65.1816 36.7012 65.6465V70H36.0039V63.6602H36.6895L36.7012 64.668C37.0723 63.918 37.668 63.543 38.4883 63.543C38.6836 63.543 38.8379 63.5684 38.9512 63.6191L38.9336 64.2578ZM41.4297 62.0371V63.6602H42.7422V64.2344H41.4297V68.459C41.4297 68.8105 41.4922 69.0723 41.6172 69.2441C41.7461 69.416 41.959 69.502 42.2559 69.502C42.373 69.502 42.5625 69.4824 42.8242 69.4434L42.8535 70.0176C42.6699 70.084 42.4199 70.1172 42.1035 70.1172C41.623 70.1172 41.2734 69.9785 41.0547 69.7012C40.8359 69.4199 40.7266 69.0078 40.7266 68.4648V64.2344H39.5605V63.6602H40.7266V62.0371H41.4297ZM44.9805 70H44.2773V63.6602H44.9805V70ZM44.1543 61.8262C44.1543 61.6934 44.1973 61.582 44.2832 61.4922C44.3691 61.3984 44.4863 61.3516 44.6348 61.3516C44.7832 61.3516 44.9004 61.3984 44.9863 61.4922C45.0762 61.582 45.1211 61.6934 45.1211 61.8262C45.1211 61.959 45.0762 62.0703 44.9863 62.1602C44.9004 62.25 44.7832 62.2949 44.6348 62.2949C44.4863 62.2949 44.3691 62.25 44.2832 62.1602C44.1973 62.0703 44.1543 61.959 44.1543 61.8262ZM49.8203 64.2578C49.6719 64.2305 49.5137 64.2168 49.3457 64.2168C48.9082 64.2168 48.5371 64.3398 48.2324 64.5859C47.9316 64.8281 47.7168 65.1816 47.5879 65.6465V70H46.8906V63.6602H47.5762L47.5879 64.668C47.959 63.918 48.5547 63.543 49.375 63.543C49.5703 63.543 49.7246 63.5684 49.8379 63.6191L49.8203 64.2578ZM53.5703 66.7715C53.5703 65.7871 53.7891 65.0039 54.2266 64.4219C54.668 63.8359 55.2656 63.543 56.0195 63.543C56.875 63.543 57.5273 63.8809 57.9766 64.5566V61H58.6738V70H58.0176L57.9883 69.1562C57.5391 69.7969 56.8789 70.1172 56.0078 70.1172C55.2773 70.1172 54.6875 69.8242 54.2383 69.2383C53.793 68.6484 53.5703 67.8535 53.5703 66.8535V66.7715ZM54.2793 66.8945C54.2793 67.7031 54.4414 68.3418 54.7656 68.8105C55.0898 69.2754 55.5469 69.5078 56.1367 69.5078C57 69.5078 57.6133 69.127 57.9766 68.3652V65.3887C57.6133 64.5645 57.0039 64.1523 56.1484 64.1523C55.5586 64.1523 55.0996 64.3848 54.7715 64.8496C54.4434 65.3105 54.2793 65.9922 54.2793 66.8945ZM60.1328 66.7363C60.1328 66.127 60.25 65.5781 60.4844 65.0898C60.7227 64.6016 61.0566 64.2227 61.4863 63.9531C61.9199 63.6797 62.4102 63.543 62.957 63.543C63.8008 63.543 64.4844 63.8398 65.0078 64.4336C65.5312 65.0234 65.793 65.8066 65.793 66.7832V66.9297C65.793 67.543 65.6738 68.0957 65.4355 68.5879C65.2012 69.0762 64.8691 69.4531 64.4395 69.7188C64.0098 69.9844 63.5195 70.1172 62.9688 70.1172C62.1289 70.1172 61.4453 69.8223 60.918 69.2324C60.3945 68.6387 60.1328 67.8535 60.1328 66.877V66.7363ZM60.8359 66.9297C60.8359 67.6875 61.0312 68.3105 61.4219 68.7988C61.8164 69.2832 62.332 69.5254 62.9688 69.5254C63.6016 69.5254 64.1133 69.2832 64.5039 68.7988C64.8984 68.3105 65.0957 67.668 65.0957 66.8711V66.7363C65.0957 66.252 65.0059 65.8086 64.8262 65.4062C64.6465 65.0039 64.3945 64.6934 64.0703 64.4746C63.7461 64.252 63.375 64.1406 62.957 64.1406C62.332 64.1406 61.8223 64.3867 61.4277 64.8789C61.0332 65.3672 60.8359 66.0078 60.8359 66.8008V66.9297ZM69.8828 66.7715C69.8828 65.7871 70.1016 65.0039 70.5391 64.4219C70.9805 63.8359 71.5781 63.543 72.332 63.543C73.1875 63.543 73.8398 63.8809 74.2891 64.5566V61H74.9863V70H74.3301L74.3008 69.1562C73.8516 69.7969 73.1914 70.1172 72.3203 70.1172C71.5898 70.1172 71 69.8242 70.5508 69.2383C70.1055 68.6484 69.8828 67.8535 69.8828 66.8535V66.7715ZM70.5918 66.8945C70.5918 67.7031 70.7539 68.3418 71.0781 68.8105C71.4023 69.2754 71.8594 69.5078 72.4492 69.5078C73.3125 69.5078 73.9258 69.127 74.2891 68.3652V65.3887C73.9258 64.5645 73.3164 64.1523 72.4609 64.1523C71.8711 64.1523 71.4121 64.3848 71.084 64.8496C70.7559 65.3105 70.5918 65.9922 70.5918 66.8945ZM77.6172 70H76.9141V63.6602H77.6172V70ZM76.791 61.8262C76.791 61.6934 76.834 61.582 76.9199 61.4922C77.0059 61.3984 77.123 61.3516 77.2715 61.3516C77.4199 61.3516 77.5371 61.3984 77.623 61.4922C77.7129 61.582 77.7578 61.6934 77.7578 61.8262C77.7578 61.959 77.7129 62.0703 77.623 62.1602C77.5371 62.25 77.4199 62.2949 77.2715 62.2949C77.123 62.2949 77.0059 62.25 76.9199 62.1602C76.834 62.0703 76.791 61.959 76.791 61.8262ZM83.5293 70C83.459 69.8008 83.4141 69.5059 83.3945 69.1152C83.1484 69.4355 82.834 69.6836 82.4512 69.8594C82.0723 70.0312 81.6699 70.1172 81.2441 70.1172C80.6348 70.1172 80.1406 69.9473 79.7617 69.6074C79.3867 69.2676 79.1992 68.8379 79.1992 68.3184C79.1992 67.7012 79.4551 67.2129 79.9668 66.8535C80.4824 66.4941 81.1992 66.3145 82.1172 66.3145H83.3887V65.5938C83.3887 65.1406 83.248 64.7852 82.9668 64.5273C82.6895 64.2656 82.2832 64.1348 81.748 64.1348C81.2598 64.1348 80.8555 64.2598 80.5352 64.5098C80.2148 64.7598 80.0547 65.0605 80.0547 65.4121L79.3516 65.4062C79.3516 64.9023 79.5859 64.4668 80.0547 64.0996C80.5234 63.7285 81.0996 63.543 81.7832 63.543C82.4902 63.543 83.0469 63.7207 83.4531 64.0762C83.8633 64.4277 84.0742 64.9199 84.0859 65.5527V68.5527C84.0859 69.166 84.1504 69.625 84.2793 69.9297V70H83.5293ZM81.3262 69.4961C81.7949 69.4961 82.2129 69.3828 82.5801 69.1562C82.9512 68.9297 83.2207 68.627 83.3887 68.248V66.8535H82.1348C81.4355 66.8613 80.8887 66.9902 80.4941 67.2402C80.0996 67.4863 79.9023 67.8262 79.9023 68.2598C79.9023 68.6152 80.0332 68.9102 80.2949 69.1445C80.5605 69.3789 80.9043 69.4961 81.3262 69.4961ZM94.1113 70H88.7676V69.4609L91.6914 66.1445C92.1758 65.5859 92.5117 65.125 92.6992 64.7617C92.8867 64.3984 92.9805 64.0449 92.9805 63.7012C92.9805 63.1621 92.8223 62.7363 92.5059 62.4238C92.1895 62.1074 91.7539 61.9492 91.1992 61.9492C90.625 61.9492 90.1602 62.1328 89.8047 62.5C89.4531 62.8672 89.2773 63.3438 89.2773 63.9297H88.5801C88.5801 63.4492 88.6875 63.0117 88.9023 62.6172C89.1211 62.2227 89.4297 61.9141 89.8281 61.6914C90.2305 61.4648 90.6875 61.3516 91.1992 61.3516C91.9805 61.3516 92.5898 61.5566 93.0273 61.9668C93.4688 62.377 93.6895 62.9355 93.6895 63.6426C93.6895 64.041 93.5645 64.4766 93.3145 64.9492C93.0684 65.4219 92.6328 66.0117 92.0078 66.7188L89.6289 69.4082H94.1113V70ZM100.68 61.873L97.0352 70H96.3027L99.9238 62.0664H95.0723V61.4688H100.68V61.873ZM104.828 66.7715C104.828 65.7871 105.047 65.0039 105.484 64.4219C105.926 63.8359 106.523 63.543 107.277 63.543C108.133 63.543 108.785 63.8809 109.234 64.5566V61H109.932V70H109.275L109.246 69.1562C108.797 69.7969 108.137 70.1172 107.266 70.1172C106.535 70.1172 105.945 69.8242 105.496 69.2383C105.051 68.6484 104.828 67.8535 104.828 66.8535V66.7715ZM105.537 66.8945C105.537 67.7031 105.699 68.3418 106.023 68.8105C106.348 69.2754 106.805 69.5078 107.395 69.5078C108.258 69.5078 108.871 69.127 109.234 68.3652V65.3887C108.871 64.5645 108.262 64.1523 107.406 64.1523C106.816 64.1523 106.357 64.3848 106.029 64.8496C105.701 65.3105 105.537 65.9922 105.537 66.8945ZM114.232 70.1172C113.693 70.1172 113.205 69.9844 112.768 69.7188C112.334 69.4531 111.996 69.084 111.754 68.6113C111.512 68.1348 111.391 67.6016 111.391 67.0117V66.7598C111.391 66.1504 111.508 65.6016 111.742 65.1133C111.98 64.625 112.311 64.2422 112.732 63.9648C113.154 63.6836 113.611 63.543 114.104 63.543C114.873 63.543 115.482 63.8066 115.932 64.334C116.385 64.8574 116.611 65.5742 116.611 66.4844V66.877H112.088V67.0117C112.088 67.7305 112.293 68.3301 112.703 68.8105C113.117 69.2871 113.637 69.5254 114.262 69.5254C114.637 69.5254 114.967 69.457 115.252 69.3203C115.541 69.1836 115.803 68.9648 116.037 68.6641L116.477 68.998C115.961 69.7441 115.213 70.1172 114.232 70.1172ZM114.104 64.1406C113.576 64.1406 113.131 64.334 112.768 64.7207C112.408 65.1074 112.189 65.627 112.111 66.2793H115.914V66.2031C115.895 65.5938 115.721 65.0977 115.393 64.7148C115.064 64.332 114.635 64.1406 114.104 64.1406ZM124.896 70C124.826 69.8008 124.781 69.5059 124.762 69.1152C124.516 69.4355 124.201 69.6836 123.818 69.8594C123.439 70.0312 123.037 70.1172 122.611 70.1172C122.002 70.1172 121.508 69.9473 121.129 69.6074C120.754 69.2676 120.566 68.8379 120.566 68.3184C120.566 67.7012 120.822 67.2129 121.334 66.8535C121.85 66.4941 122.566 66.3145 123.484 66.3145H124.756V65.5938C124.756 65.1406 124.615 64.7852 124.334 64.5273C124.057 64.2656 123.65 64.1348 123.115 64.1348C122.627 64.1348 122.223 64.2598 121.902 64.5098C121.582 64.7598 121.422 65.0605 121.422 65.4121L120.719 65.4062C120.719 64.9023 120.953 64.4668 121.422 64.0996C121.891 63.7285 122.467 63.543 123.15 63.543C123.857 63.543 124.414 63.7207 124.82 64.0762C125.23 64.4277 125.441 64.9199 125.453 65.5527V68.5527C125.453 69.166 125.518 69.625 125.646 69.9297V70H124.896ZM122.693 69.4961C123.162 69.4961 123.58 69.3828 123.947 69.1562C124.318 68.9297 124.588 68.627 124.756 68.248V66.8535H123.502C122.803 66.8613 122.256 66.9902 121.861 67.2402C121.467 67.4863 121.27 67.8262 121.27 68.2598C121.27 68.6152 121.4 68.9102 121.662 69.1445C121.928 69.3789 122.271 69.4961 122.693 69.4961ZM132.432 66.8945C132.432 67.8828 132.213 68.668 131.775 69.25C131.338 69.8281 130.75 70.1172 130.012 70.1172C129.129 70.1172 128.461 69.7891 128.008 69.1328L127.979 70H127.322V61H128.02V64.5801C128.465 63.8887 129.125 63.543 130 63.543C130.75 63.543 131.342 63.8301 131.775 64.4043C132.213 64.9746 132.432 65.7695 132.432 66.7891V66.8945ZM131.729 66.7715C131.729 65.9355 131.566 65.291 131.242 64.8379C130.918 64.3809 130.461 64.1523 129.871 64.1523C129.422 64.1523 129.041 64.2637 128.729 64.4863C128.416 64.7051 128.18 65.0273 128.02 65.4531V68.3125C128.371 69.1094 128.992 69.5078 129.883 69.5078C130.461 69.5078 130.912 69.2793 131.236 68.8223C131.564 68.3652 131.729 67.6816 131.729 66.7715ZM136.914 64.2578C136.766 64.2305 136.607 64.2168 136.439 64.2168C136.002 64.2168 135.631 64.3398 135.326 64.5859C135.025 64.8281 134.811 65.1816 134.682 65.6465V70H133.984V63.6602H134.67L134.682 64.668C135.053 63.918 135.648 63.543 136.469 63.543C136.664 63.543 136.818 63.5684 136.932 63.6191L136.914 64.2578ZM138.812 70H138.109V63.6602H138.812V70ZM137.986 61.8262C137.986 61.6934 138.029 61.582 138.115 61.4922C138.201 61.3984 138.318 61.3516 138.467 61.3516C138.615 61.3516 138.732 61.3984 138.818 61.4922C138.908 61.582 138.953 61.6934 138.953 61.8262C138.953 61.959 138.908 62.0703 138.818 62.1602C138.732 62.25 138.615 62.2949 138.467 62.2949C138.318 62.2949 138.201 62.25 138.115 62.1602C138.029 62.0703 137.986 61.959 137.986 61.8262ZM141.508 70H140.805V61H141.508V70Z" fill="black"/>
<path d="M23.0332 91.4688L26.1797 98.998L29.3379 91.4688H30.2988V100H29.5781V96.2852L29.6367 92.4766L26.4609 100H25.9043L22.7402 92.5059L22.7988 96.2617V100H22.0781V91.4688H23.0332ZM36.375 99.1973C35.9531 99.8105 35.2793 100.117 34.3535 100.117C33.6777 100.117 33.1641 99.9219 32.8125 99.5312C32.4609 99.1367 32.2812 98.5547 32.2734 97.7852V93.6602H32.9707V97.6973C32.9707 98.9043 33.459 99.5078 34.4355 99.5078C35.4512 99.5078 36.0938 99.0879 36.3633 98.248V93.6602H37.0664V100H36.3867L36.375 99.1973ZM38.6133 96.7715C38.6133 95.7871 38.832 95.0039 39.2695 94.4219C39.7109 93.8359 40.3086 93.543 41.0625 93.543C41.918 93.543 42.5703 93.8809 43.0195 94.5566V91H43.7168V100H43.0605L43.0312 99.1562C42.582 99.7969 41.9219 100.117 41.0508 100.117C40.3203 100.117 39.7305 99.8242 39.2812 99.2383C38.8359 98.6484 38.6133 97.8535 38.6133 96.8535V96.7715ZM39.3223 96.8945C39.3223 97.7031 39.4844 98.3418 39.8086 98.8105C40.1328 99.2754 40.5898 99.5078 41.1797 99.5078C42.043 99.5078 42.6562 99.127 43.0195 98.3652V95.3887C42.6562 94.5645 42.0469 94.1523 41.1914 94.1523C40.6016 94.1523 40.1426 94.3848 39.8145 94.8496C39.4863 95.3105 39.3223 95.9922 39.3223 96.8945ZM49.5645 100C49.4941 99.8008 49.4492 99.5059 49.4297 99.1152C49.1836 99.4355 48.8691 99.6836 48.4863 99.8594C48.1074 100.031 47.7051 100.117 47.2793 100.117C46.6699 100.117 46.1758 99.9473 45.7969 99.6074C45.4219 99.2676 45.2344 98.8379 45.2344 98.3184C45.2344 97.7012 45.4902 97.2129 46.002 96.8535C46.5176 96.4941 47.2344 96.3145 48.1523 96.3145H49.4238V95.5938C49.4238 95.1406 49.2832 94.7852 49.002 94.5273C48.7246 94.2656 48.3184 94.1348 47.7832 94.1348C47.2949 94.1348 46.8906 94.2598 46.5703 94.5098C46.25 94.7598 46.0898 95.0605 46.0898 95.4121L45.3867 95.4062C45.3867 94.9023 45.6211 94.4668 46.0898 94.0996C46.5586 93.7285 47.1348 93.543 47.8184 93.543C48.5254 93.543 49.082 93.7207 49.4883 94.0762C49.8984 94.4277 50.1094 94.9199 50.1211 95.5527V98.5527C50.1211 99.166 50.1855 99.625 50.3145 99.9297V100H49.5645ZM47.3613 99.4961C47.8301 99.4961 48.248 99.3828 48.6152 99.1562C48.9863 98.9297 49.2559 98.627 49.4238 98.248V96.8535H48.1699C47.4707 96.8613 46.9238 96.9902 46.5293 97.2402C46.1348 97.4863 45.9375 97.8262 45.9375 98.2598C45.9375 98.6152 46.0684 98.9102 46.3301 99.1445C46.5957 99.3789 46.9395 99.4961 47.3613 99.4961ZM52.6348 93.6602L52.6582 94.6914C52.8926 94.3086 53.1855 94.0215 53.5371 93.8301C53.8887 93.6387 54.2793 93.543 54.709 93.543C55.709 93.543 56.3438 93.9531 56.6133 94.7734C56.8398 94.3789 57.1426 94.0762 57.5215 93.8652C57.9004 93.6504 58.3184 93.543 58.7754 93.543C60.1348 93.543 60.8281 94.2852 60.8555 95.7695V100H60.1523V95.8223C60.1484 95.2559 60.0254 94.8359 59.7832 94.5625C59.5449 94.2891 59.1543 94.1523 58.6113 94.1523C58.1074 94.1602 57.6816 94.3242 57.334 94.6445C56.9863 94.9609 56.793 95.3477 56.7539 95.8047V100H56.0508V95.7695C56.0469 95.2266 55.918 94.8223 55.6641 94.5566C55.4141 94.2871 55.0273 94.1523 54.5039 94.1523C54.0625 94.1523 53.6836 94.2793 53.3672 94.5332C53.0508 94.7832 52.8164 95.1562 52.6641 95.6523V100H51.9609V93.6602H52.6348ZM62.25 96.7363C62.25 96.127 62.3672 95.5781 62.6016 95.0898C62.8398 94.6016 63.1738 94.2227 63.6035 93.9531C64.0371 93.6797 64.5273 93.543 65.0742 93.543C65.918 93.543 66.6016 93.8398 67.125 94.4336C67.6484 95.0234 67.9102 95.8066 67.9102 96.7832V96.9297C67.9102 97.543 67.791 98.0957 67.5527 98.5879C67.3184 99.0762 66.9863 99.4531 66.5566 99.7188C66.127 99.9844 65.6367 100.117 65.0859 100.117C64.2461 100.117 63.5625 99.8223 63.0352 99.2324C62.5117 98.6387 62.25 97.8535 62.25 96.877V96.7363ZM62.9531 96.9297C62.9531 97.6875 63.1484 98.3105 63.5391 98.7988C63.9336 99.2832 64.4492 99.5254 65.0859 99.5254C65.7188 99.5254 66.2305 99.2832 66.6211 98.7988C67.0156 98.3105 67.2129 97.668 67.2129 96.8711V96.7363C67.2129 96.252 67.123 95.8086 66.9434 95.4062C66.7637 95.0039 66.5117 94.6934 66.1875 94.4746C65.8633 94.252 65.4922 94.1406 65.0742 94.1406C64.4492 94.1406 63.9395 94.3867 63.5449 94.8789C63.1504 95.3672 62.9531 96.0078 62.9531 96.8008V96.9297ZM73.1602 98.3887C73.1602 98.041 73.0195 97.7617 72.7383 97.5508C72.4609 97.3398 72.041 97.1758 71.4785 97.0586C70.916 96.9375 70.4785 96.8008 70.166 96.6484C69.8574 96.4922 69.627 96.3027 69.4746 96.0801C69.3262 95.8574 69.252 95.5879 69.252 95.2715C69.252 94.7715 69.4609 94.3594 69.8789 94.0352C70.2969 93.707 70.832 93.543 71.4844 93.543C72.1914 93.543 72.7578 93.7188 73.1836 94.0703C73.6133 94.418 73.8281 94.873 73.8281 95.4355H73.125C73.125 95.0645 72.9688 94.7559 72.6562 94.5098C72.3477 94.2637 71.957 94.1406 71.4844 94.1406C71.0234 94.1406 70.6523 94.2441 70.3711 94.4512C70.0938 94.6543 69.9551 94.9199 69.9551 95.248C69.9551 95.5645 70.0703 95.8105 70.3008 95.9863C70.5352 96.1582 70.959 96.3164 71.5723 96.4609C72.1895 96.6055 72.6504 96.7598 72.9551 96.9238C73.2637 97.0879 73.4922 97.2852 73.6406 97.5156C73.7891 97.7461 73.8633 98.0254 73.8633 98.3535C73.8633 98.8887 73.6465 99.3164 73.2129 99.6367C72.7832 99.957 72.2207 100.117 71.5254 100.117C70.7871 100.117 70.1875 99.9395 69.7266 99.584C69.2695 99.2246 69.041 98.7715 69.041 98.2246H69.7441C69.7715 98.6348 69.9434 98.9551 70.2598 99.1855C70.5801 99.4121 71.002 99.5254 71.5254 99.5254C72.0137 99.5254 72.4082 99.418 72.709 99.2031C73.0098 98.9883 73.1602 98.7168 73.1602 98.3887ZM77.9766 96.7363C77.9766 96.127 78.0938 95.5781 78.3281 95.0898C78.5664 94.6016 78.9004 94.2227 79.3301 93.9531C79.7637 93.6797 80.2539 93.543 80.8008 93.543C81.6445 93.543 82.3281 93.8398 82.8516 94.4336C83.375 95.0234 83.6367 95.8066 83.6367 96.7832V96.9297C83.6367 97.543 83.5176 98.0957 83.2793 98.5879C83.0449 99.0762 82.7129 99.4531 82.2832 99.7188C81.8535 99.9844 81.3633 100.117 80.8125 100.117C79.9727 100.117 79.2891 99.8223 78.7617 99.2324C78.2383 98.6387 77.9766 97.8535 77.9766 96.877V96.7363ZM78.6797 96.9297C78.6797 97.6875 78.875 98.3105 79.2656 98.7988C79.6602 99.2832 80.1758 99.5254 80.8125 99.5254C81.4453 99.5254 81.957 99.2832 82.3477 98.7988C82.7422 98.3105 82.9395 97.668 82.9395 96.8711V96.7363C82.9395 96.252 82.8496 95.8086 82.6699 95.4062C82.4902 95.0039 82.2383 94.6934 81.9141 94.4746C81.5898 94.252 81.2188 94.1406 80.8008 94.1406C80.1758 94.1406 79.666 94.3867 79.2715 94.8789C78.877 95.3672 78.6797 96.0078 78.6797 96.8008V96.9297ZM93.1055 96.8945C93.1055 97.8828 92.8867 98.668 92.4492 99.25C92.0117 99.8281 91.4258 100.117 90.6914 100.117C89.8242 100.117 89.1602 99.8125 88.6992 99.2031V102.438H88.002V93.6602H88.6523L88.6875 94.5566C89.1445 93.8809 89.8066 93.543 90.6738 93.543C91.4316 93.543 92.0254 93.8301 92.4551 94.4043C92.8887 94.9785 93.1055 95.7754 93.1055 96.7949V96.8945ZM92.4023 96.7715C92.4023 95.9629 92.2363 95.3242 91.9043 94.8555C91.5723 94.3867 91.1094 94.1523 90.5156 94.1523C90.0859 94.1523 89.7168 94.2559 89.4082 94.4629C89.0996 94.6699 88.8633 94.9707 88.6992 95.3652V98.4062C88.8672 98.7695 89.1074 99.0469 89.4199 99.2383C89.7324 99.4297 90.1016 99.5254 90.5273 99.5254C91.1172 99.5254 91.5762 99.291 91.9043 98.8223C92.2363 98.3496 92.4023 97.666 92.4023 96.7715ZM97.5938 94.2578C97.4453 94.2305 97.2871 94.2168 97.1191 94.2168C96.6816 94.2168 96.3105 94.3398 96.0059 94.5859C95.7051 94.8281 95.4902 95.1816 95.3613 95.6465V100H94.6641V93.6602H95.3496L95.3613 94.668C95.7324 93.918 96.3281 93.543 97.1484 93.543C97.3438 93.543 97.498 93.5684 97.6113 93.6191L97.5938 94.2578ZM102.475 100C102.404 99.8008 102.359 99.5059 102.34 99.1152C102.094 99.4355 101.779 99.6836 101.396 99.8594C101.018 100.031 100.615 100.117 100.189 100.117C99.5801 100.117 99.0859 99.9473 98.707 99.6074C98.332 99.2676 98.1445 98.8379 98.1445 98.3184C98.1445 97.7012 98.4004 97.2129 98.9121 96.8535C99.4277 96.4941 100.145 96.3145 101.062 96.3145H102.334V95.5938C102.334 95.1406 102.193 94.7852 101.912 94.5273C101.635 94.2656 101.229 94.1348 100.693 94.1348C100.205 94.1348 99.8008 94.2598 99.4805 94.5098C99.1602 94.7598 99 95.0605 99 95.4121L98.2969 95.4062C98.2969 94.9023 98.5312 94.4668 99 94.0996C99.4688 93.7285 100.045 93.543 100.729 93.543C101.436 93.543 101.992 93.7207 102.398 94.0762C102.809 94.4277 103.02 94.9199 103.031 95.5527V98.5527C103.031 99.166 103.096 99.625 103.225 99.9297V100H102.475ZM100.271 99.4961C100.74 99.4961 101.158 99.3828 101.525 99.1562C101.896 98.9297 102.166 98.627 102.334 98.248V96.8535H101.08C100.381 96.8613 99.834 96.9902 99.4395 97.2402C99.0449 97.4863 98.8477 97.8262 98.8477 98.2598C98.8477 98.6152 98.9785 98.9102 99.2402 99.1445C99.5059 99.3789 99.8496 99.4961 100.271 99.4961ZM105.369 99.4082H109.488V100H104.502V99.4844L108.346 94.2637H104.619V93.6602H109.23V94.1816L105.369 99.4082ZM110.262 96.7363C110.262 96.127 110.379 95.5781 110.613 95.0898C110.852 94.6016 111.186 94.2227 111.615 93.9531C112.049 93.6797 112.539 93.543 113.086 93.543C113.93 93.543 114.613 93.8398 115.137 94.4336C115.66 95.0234 115.922 95.8066 115.922 96.7832V96.9297C115.922 97.543 115.803 98.0957 115.564 98.5879C115.33 99.0762 114.998 99.4531 114.568 99.7188C114.139 99.9844 113.648 100.117 113.098 100.117C112.258 100.117 111.574 99.8223 111.047 99.2324C110.523 98.6387 110.262 97.8535 110.262 96.877V96.7363ZM110.965 96.9297C110.965 97.6875 111.16 98.3105 111.551 98.7988C111.945 99.2832 112.461 99.5254 113.098 99.5254C113.73 99.5254 114.242 99.2832 114.633 98.7988C115.027 98.3105 115.225 97.668 115.225 96.8711V96.7363C115.225 96.252 115.135 95.8086 114.955 95.4062C114.775 95.0039 114.523 94.6934 114.199 94.4746C113.875 94.252 113.504 94.1406 113.086 94.1406C112.461 94.1406 111.951 94.3867 111.557 94.8789C111.162 95.3672 110.965 96.0078 110.965 96.8008V96.9297ZM125.391 96.8945C125.391 97.8828 125.172 98.668 124.734 99.25C124.297 99.8281 123.711 100.117 122.977 100.117C122.109 100.117 121.445 99.8125 120.984 99.2031V102.438H120.287V93.6602H120.938L120.973 94.5566C121.43 93.8809 122.092 93.543 122.959 93.543C123.717 93.543 124.311 93.8301 124.74 94.4043C125.174 94.9785 125.391 95.7754 125.391 96.7949V96.8945ZM124.688 96.7715C124.688 95.9629 124.521 95.3242 124.189 94.8555C123.857 94.3867 123.395 94.1523 122.801 94.1523C122.371 94.1523 122.002 94.2559 121.693 94.4629C121.385 94.6699 121.148 94.9707 120.984 95.3652V98.4062C121.152 98.7695 121.393 99.0469 121.705 99.2383C122.018 99.4297 122.387 99.5254 122.812 99.5254C123.402 99.5254 123.861 99.291 124.189 98.8223C124.521 98.3496 124.688 97.666 124.688 96.7715ZM130.951 100C130.881 99.8008 130.836 99.5059 130.816 99.1152C130.57 99.4355 130.256 99.6836 129.873 99.8594C129.494 100.031 129.092 100.117 128.666 100.117C128.057 100.117 127.562 99.9473 127.184 99.6074C126.809 99.2676 126.621 98.8379 126.621 98.3184C126.621 97.7012 126.877 97.2129 127.389 96.8535C127.904 96.4941 128.621 96.3145 129.539 96.3145H130.811V95.5938C130.811 95.1406 130.67 94.7852 130.389 94.5273C130.111 94.2656 129.705 94.1348 129.17 94.1348C128.682 94.1348 128.277 94.2598 127.957 94.5098C127.637 94.7598 127.477 95.0605 127.477 95.4121L126.773 95.4062C126.773 94.9023 127.008 94.4668 127.477 94.0996C127.945 93.7285 128.521 93.543 129.205 93.543C129.912 93.543 130.469 93.7207 130.875 94.0762C131.285 94.4277 131.496 94.9199 131.508 95.5527V98.5527C131.508 99.166 131.572 99.625 131.701 99.9297V100H130.951ZM128.748 99.4961C129.217 99.4961 129.635 99.3828 130.002 99.1562C130.373 98.9297 130.643 98.627 130.811 98.248V96.8535H129.557C128.857 96.8613 128.311 96.9902 127.916 97.2402C127.521 97.4863 127.324 97.8262 127.324 98.2598C127.324 98.6152 127.455 98.9102 127.717 99.1445C127.982 99.3789 128.326 99.4961 128.748 99.4961ZM136.312 94.2578C136.164 94.2305 136.006 94.2168 135.838 94.2168C135.4 94.2168 135.029 94.3398 134.725 94.5859C134.424 94.8281 134.209 95.1816 134.08 95.6465V100H133.383V93.6602H134.068L134.08 94.668C134.451 93.918 135.047 93.543 135.867 93.543C136.062 93.543 136.217 93.5684 136.33 93.6191L136.312 94.2578ZM141.193 100C141.123 99.8008 141.078 99.5059 141.059 99.1152C140.812 99.4355 140.498 99.6836 140.115 99.8594C139.736 100.031 139.334 100.117 138.908 100.117C138.299 100.117 137.805 99.9473 137.426 99.6074C137.051 99.2676 136.863 98.8379 136.863 98.3184C136.863 97.7012 137.119 97.2129 137.631 96.8535C138.146 96.4941 138.863 96.3145 139.781 96.3145H141.053V95.5938C141.053 95.1406 140.912 94.7852 140.631 94.5273C140.354 94.2656 139.947 94.1348 139.412 94.1348C138.924 94.1348 138.52 94.2598 138.199 94.5098C137.879 94.7598 137.719 95.0605 137.719 95.4121L137.016 95.4062C137.016 94.9023 137.25 94.4668 137.719 94.0996C138.188 93.7285 138.764 93.543 139.447 93.543C140.154 93.543 140.711 93.7207 141.117 94.0762C141.527 94.4277 141.738 94.9199 141.75 95.5527V98.5527C141.75 99.166 141.814 99.625 141.943 99.9297V100H141.193ZM138.99 99.4961C139.459 99.4961 139.877 99.3828 140.244 99.1562C140.615 98.9297 140.885 98.627 141.053 98.248V96.8535H139.799C139.1 96.8613 138.553 96.9902 138.158 97.2402C137.764 97.4863 137.566 97.8262 137.566 98.2598C137.566 98.6152 137.697 98.9102 137.959 99.1445C138.225 99.3789 138.568 99.4961 138.99 99.4961ZM147.328 100H146.625V91H147.328V100ZM150.023 100H149.32V93.6602H150.023V100ZM149.197 91.8262C149.197 91.6934 149.24 91.582 149.326 91.4922C149.412 91.3984 149.529 91.3516 149.678 91.3516C149.826 91.3516 149.943 91.3984 150.029 91.4922C150.119 91.582 150.164 91.6934 150.164 91.8262C150.164 91.959 150.119 92.0703 150.029 92.1602C149.943 92.25 149.826 92.2949 149.678 92.2949C149.529 92.2949 149.412 92.25 149.326 92.1602C149.24 92.0703 149.197 91.959 149.197 91.8262ZM157.037 96.8945C157.037 97.8828 156.818 98.668 156.381 99.25C155.943 99.8281 155.355 100.117 154.617 100.117C153.734 100.117 153.066 99.7891 152.613 99.1328L152.584 100H151.928V91H152.625V94.5801C153.07 93.8887 153.73 93.543 154.605 93.543C155.355 93.543 155.947 93.8301 156.381 94.4043C156.818 94.9746 157.037 95.7695 157.037 96.7891V96.8945ZM156.334 96.7715C156.334 95.9355 156.172 95.291 155.848 94.8379C155.523 94.3809 155.066 94.1523 154.477 94.1523C154.027 94.1523 153.646 94.2637 153.334 94.4863C153.021 94.7051 152.785 95.0273 152.625 95.4531V98.3125C152.977 99.1094 153.598 99.5078 154.488 99.5078C155.066 99.5078 155.518 99.2793 155.842 98.8223C156.17 98.3652 156.334 97.6816 156.334 96.7715ZM161.045 100.117C160.506 100.117 160.018 99.9844 159.58 99.7188C159.146 99.4531 158.809 99.084 158.566 98.6113C158.324 98.1348 158.203 97.6016 158.203 97.0117V96.7598C158.203 96.1504 158.32 95.6016 158.555 95.1133C158.793 94.625 159.123 94.2422 159.545 93.9648C159.967 93.6836 160.424 93.543 160.916 93.543C161.686 93.543 162.295 93.8066 162.744 94.334C163.197 94.8574 163.424 95.5742 163.424 96.4844V96.877H158.9V97.0117C158.9 97.7305 159.105 98.3301 159.516 98.8105C159.93 99.2871 160.449 99.5254 161.074 99.5254C161.449 99.5254 161.779 99.457 162.064 99.3203C162.354 99.1836 162.615 98.9648 162.85 98.6641L163.289 98.998C162.773 99.7441 162.025 100.117 161.045 100.117ZM160.916 94.1406C160.389 94.1406 159.943 94.334 159.58 94.7207C159.221 95.1074 159.002 95.627 158.924 96.2793H162.727V96.2031C162.707 95.5938 162.533 95.0977 162.205 94.7148C161.877 94.332 161.447 94.1406 160.916 94.1406ZM167.719 94.2578C167.57 94.2305 167.412 94.2168 167.244 94.2168C166.807 94.2168 166.436 94.3398 166.131 94.5859C165.83 94.8281 165.615 95.1816 165.486 95.6465V100H164.789V93.6602H165.475L165.486 94.668C165.857 93.918 166.453 93.543 167.273 93.543C167.469 93.543 167.623 93.5684 167.736 93.6191L167.719 94.2578ZM172.6 100C172.529 99.8008 172.484 99.5059 172.465 99.1152C172.219 99.4355 171.904 99.6836 171.521 99.8594C171.143 100.031 170.74 100.117 170.314 100.117C169.705 100.117 169.211 99.9473 168.832 99.6074C168.457 99.2676 168.27 98.8379 168.27 98.3184C168.27 97.7012 168.525 97.2129 169.037 96.8535C169.553 96.4941 170.27 96.3145 171.188 96.3145H172.459V95.5938C172.459 95.1406 172.318 94.7852 172.037 94.5273C171.76 94.2656 171.354 94.1348 170.818 94.1348C170.33 94.1348 169.926 94.2598 169.605 94.5098C169.285 94.7598 169.125 95.0605 169.125 95.4121L168.422 95.4062C168.422 94.9023 168.656 94.4668 169.125 94.0996C169.594 93.7285 170.17 93.543 170.854 93.543C171.561 93.543 172.117 93.7207 172.523 94.0762C172.934 94.4277 173.145 94.9199 173.156 95.5527V98.5527C173.156 99.166 173.221 99.625 173.35 99.9297V100H172.6ZM170.396 99.4961C170.865 99.4961 171.283 99.3828 171.65 99.1562C172.021 98.9297 172.291 98.627 172.459 98.248V96.8535H171.205C170.506 96.8613 169.959 96.9902 169.564 97.2402C169.17 97.4863 168.973 97.8262 168.973 98.2598C168.973 98.6152 169.104 98.9102 169.365 99.1445C169.631 99.3789 169.975 99.4961 170.396 99.4961ZM177.961 94.2578C177.812 94.2305 177.654 94.2168 177.486 94.2168C177.049 94.2168 176.678 94.3398 176.373 94.5859C176.072 94.8281 175.857 95.1816 175.729 95.6465V100H175.031V93.6602H175.717L175.729 94.668C176.1 93.918 176.695 93.543 177.516 93.543C177.711 93.543 177.865 93.5684 177.979 93.6191L177.961 94.2578ZM181.605 96.7363C181.605 96.127 181.723 95.5781 181.957 95.0898C182.195 94.6016 182.529 94.2227 182.959 93.9531C183.393 93.6797 183.883 93.543 184.43 93.543C185.273 93.543 185.957 93.8398 186.48 94.4336C187.004 95.0234 187.266 95.8066 187.266 96.7832V96.9297C187.266 97.543 187.146 98.0957 186.908 98.5879C186.674 99.0762 186.342 99.4531 185.912 99.7188C185.482 99.9844 184.992 100.117 184.441 100.117C183.602 100.117 182.918 99.8223 182.391 99.2324C181.867 98.6387 181.605 97.8535 181.605 96.877V96.7363ZM182.309 96.9297C182.309 97.6875 182.504 98.3105 182.895 98.7988C183.289 99.2832 183.805 99.5254 184.441 99.5254C185.074 99.5254 185.586 99.2832 185.977 98.7988C186.371 98.3105 186.568 97.668 186.568 96.8711V96.7363C186.568 96.252 186.479 95.8086 186.299 95.4062C186.119 95.0039 185.867 94.6934 185.543 94.4746C185.219 94.252 184.848 94.1406 184.43 94.1406C183.805 94.1406 183.295 94.3867 182.9 94.8789C182.506 95.3672 182.309 96.0078 182.309 96.8008V96.9297ZM191.355 96.7715C191.355 95.7871 191.574 95.0039 192.012 94.4219C192.453 93.8359 193.051 93.543 193.805 93.543C194.66 93.543 195.312 93.8809 195.762 94.5566V91H196.459V100H195.803L195.773 99.1562C195.324 99.7969 194.664 100.117 193.793 100.117C193.062 100.117 192.473 99.8242 192.023 99.2383C191.578 98.6484 191.355 97.8535 191.355 96.8535V96.7715ZM192.064 96.8945C192.064 97.7031 192.227 98.3418 192.551 98.8105C192.875 99.2754 193.332 99.5078 193.922 99.5078C194.785 99.5078 195.398 99.127 195.762 98.3652V95.3887C195.398 94.5645 194.789 94.1523 193.934 94.1523C193.344 94.1523 192.885 94.3848 192.557 94.8496C192.229 95.3105 192.064 95.9922 192.064 96.8945ZM199.09 100H198.387V93.6602H199.09V100ZM198.264 91.8262C198.264 91.6934 198.307 91.582 198.393 91.4922C198.479 91.3984 198.596 91.3516 198.744 91.3516C198.893 91.3516 199.01 91.3984 199.096 91.4922C199.186 91.582 199.23 91.6934 199.23 91.8262C199.23 91.959 199.186 92.0703 199.096 92.1602C199.01 92.25 198.893 92.2949 198.744 92.2949C198.596 92.2949 198.479 92.25 198.393 92.1602C198.307 92.0703 198.264 91.959 198.264 91.8262ZM201.668 93.6602L201.691 94.7441C201.93 94.3535 202.227 94.0566 202.582 93.8535C202.938 93.6465 203.33 93.543 203.76 93.543C204.439 93.543 204.945 93.7344 205.277 94.1172C205.609 94.5 205.777 95.0742 205.781 95.8398V100H205.084V95.834C205.08 95.2676 204.959 94.8457 204.721 94.5684C204.486 94.291 204.109 94.1523 203.59 94.1523C203.156 94.1523 202.771 94.2891 202.436 94.5625C202.104 94.832 201.857 95.1973 201.697 95.6582V100H201V93.6602H201.668ZM208.295 94.7324C208.525 94.3535 208.82 94.0605 209.18 93.8535C209.539 93.6465 209.932 93.543 210.357 93.543C211.037 93.543 211.543 93.7344 211.875 94.1172C212.207 94.5 212.375 95.0742 212.379 95.8398V100H211.682V95.834C211.678 95.2676 211.557 94.8457 211.318 94.5684C211.084 94.291 210.707 94.1523 210.188 94.1523C209.754 94.1523 209.369 94.2891 209.033 94.5625C208.701 94.832 208.455 95.1973 208.295 95.6582V100H207.598V91H208.295V94.7324ZM216.639 100.117C216.1 100.117 215.611 99.9844 215.174 99.7188C214.74 99.4531 214.402 99.084 214.16 98.6113C213.918 98.1348 213.797 97.6016 213.797 97.0117V96.7598C213.797 96.1504 213.914 95.6016 214.148 95.1133C214.387 94.625 214.717 94.2422 215.139 93.9648C215.561 93.6836 216.018 93.543 216.51 93.543C217.279 93.543 217.889 93.8066 218.338 94.334C218.791 94.8574 219.018 95.5742 219.018 96.4844V96.877H214.494V97.0117C214.494 97.7305 214.699 98.3301 215.109 98.8105C215.523 99.2871 216.043 99.5254 216.668 99.5254C217.043 99.5254 217.373 99.457 217.658 99.3203C217.947 99.1836 218.209 98.9648 218.443 98.6641L218.883 98.998C218.367 99.7441 217.619 100.117 216.639 100.117ZM216.51 94.1406C215.982 94.1406 215.537 94.334 215.174 94.7207C214.814 95.1074 214.596 95.627 214.518 96.2793H218.32V96.2031C218.301 95.5938 218.127 95.0977 217.799 94.7148C217.471 94.332 217.041 94.1406 216.51 94.1406ZM221.168 100H220.465V93.6602H221.168V100ZM220.342 91.8262C220.342 91.6934 220.385 91.582 220.471 91.4922C220.557 91.3984 220.674 91.3516 220.822 91.3516C220.971 91.3516 221.088 91.3984 221.174 91.4922C221.264 91.582 221.309 91.6934 221.309 91.8262C221.309 91.959 221.264 92.0703 221.174 92.1602C221.088 92.25 220.971 92.2949 220.822 92.2949C220.674 92.2949 220.557 92.25 220.471 92.1602C220.385 92.0703 220.342 91.959 220.342 91.8262ZM226.008 94.2578C225.859 94.2305 225.701 94.2168 225.533 94.2168C225.096 94.2168 224.725 94.3398 224.42 94.5859C224.119 94.8281 223.904 95.1816 223.775 95.6465V100H223.078V93.6602H223.764L223.775 94.668C224.146 93.918 224.742 93.543 225.562 93.543C225.758 93.543 225.912 93.5684 226.025 93.6191L226.008 94.2578ZM226.617 96.7363C226.617 96.127 226.734 95.5781 226.969 95.0898C227.207 94.6016 227.541 94.2227 227.971 93.9531C228.404 93.6797 228.895 93.543 229.441 93.543C230.285 93.543 230.969 93.8398 231.492 94.4336C232.016 95.0234 232.277 95.8066 232.277 96.7832V96.9297C232.277 97.543 232.158 98.0957 231.92 98.5879C231.686 99.0762 231.354 99.4531 230.924 99.7188C230.494 99.9844 230.004 100.117 229.453 100.117C228.613 100.117 227.93 99.8223 227.402 99.2324C226.879 98.6387 226.617 97.8535 226.617 96.877V96.7363ZM227.32 96.9297C227.32 97.6875 227.516 98.3105 227.906 98.7988C228.301 99.2832 228.816 99.5254 229.453 99.5254C230.086 99.5254 230.598 99.2832 230.988 98.7988C231.383 98.3105 231.58 97.668 231.58 96.8711V96.7363C231.58 96.252 231.49 95.8086 231.311 95.4062C231.131 95.0039 230.879 94.6934 230.555 94.4746C230.23 94.252 229.859 94.1406 229.441 94.1406C228.816 94.1406 228.307 94.3867 227.912 94.8789C227.518 95.3672 227.32 96.0078 227.32 96.8008V96.9297ZM21.6328 110.771C21.6328 109.787 21.8516 109.004 22.2891 108.422C22.7305 107.836 23.3281 107.543 24.082 107.543C24.9375 107.543 25.5898 107.881 26.0391 108.557V105H26.7363V114H26.0801L26.0508 113.156C25.6016 113.797 24.9414 114.117 24.0703 114.117C23.3398 114.117 22.75 113.824 22.3008 113.238C21.8555 112.648 21.6328 111.854 21.6328 110.854V110.771ZM22.3418 110.895C22.3418 111.703 22.5039 112.342 22.8281 112.811C23.1523 113.275 23.6094 113.508 24.1992 113.508C25.0625 113.508 25.6758 113.127 26.0391 112.365V109.389C25.6758 108.564 25.0664 108.152 24.2109 108.152C23.6211 108.152 23.1621 108.385 22.834 108.85C22.5059 109.311 22.3418 109.992 22.3418 110.895ZM32.584 114C32.5137 113.801 32.4688 113.506 32.4492 113.115C32.2031 113.436 31.8887 113.684 31.5059 113.859C31.127 114.031 30.7246 114.117 30.2988 114.117C29.6895 114.117 29.1953 113.947 28.8164 113.607C28.4414 113.268 28.2539 112.838 28.2539 112.318C28.2539 111.701 28.5098 111.213 29.0215 110.854C29.5371 110.494 30.2539 110.314 31.1719 110.314H32.4434V109.594C32.4434 109.141 32.3027 108.785 32.0215 108.527C31.7441 108.266 31.3379 108.135 30.8027 108.135C30.3145 108.135 29.9102 108.26 29.5898 108.51C29.2695 108.76 29.1094 109.061 29.1094 109.412L28.4062 109.406C28.4062 108.902 28.6406 108.467 29.1094 108.1C29.5781 107.729 30.1543 107.543 30.8379 107.543C31.5449 107.543 32.1016 107.721 32.5078 108.076C32.918 108.428 33.1289 108.92 33.1406 109.553V112.553C33.1406 113.166 33.2051 113.625 33.334 113.93V114H32.584ZM30.3809 113.496C30.8496 113.496 31.2676 113.383 31.6348 113.156C32.0059 112.93 32.2754 112.627 32.4434 112.248V110.854H31.1895C30.4902 110.861 29.9434 110.99 29.5488 111.24C29.1543 111.486 28.957 111.826 28.957 112.26C28.957 112.615 29.0879 112.91 29.3496 113.145C29.6152 113.379 29.959 113.496 30.3809 113.496ZM38.8125 112.389C38.8125 112.041 38.6719 111.762 38.3906 111.551C38.1133 111.34 37.6934 111.176 37.1309 111.059C36.5684 110.938 36.1309 110.801 35.8184 110.648C35.5098 110.492 35.2793 110.303 35.127 110.08C34.9785 109.857 34.9043 109.588 34.9043 109.271C34.9043 108.771 35.1133 108.359 35.5312 108.035C35.9492 107.707 36.4844 107.543 37.1367 107.543C37.8438 107.543 38.4102 107.719 38.8359 108.07C39.2656 108.418 39.4805 108.873 39.4805 109.436H38.7773C38.7773 109.064 38.6211 108.756 38.3086 108.51C38 108.264 37.6094 108.141 37.1367 108.141C36.6758 108.141 36.3047 108.244 36.0234 108.451C35.7461 108.654 35.6074 108.92 35.6074 109.248C35.6074 109.564 35.7227 109.811 35.9531 109.986C36.1875 110.158 36.6113 110.316 37.2246 110.461C37.8418 110.605 38.3027 110.76 38.6074 110.924C38.916 111.088 39.1445 111.285 39.293 111.516C39.4414 111.746 39.5156 112.025 39.5156 112.354C39.5156 112.889 39.2988 113.316 38.8652 113.637C38.4355 113.957 37.873 114.117 37.1777 114.117C36.4395 114.117 35.8398 113.939 35.3789 113.584C34.9219 113.225 34.6934 112.771 34.6934 112.225H35.3965C35.4238 112.635 35.5957 112.955 35.9121 113.186C36.2324 113.412 36.6543 113.525 37.1777 113.525C37.666 113.525 38.0605 113.418 38.3613 113.203C38.6621 112.988 38.8125 112.717 38.8125 112.389ZM47.8125 112.389C47.8125 112.041 47.6719 111.762 47.3906 111.551C47.1133 111.34 46.6934 111.176 46.1309 111.059C45.5684 110.938 45.1309 110.801 44.8184 110.648C44.5098 110.492 44.2793 110.303 44.127 110.08C43.9785 109.857 43.9043 109.588 43.9043 109.271C43.9043 108.771 44.1133 108.359 44.5312 108.035C44.9492 107.707 45.4844 107.543 46.1367 107.543C46.8438 107.543 47.4102 107.719 47.8359 108.07C48.2656 108.418 48.4805 108.873 48.4805 109.436H47.7773C47.7773 109.064 47.6211 108.756 47.3086 108.51C47 108.264 46.6094 108.141 46.1367 108.141C45.6758 108.141 45.3047 108.244 45.0234 108.451C44.7461 108.654 44.6074 108.92 44.6074 109.248C44.6074 109.564 44.7227 109.811 44.9531 109.986C45.1875 110.158 45.6113 110.316 46.2246 110.461C46.8418 110.605 47.3027 110.76 47.6074 110.924C47.916 111.088 48.1445 111.285 48.293 111.516C48.4414 111.746 48.5156 112.025 48.5156 112.354C48.5156 112.889 48.2988 113.316 47.8652 113.637C47.4355 113.957 46.873 114.117 46.1777 114.117C45.4395 114.117 44.8398 113.939 44.3789 113.584C43.9219 113.225 43.6934 112.771 43.6934 112.225H44.3965C44.4238 112.635 44.5957 112.955 44.9121 113.186C45.2324 113.412 45.6543 113.525 46.1777 113.525C46.666 113.525 47.0605 113.418 47.3613 113.203C47.6621 112.988 47.8125 112.717 47.8125 112.389ZM54.1758 113.197C53.7539 113.811 53.0801 114.117 52.1543 114.117C51.4785 114.117 50.9648 113.922 50.6133 113.531C50.2617 113.137 50.082 112.555 50.0742 111.785V107.66H50.7715V111.697C50.7715 112.904 51.2598 113.508 52.2363 113.508C53.252 113.508 53.8945 113.088 54.1641 112.248V107.66H54.8672V114H54.1875L54.1758 113.197ZM60.6973 114C60.627 113.801 60.582 113.506 60.5625 113.115C60.3164 113.436 60.002 113.684 59.6191 113.859C59.2402 114.031 58.8379 114.117 58.4121 114.117C57.8027 114.117 57.3086 113.947 56.9297 113.607C56.5547 113.268 56.3672 112.838 56.3672 112.318C56.3672 111.701 56.623 111.213 57.1348 110.854C57.6504 110.494 58.3672 110.314 59.2852 110.314H60.5566V109.594C60.5566 109.141 60.416 108.785 60.1348 108.527C59.8574 108.266 59.4512 108.135 58.916 108.135C58.4277 108.135 58.0234 108.26 57.7031 108.51C57.3828 108.76 57.2227 109.061 57.2227 109.412L56.5195 109.406C56.5195 108.902 56.7539 108.467 57.2227 108.1C57.6914 107.729 58.2676 107.543 58.9512 107.543C59.6582 107.543 60.2148 107.721 60.6211 108.076C61.0312 108.428 61.2422 108.92 61.2539 109.553V112.553C61.2539 113.166 61.3184 113.625 61.4473 113.93V114H60.6973ZM58.4941 113.496C58.9629 113.496 59.3809 113.383 59.748 113.156C60.1191 112.93 60.3887 112.627 60.5566 112.248V110.854H59.3027C58.6035 110.861 58.0566 110.99 57.6621 111.24C57.2676 111.486 57.0703 111.826 57.0703 112.26C57.0703 112.615 57.2012 112.91 57.4629 113.145C57.7285 113.379 58.0723 113.496 58.4941 113.496ZM66.9258 112.389C66.9258 112.041 66.7852 111.762 66.5039 111.551C66.2266 111.34 65.8066 111.176 65.2441 111.059C64.6816 110.938 64.2441 110.801 63.9316 110.648C63.623 110.492 63.3926 110.303 63.2402 110.08C63.0918 109.857 63.0176 109.588 63.0176 109.271C63.0176 108.771 63.2266 108.359 63.6445 108.035C64.0625 107.707 64.5977 107.543 65.25 107.543C65.957 107.543 66.5234 107.719 66.9492 108.07C67.3789 108.418 67.5938 108.873 67.5938 109.436H66.8906C66.8906 109.064 66.7344 108.756 66.4219 108.51C66.1133 108.264 65.7227 108.141 65.25 108.141C64.7891 108.141 64.418 108.244 64.1367 108.451C63.8594 108.654 63.7207 108.92 63.7207 109.248C63.7207 109.564 63.8359 109.811 64.0664 109.986C64.3008 110.158 64.7246 110.316 65.3379 110.461C65.9551 110.605 66.416 110.76 66.7207 110.924C67.0293 111.088 67.2578 111.285 67.4062 111.516C67.5547 111.746 67.6289 112.025 67.6289 112.354C67.6289 112.889 67.4121 113.316 66.9785 113.637C66.5488 113.957 65.9863 114.117 65.291 114.117C64.5527 114.117 63.9531 113.939 63.4922 113.584C63.0352 113.225 62.8066 112.771 62.8066 112.225H63.5098C63.5371 112.635 63.709 112.955 64.0254 113.186C64.3457 113.412 64.7676 113.525 65.291 113.525C65.7793 113.525 66.1738 113.418 66.4746 113.203C66.7754 112.988 66.9258 112.717 66.9258 112.389ZM74.1035 113.033L76.0312 107.66H76.752L74.3848 114H73.8164L71.4375 107.66H72.1582L74.1035 113.033ZM80.2793 114.117C79.7402 114.117 79.252 113.984 78.8145 113.719C78.3809 113.453 78.043 113.084 77.8008 112.611C77.5586 112.135 77.4375 111.602 77.4375 111.012V110.76C77.4375 110.15 77.5547 109.602 77.7891 109.113C78.0273 108.625 78.3574 108.242 78.7793 107.965C79.2012 107.684 79.6582 107.543 80.1504 107.543C80.9199 107.543 81.5293 107.807 81.9785 108.334C82.4316 108.857 82.6582 109.574 82.6582 110.484V110.877H78.1348V111.012C78.1348 111.73 78.3398 112.33 78.75 112.811C79.1641 113.287 79.6836 113.525 80.3086 113.525C80.6836 113.525 81.0137 113.457 81.2988 113.32C81.5879 113.184 81.8496 112.965 82.084 112.664L82.5234 112.998C82.0078 113.744 81.2598 114.117 80.2793 114.117ZM80.1504 108.141C79.623 108.141 79.1777 108.334 78.8145 108.721C78.4551 109.107 78.2363 109.627 78.1582 110.279H81.9609V110.203C81.9414 109.594 81.7676 109.098 81.4395 108.715C81.1113 108.332 80.6816 108.141 80.1504 108.141ZM84.6914 107.66L84.7148 108.744C84.9531 108.354 85.25 108.057 85.6055 107.854C85.9609 107.646 86.3535 107.543 86.7832 107.543C87.4629 107.543 87.9688 107.734 88.3008 108.117C88.6328 108.5 88.8008 109.074 88.8047 109.84V114H88.1074V109.834C88.1035 109.268 87.9824 108.846 87.7441 108.568C87.5098 108.291 87.1328 108.152 86.6133 108.152C86.1797 108.152 85.7949 108.289 85.459 108.562C85.127 108.832 84.8809 109.197 84.7207 109.658V114H84.0234V107.66H84.6914ZM90.3398 110.771C90.3398 109.787 90.5586 109.004 90.9961 108.422C91.4375 107.836 92.0352 107.543 92.7891 107.543C93.6445 107.543 94.2969 107.881 94.7461 108.557V105H95.4434V114H94.7871L94.7578 113.156C94.3086 113.797 93.6484 114.117 92.7773 114.117C92.0469 114.117 91.457 113.824 91.0078 113.238C90.5625 112.648 90.3398 111.854 90.3398 110.854V110.771ZM91.0488 110.895C91.0488 111.703 91.2109 112.342 91.5352 112.811C91.8594 113.275 92.3164 113.508 92.9062 113.508C93.7695 113.508 94.3828 113.127 94.7461 112.365V109.389C94.3828 108.564 93.7734 108.152 92.918 108.152C92.3281 108.152 91.8691 108.385 91.541 108.85C91.2129 109.311 91.0488 109.992 91.0488 110.895ZM101.291 114C101.221 113.801 101.176 113.506 101.156 113.115C100.91 113.436 100.596 113.684 100.213 113.859C99.834 114.031 99.4316 114.117 99.0059 114.117C98.3965 114.117 97.9023 113.947 97.5234 113.607C97.1484 113.268 96.9609 112.838 96.9609 112.318C96.9609 111.701 97.2168 111.213 97.7285 110.854C98.2441 110.494 98.9609 110.314 99.8789 110.314H101.15V109.594C101.15 109.141 101.01 108.785 100.729 108.527C100.451 108.266 100.045 108.135 99.5098 108.135C99.0215 108.135 98.6172 108.26 98.2969 108.51C97.9766 108.76 97.8164 109.061 97.8164 109.412L97.1133 109.406C97.1133 108.902 97.3477 108.467 97.8164 108.1C98.2852 107.729 98.8613 107.543 99.5449 107.543C100.252 107.543 100.809 107.721 101.215 108.076C101.625 108.428 101.836 108.92 101.848 109.553V112.553C101.848 113.166 101.912 113.625 102.041 113.93V114H101.291ZM99.0879 113.496C99.5566 113.496 99.9746 113.383 100.342 113.156C100.713 112.93 100.982 112.627 101.15 112.248V110.854H99.8965C99.1973 110.861 98.6504 110.99 98.2559 111.24C97.8613 111.486 97.6641 111.826 97.6641 112.26C97.6641 112.615 97.7949 112.91 98.0566 113.145C98.3223 113.379 98.666 113.496 99.0879 113.496ZM107.52 112.389C107.52 112.041 107.379 111.762 107.098 111.551C106.82 111.34 106.4 111.176 105.838 111.059C105.275 110.938 104.838 110.801 104.525 110.648C104.217 110.492 103.986 110.303 103.834 110.08C103.686 109.857 103.611 109.588 103.611 109.271C103.611 108.771 103.82 108.359 104.238 108.035C104.656 107.707 105.191 107.543 105.844 107.543C106.551 107.543 107.117 107.719 107.543 108.07C107.973 108.418 108.188 108.873 108.188 109.436H107.484C107.484 109.064 107.328 108.756 107.016 108.51C106.707 108.264 106.316 108.141 105.844 108.141C105.383 108.141 105.012 108.244 104.73 108.451C104.453 108.654 104.314 108.92 104.314 109.248C104.314 109.564 104.43 109.811 104.66 109.986C104.895 110.158 105.318 110.316 105.932 110.461C106.549 110.605 107.01 110.76 107.314 110.924C107.623 111.088 107.852 111.285 108 111.516C108.148 111.746 108.223 112.025 108.223 112.354C108.223 112.889 108.006 113.316 107.572 113.637C107.143 113.957 106.58 114.117 105.885 114.117C105.146 114.117 104.547 113.939 104.086 113.584C103.629 113.225 103.4 112.771 103.4 112.225H104.104C104.131 112.635 104.303 112.955 104.619 113.186C104.939 113.412 105.361 113.525 105.885 113.525C106.373 113.525 106.768 113.418 107.068 113.203C107.369 112.988 107.52 112.717 107.52 112.389ZM109.74 113.578C109.74 113.441 109.783 113.326 109.869 113.232C109.959 113.135 110.082 113.086 110.238 113.086C110.395 113.086 110.518 113.135 110.607 113.232C110.697 113.326 110.742 113.441 110.742 113.578C110.742 113.715 110.697 113.828 110.607 113.918C110.518 114.004 110.395 114.047 110.238 114.047C110.082 114.047 109.959 114.004 109.869 113.918C109.783 113.828 109.74 113.715 109.74 113.578Z" fill="black"/>
<path d="M120.586 111.902C120.586 111.43 120.42 111.057 120.088 110.783C119.756 110.506 119.148 110.244 118.266 109.998C117.383 109.748 116.738 109.477 116.332 109.184C115.754 108.77 115.465 108.227 115.465 107.555C115.465 106.902 115.732 106.373 116.268 105.967C116.807 105.557 117.494 105.352 118.33 105.352C118.896 105.352 119.402 105.461 119.848 105.68C120.297 105.898 120.645 106.203 120.891 106.594C121.137 106.984 121.26 107.42 121.26 107.9H120.533C120.533 107.318 120.334 106.852 119.936 106.5C119.537 106.145 119.002 105.967 118.33 105.967C117.678 105.967 117.158 106.113 116.771 106.406C116.385 106.695 116.191 107.074 116.191 107.543C116.191 107.977 116.365 108.33 116.713 108.604C117.061 108.877 117.617 109.119 118.383 109.33C119.148 109.537 119.729 109.754 120.123 109.98C120.518 110.203 120.814 110.471 121.014 110.783C121.213 111.096 121.312 111.465 121.312 111.891C121.312 112.562 121.043 113.102 120.504 113.508C119.969 113.914 119.262 114.117 118.383 114.117C117.781 114.117 117.229 114.01 116.725 113.795C116.225 113.58 115.844 113.279 115.582 112.893C115.324 112.506 115.195 112.062 115.195 111.562H115.916C115.916 112.164 116.141 112.639 116.59 112.986C117.039 113.334 117.637 113.508 118.383 113.508C119.047 113.508 119.58 113.361 119.982 113.068C120.385 112.775 120.586 112.387 120.586 111.902ZM126.709 114C126.639 113.801 126.594 113.506 126.574 113.115C126.328 113.436 126.014 113.684 125.631 113.859C125.252 114.031 124.85 114.117 124.424 114.117C123.814 114.117 123.32 113.947 122.941 113.607C122.566 113.268 122.379 112.838 122.379 112.318C122.379 111.701 122.635 111.213 123.146 110.854C123.662 110.494 124.379 110.314 125.297 110.314H126.568V109.594C126.568 109.141 126.428 108.785 126.146 108.527C125.869 108.266 125.463 108.135 124.928 108.135C124.439 108.135 124.035 108.26 123.715 108.51C123.395 108.76 123.234 109.061 123.234 109.412L122.531 109.406C122.531 108.902 122.766 108.467 123.234 108.1C123.703 107.729 124.279 107.543 124.963 107.543C125.67 107.543 126.227 107.721 126.633 108.076C127.043 108.428 127.254 108.92 127.266 109.553V112.553C127.266 113.166 127.33 113.625 127.459 113.93V114H126.709ZM124.506 113.496C124.975 113.496 125.393 113.383 125.76 113.156C126.131 112.93 126.4 112.627 126.568 112.248V110.854H125.314C124.615 110.861 124.068 110.99 123.674 111.24C123.279 111.486 123.082 111.826 123.082 112.26C123.082 112.615 123.213 112.91 123.475 113.145C123.74 113.379 124.084 113.496 124.506 113.496ZM129.926 114H129.223V107.66H129.926V114ZM129.1 105.826C129.1 105.693 129.143 105.582 129.229 105.492C129.314 105.398 129.432 105.352 129.58 105.352C129.729 105.352 129.846 105.398 129.932 105.492C130.021 105.582 130.066 105.693 130.066 105.826C130.066 105.959 130.021 106.07 129.932 106.16C129.846 106.25 129.729 106.295 129.58 106.295C129.432 106.295 129.314 106.25 129.229 106.16C129.143 106.07 129.1 105.959 129.1 105.826ZM136.939 110.895C136.939 111.883 136.721 112.668 136.283 113.25C135.846 113.828 135.258 114.117 134.52 114.117C133.637 114.117 132.969 113.789 132.516 113.133L132.486 114H131.83V105H132.527V108.58C132.973 107.889 133.633 107.543 134.508 107.543C135.258 107.543 135.85 107.83 136.283 108.404C136.721 108.975 136.939 109.77 136.939 110.789V110.895ZM136.236 110.771C136.236 109.936 136.074 109.291 135.75 108.838C135.426 108.381 134.969 108.152 134.379 108.152C133.93 108.152 133.549 108.264 133.236 108.486C132.924 108.705 132.688 109.027 132.527 109.453V112.312C132.879 113.109 133.5 113.508 134.391 113.508C134.969 113.508 135.42 113.279 135.744 112.822C136.072 112.365 136.236 111.682 136.236 110.771ZM142.494 114C142.424 113.801 142.379 113.506 142.359 113.115C142.113 113.436 141.799 113.684 141.416 113.859C141.037 114.031 140.635 114.117 140.209 114.117C139.6 114.117 139.105 113.947 138.727 113.607C138.352 113.268 138.164 112.838 138.164 112.318C138.164 111.701 138.42 111.213 138.932 110.854C139.447 110.494 140.164 110.314 141.082 110.314H142.354V109.594C142.354 109.141 142.213 108.785 141.932 108.527C141.654 108.266 141.248 108.135 140.713 108.135C140.225 108.135 139.82 108.26 139.5 108.51C139.18 108.76 139.02 109.061 139.02 109.412L138.316 109.406C138.316 108.902 138.551 108.467 139.02 108.1C139.488 107.729 140.064 107.543 140.748 107.543C141.455 107.543 142.012 107.721 142.418 108.076C142.828 108.428 143.039 108.92 143.051 109.553V112.553C143.051 113.166 143.115 113.625 143.244 113.93V114H142.494ZM140.291 113.496C140.76 113.496 141.178 113.383 141.545 113.156C141.916 112.93 142.186 112.627 142.354 112.248V110.854H141.1C140.4 110.861 139.854 110.99 139.459 111.24C139.064 111.486 138.867 111.826 138.867 112.26C138.867 112.615 138.998 112.91 139.26 113.145C139.525 113.379 139.869 113.496 140.291 113.496ZM148.482 107.66L148.506 108.691C148.74 108.309 149.033 108.021 149.385 107.83C149.736 107.639 150.127 107.543 150.557 107.543C151.557 107.543 152.191 107.953 152.461 108.773C152.688 108.379 152.99 108.076 153.369 107.865C153.748 107.65 154.166 107.543 154.623 107.543C155.982 107.543 156.676 108.285 156.703 109.77V114H156V109.822C155.996 109.256 155.873 108.836 155.631 108.562C155.393 108.289 155.002 108.152 154.459 108.152C153.955 108.16 153.529 108.324 153.182 108.645C152.834 108.961 152.641 109.348 152.602 109.805V114H151.898V109.77C151.895 109.227 151.766 108.822 151.512 108.557C151.262 108.287 150.875 108.152 150.352 108.152C149.91 108.152 149.531 108.279 149.215 108.533C148.898 108.783 148.664 109.156 148.512 109.652V114H147.809V107.66H148.482ZM162.486 114C162.416 113.801 162.371 113.506 162.352 113.115C162.105 113.436 161.791 113.684 161.408 113.859C161.029 114.031 160.627 114.117 160.201 114.117C159.592 114.117 159.098 113.947 158.719 113.607C158.344 113.268 158.156 112.838 158.156 112.318C158.156 111.701 158.412 111.213 158.924 110.854C159.439 110.494 160.156 110.314 161.074 110.314H162.346V109.594C162.346 109.141 162.205 108.785 161.924 108.527C161.646 108.266 161.24 108.135 160.705 108.135C160.217 108.135 159.812 108.26 159.492 108.51C159.172 108.76 159.012 109.061 159.012 109.412L158.309 109.406C158.309 108.902 158.543 108.467 159.012 108.1C159.48 107.729 160.057 107.543 160.74 107.543C161.447 107.543 162.004 107.721 162.41 108.076C162.82 108.428 163.031 108.92 163.043 109.553V112.553C163.043 113.166 163.107 113.625 163.236 113.93V114H162.486ZM160.283 113.496C160.752 113.496 161.17 113.383 161.537 113.156C161.908 112.93 162.178 112.627 162.346 112.248V110.854H161.092C160.393 110.861 159.846 110.99 159.451 111.24C159.057 111.486 158.859 111.826 158.859 112.26C158.859 112.615 158.99 112.91 159.252 113.145C159.518 113.379 159.861 113.496 160.283 113.496ZM165.703 114H165V107.66H165.703V114ZM164.877 105.826C164.877 105.693 164.92 105.582 165.006 105.492C165.092 105.398 165.209 105.352 165.357 105.352C165.506 105.352 165.623 105.398 165.709 105.492C165.799 105.582 165.844 105.693 165.844 105.826C165.844 105.959 165.799 106.07 165.709 106.16C165.623 106.25 165.506 106.295 165.357 106.295C165.209 106.295 165.092 106.25 165.006 106.16C164.92 106.07 164.877 105.959 164.877 105.826ZM171.41 112.389C171.41 112.041 171.27 111.762 170.988 111.551C170.711 111.34 170.291 111.176 169.729 111.059C169.166 110.938 168.729 110.801 168.416 110.648C168.107 110.492 167.877 110.303 167.725 110.08C167.576 109.857 167.502 109.588 167.502 109.271C167.502 108.771 167.711 108.359 168.129 108.035C168.547 107.707 169.082 107.543 169.734 107.543C170.441 107.543 171.008 107.719 171.434 108.07C171.863 108.418 172.078 108.873 172.078 109.436H171.375C171.375 109.064 171.219 108.756 170.906 108.51C170.598 108.264 170.207 108.141 169.734 108.141C169.273 108.141 168.902 108.244 168.621 108.451C168.344 108.654 168.205 108.92 168.205 109.248C168.205 109.564 168.32 109.811 168.551 109.986C168.785 110.158 169.209 110.316 169.822 110.461C170.439 110.605 170.9 110.76 171.205 110.924C171.514 111.088 171.742 111.285 171.891 111.516C172.039 111.746 172.113 112.025 172.113 112.354C172.113 112.889 171.896 113.316 171.463 113.637C171.033 113.957 170.471 114.117 169.775 114.117C169.037 114.117 168.438 113.939 167.977 113.584C167.52 113.225 167.291 112.771 167.291 112.225H167.994C168.021 112.635 168.193 112.955 168.51 113.186C168.83 113.412 169.252 113.525 169.775 113.525C170.264 113.525 170.658 113.418 170.959 113.203C171.26 112.988 171.41 112.717 171.41 112.389Z" fill="#0C29D0"/>
<path d="M173.631 113.578C173.631 113.441 173.674 113.326 173.76 113.232C173.85 113.135 173.973 113.086 174.129 113.086C174.285 113.086 174.408 113.135 174.498 113.232C174.588 113.326 174.633 113.441 174.633 113.578C174.633 113.715 174.588 113.828 174.498 113.918C174.408 114.004 174.285 114.047 174.129 114.047C173.973 114.047 173.85 114.004 173.76 113.918C173.674 113.828 173.631 113.715 173.631 113.578Z" fill="#243ED5"/>
<circle cx="12" cy="52" r="2" fill="black"/>
<circle cx="12" cy="95" r="2" fill="black"/>
</svg>
