<svg width="160" height="53" viewBox="0 0 160 53" fill="none" xmlns="http://www.w3.org/2000/svg">
<path d="M22.04 52.7C17.56 52.7 13.6867 51.72 10.42 49.76C7.15333 47.7533 4.65667 44.9067 2.93 41.22C1.20333 37.5333 0.34 33.17 0.34 28.13C0.34 22.9033 1.25 18.3533 3.07 14.48C4.93667 10.56 7.57333 7.55 10.98 5.45C14.3867 3.35 18.3767 2.3 22.95 2.3C27.3833 2.3 31.2333 3.30333 34.5 5.31C37.7667 7.27 40.2633 10.0933 41.99 13.78C43.7167 17.4667 44.58 21.83 44.58 26.87C44.58 32.0967 43.6467 36.6467 41.78 40.52C39.96 44.3933 37.3467 47.4033 33.94 49.55C30.58 51.65 26.6133 52.7 22.04 52.7ZM22.04 45.56C26.52 45.56 29.95 43.9733 32.33 40.8C34.7567 37.58 35.97 32.9367 35.97 26.87C35.97 21.13 34.85 16.79 32.61 13.85C30.4167 10.91 27.15 9.44 22.81 9.44C18.33 9.44 14.9 11.05 12.52 14.27C10.14 17.4433 8.95 22.04 8.95 28.06C8.95 33.8467 10.0467 38.21 12.24 41.15C14.48 44.09 17.7467 45.56 22.04 45.56ZM53.8802 52C52.0602 52 51.1502 51.2067 51.1502 49.62V47.24C51.1502 45.6533 52.0602 44.86 53.8802 44.86H55.4202V7.34H53.8802C52.0602 7.34 51.1502 6.54666 51.1502 4.96V2.58C51.1502 0.993332 52.0602 0.199999 53.8802 0.199999H60.7402C61.5802 0.199999 62.2802 0.503332 62.8402 1.11C63.4468 1.67 63.7502 2.34666 63.7502 3.14V44.86H65.2202C67.0402 44.86 67.9502 45.6533 67.9502 47.24V49.62C67.9502 51.2067 67.0402 52 65.2202 52H53.8802ZM80.5299 11.54C78.9433 11.54 77.6133 11.0033 76.5399 9.93C75.4666 8.85667 74.9299 7.52666 74.9299 5.94C74.9299 4.35333 75.4666 3.02333 76.5399 1.95C77.6133 0.876664 78.9433 0.339998 80.5299 0.339998C82.1166 0.339998 83.4466 0.876664 84.5199 1.95C85.5933 3.02333 86.1299 4.35333 86.1299 5.94C86.1299 7.52666 85.5933 8.85667 84.5199 9.93C83.4466 11.0033 82.1166 11.54 80.5299 11.54ZM76.0499 52C74.2299 52 73.3199 51.2067 73.3199 49.62V47.24C73.3199 45.6533 74.2299 44.86 76.0499 44.86H77.5899V24.14H76.0499C74.2299 24.14 73.3199 23.3467 73.3199 21.76V19.38C73.3199 17.7933 74.2299 17 76.0499 17H82.9099C83.7499 17 84.4499 17.3033 85.0099 17.91C85.6166 18.47 85.9199 19.1467 85.9199 19.94V44.86H87.3899C89.2099 44.86 90.1199 45.6533 90.1199 47.24V49.62C90.1199 51.2067 89.2099 52 87.3899 52H76.0499ZM112.407 30.86C116.84 32.12 119.967 33.59 121.787 35.27C123.607 36.9033 124.517 39.12 124.517 41.92C124.517 43.9733 123.91 45.8167 122.697 47.45C121.483 49.0833 119.78 50.3667 117.587 51.3C115.44 52.2333 112.943 52.7 110.097 52.7C105.663 52.7 102.14 51.93 99.5267 50.39C96.9134 48.85 95.6067 46.82 95.6067 44.3C95.6067 42.8533 96.0501 41.6867 96.9367 40.8C97.8234 39.8667 98.9901 39.4 100.437 39.4C101.743 39.4 102.84 39.8667 103.727 40.8C104.66 41.6867 105.127 42.8067 105.127 44.16C105.127 44.72 105.01 45.28 104.777 45.84C105.85 46.6333 107.577 47.03 109.957 47.03C111.963 47.03 113.503 46.68 114.577 45.98C115.65 45.28 116.187 44.3233 116.187 43.11C116.187 41.8967 115.767 40.9633 114.927 40.31C114.133 39.6567 112.477 38.98 109.957 38.28C106.457 37.3 103.727 36.2967 101.767 35.27C99.8067 34.2433 98.4067 33.0767 97.5667 31.77C96.7267 30.4167 96.3067 28.76 96.3067 26.8C96.3067 24.7467 96.9134 22.9267 98.1267 21.34C99.3401 19.7533 101.02 18.5167 103.167 17.63C105.36 16.7433 107.857 16.3 110.657 16.3C114.763 16.3 118.007 17.0233 120.387 18.47C122.813 19.87 124.027 21.8067 124.027 24.28C124.027 25.7267 123.583 26.8933 122.697 27.78C121.857 28.6667 120.69 29.11 119.197 29.11C117.89 29.11 116.77 28.6667 115.837 27.78C114.95 26.8467 114.507 25.7267 114.507 24.42C114.507 23.8133 114.6 23.3233 114.787 22.95C113.947 22.2967 112.5 21.97 110.447 21.97C108.673 21.97 107.25 22.3433 106.177 23.09C105.15 23.8367 104.637 24.8167 104.637 26.03C104.637 27.0567 105.15 27.8967 106.177 28.55C107.25 29.2033 109.327 29.9733 112.407 30.86ZM156.074 40.1C157.054 40.1 157.894 40.4033 158.594 41.01C159.294 41.57 159.644 42.27 159.644 43.11C159.644 44.0433 159.317 45.0467 158.664 46.12C157.45 48.08 156.05 49.6667 154.464 50.88C152.877 52.0933 150.894 52.7 148.514 52.7C144.36 52.7 141.21 51.51 139.064 49.13C136.964 46.75 135.914 43.2033 135.914 38.49V24H132.344C131.457 24 130.734 23.7433 130.174 23.23C129.66 22.7167 129.404 22.04 129.404 21.2V19.8C129.404 18.96 129.66 18.2833 130.174 17.77C130.734 17.2567 131.457 17 132.344 17H135.914V10.63C135.914 9.74333 136.17 9.04333 136.684 8.53C137.244 7.97 137.944 7.69 138.784 7.69H141.374C142.214 7.69 142.89 7.97 143.404 8.53C143.964 9.04333 144.244 9.74333 144.244 10.63V17H152.504C153.39 17 154.09 17.2567 154.604 17.77C155.164 18.2833 155.444 18.96 155.444 19.8V21.2C155.444 22.04 155.164 22.7167 154.604 23.23C154.09 23.7433 153.39 24 152.504 24H144.244V39.19C144.244 41.29 144.64 42.9 145.434 44.02C146.227 45.14 147.347 45.7 148.794 45.7C149.96 45.7 150.87 45.42 151.524 44.86C152.177 44.2533 152.854 43.25 153.554 41.85C153.927 41.1967 154.277 40.7533 154.604 40.52C154.977 40.24 155.467 40.1 156.074 40.1Z" fill="white"/>
</svg>
